<svg width="420" height="68" viewBox="0 0 420 68" fill="none" xmlns="http://www.w3.org/2000/svg">
<rect width="420" height="68" rx="34" fill="#F19C1C"/>
<path d="M37.12 27.8L32.32 41H29.1L24.28 27.8H27.2L29.98 36.2L30.74 38.8L31.48 36.22L34.28 27.8H37.12ZM44.4669 27.6C45.7735 27.6 46.9002 27.8733 47.8469 28.42C48.7935 28.9667 49.5202 29.7467 50.0269 30.76C50.5469 31.7733 50.8069 32.9867 50.8069 34.4C50.8069 35.8133 50.5469 37.0267 50.0269 38.04C49.5202 39.0533 48.7935 39.8333 47.8469 40.38C46.9002 40.9267 45.7735 41.2 44.4669 41.2C43.1602 41.2 42.0269 40.9267 41.0669 40.38C40.1202 39.8333 39.3869 39.0533 38.8669 38.04C38.3602 37.0267 38.1069 35.8133 38.1069 34.4C38.1069 32.9867 38.3602 31.7733 38.8669 30.76C39.3869 29.7467 40.1202 28.9667 41.0669 28.42C42.0269 27.8733 43.1602 27.6 44.4669 27.6ZM44.4669 29.86C43.7202 29.86 43.0869 30.0333 42.5669 30.38C42.0469 30.7267 41.6469 31.24 41.3669 31.92C41.1002 32.5867 40.9669 33.4133 40.9669 34.4C40.9669 35.3733 41.1002 36.2 41.3669 36.88C41.6469 37.56 42.0469 38.0733 42.5669 38.42C43.0869 38.7667 43.7202 38.94 44.4669 38.94C45.2002 38.94 45.8269 38.7667 46.3469 38.42C46.8669 38.0733 47.2602 37.56 47.5269 36.88C47.8069 36.2 47.9469 35.3733 47.9469 34.4C47.9469 33.4133 47.8069 32.5867 47.5269 31.92C47.2602 31.24 46.8669 30.7267 46.3469 30.38C45.8269 30.0333 45.2002 29.86 44.4669 29.86ZM56.3511 38.78H63.3111V41H53.5911V27.8H56.3511V38.78ZM73.367 27.8V30.02H68.947V41H66.187V30.02H61.747V27.8H73.367ZM85.3831 41H82.5231L81.4231 37.78H76.3631L75.2631 41H72.4431L77.2631 27.8H80.5631L85.3831 41ZM76.9831 35.74H80.8031L78.8831 29.98L76.9831 35.74ZM93.1611 27.8C94.6544 27.8 95.8278 28.16 96.6811 28.88C97.5344 29.6 97.9611 30.5667 97.9611 31.78C97.9611 33.0733 97.5344 34.0667 96.6811 34.76C95.8278 35.44 94.6611 35.78 93.1811 35.78L92.9011 35.94H90.0611V41H87.3411V27.8H93.1611ZM92.8411 33.84C93.6144 33.84 94.1878 33.6867 94.5611 33.38C94.9478 33.06 95.1411 32.5733 95.1411 31.92C95.1411 31.2667 94.9478 30.7867 94.5611 30.48C94.1878 30.16 93.6144 30 92.8411 30H90.0611V33.84H92.8411ZM94.4611 34.42L98.7411 41H95.6411L92.1011 35.22L94.4611 34.42ZM112.588 27.8C113.601 27.8 114.468 27.9733 115.188 28.32C115.908 28.6533 116.461 29.14 116.848 29.78C117.248 30.4067 117.448 31.1667 117.448 32.06C117.448 32.9533 117.248 33.72 116.848 34.36C116.461 34.9867 115.908 35.4733 115.188 35.82C114.468 36.1533 113.601 36.32 112.588 36.32H109.808V41H107.048V27.8H112.588ZM112.168 34.14C112.995 34.14 113.615 33.9667 114.028 33.62C114.441 33.26 114.648 32.74 114.648 32.06C114.648 31.3667 114.441 30.8467 114.028 30.5C113.615 30.1533 112.995 29.98 112.168 29.98H109.808V34.14H112.168ZM130.246 41H127.386L126.286 37.78H121.226L120.126 41H117.306L122.126 27.8H125.426L130.246 41ZM121.846 35.74H125.666L123.746 29.98L121.846 35.74ZM138.024 27.8C139.518 27.8 140.691 28.16 141.544 28.88C142.398 29.6 142.824 30.5667 142.824 31.78C142.824 33.0733 142.398 34.0667 141.544 34.76C140.691 35.44 139.524 35.78 138.044 35.78L137.764 35.94H134.924V41H132.204V27.8H138.024ZM137.704 33.84C138.478 33.84 139.051 33.6867 139.424 33.38C139.811 33.06 140.004 32.5733 140.004 31.92C140.004 31.2667 139.811 30.7867 139.424 30.48C139.051 30.16 138.478 30 137.704 30H134.924V33.84H137.704ZM139.324 34.42L143.604 41H140.504L136.964 35.22L139.324 34.42ZM157.258 41H154.398L153.298 37.78H148.238L147.138 41H144.318L149.138 27.8H152.438L157.258 41ZM148.858 35.74H152.678L150.758 29.98L148.858 35.74ZM170.463 27.6C171.77 27.6 172.896 27.8733 173.843 28.42C174.79 28.9667 175.516 29.7467 176.023 30.76C176.543 31.7733 176.803 32.9867 176.803 34.4C176.803 35.8133 176.543 37.0267 176.023 38.04C175.516 39.0533 174.79 39.8333 173.843 40.38C172.896 40.9267 171.77 41.2 170.463 41.2C169.156 41.2 168.023 40.9267 167.063 40.38C166.116 39.8333 165.383 39.0533 164.863 38.04C164.356 37.0267 164.103 35.8133 164.103 34.4C164.103 32.9867 164.356 31.7733 164.863 30.76C165.383 29.7467 166.116 28.9667 167.063 28.42C168.023 27.8733 169.156 27.6 170.463 27.6ZM170.463 29.86C169.716 29.86 169.083 30.0333 168.563 30.38C168.043 30.7267 167.643 31.24 167.363 31.92C167.096 32.5867 166.963 33.4133 166.963 34.4C166.963 35.3733 167.096 36.2 167.363 36.88C167.643 37.56 168.043 38.0733 168.563 38.42C169.083 38.7667 169.716 38.94 170.463 38.94C171.196 38.94 171.823 38.7667 172.343 38.42C172.863 38.0733 173.256 37.56 173.523 36.88C173.803 36.2 173.943 35.3733 173.943 34.4C173.943 33.4133 173.803 32.5867 173.523 31.92C173.256 31.24 172.863 30.7267 172.343 30.38C171.823 30.0333 171.196 29.86 170.463 29.86ZM190.52 27.6C191.72 27.6 192.774 27.8067 193.68 28.22C194.587 28.6333 195.36 29.2467 196 30.06L194.46 31.84C193.914 31.1467 193.314 30.64 192.66 30.32C192.02 29.9867 191.274 29.82 190.42 29.82C189.86 29.82 189.394 29.8933 189.02 30.04C188.66 30.1867 188.394 30.38 188.22 30.62C188.06 30.86 187.98 31.1267 187.98 31.42C187.98 31.78 188.12 32.0867 188.4 32.34C188.68 32.58 189.16 32.78 189.84 32.94L192.3 33.5C193.607 33.7933 194.54 34.2333 195.1 34.82C195.674 35.3933 195.96 36.14 195.96 37.06C195.96 37.9267 195.734 38.6733 195.28 39.3C194.827 39.9133 194.194 40.3867 193.38 40.72C192.567 41.04 191.634 41.2 190.58 41.2C189.66 41.2 188.814 41.0933 188.04 40.88C187.28 40.6533 186.6 40.3467 186 39.96C185.4 39.5733 184.9 39.1267 184.5 38.62L186.06 36.76C186.367 37.1867 186.747 37.5667 187.2 37.9C187.654 38.2333 188.167 38.5 188.74 38.7C189.327 38.8867 189.94 38.98 190.58 38.98C191.127 38.98 191.587 38.92 191.96 38.8C192.347 38.6667 192.634 38.4867 192.82 38.26C193.02 38.02 193.12 37.7333 193.12 37.4C193.12 37.0533 193 36.76 192.76 36.52C192.534 36.2667 192.107 36.0733 191.48 35.94L188.8 35.34C188.027 35.1533 187.36 34.9133 186.8 34.62C186.254 34.3133 185.834 33.9267 185.54 33.46C185.26 32.98 185.12 32.4133 185.12 31.76C185.12 30.9733 185.334 30.2667 185.76 29.64C186.187 29.0133 186.8 28.52 187.6 28.16C188.414 27.7867 189.387 27.6 190.52 27.6ZM198.572 41V27.8H208.472V30.02H201.332V33.3H206.952V35.42H201.332V38.78H208.752V41H198.572ZM213.988 38.78H220.948V41H211.228V27.8H213.988V38.78ZM223.24 41V27.8H233.14V30.02H226V33.3H231.62V35.42H226V38.78H233.42V41H223.24ZM246.336 27.8V30.02H241.916V41H239.156V30.02H234.716V27.8H246.336ZM253.783 27.6C255.09 27.6 256.217 27.8733 257.163 28.42C258.11 28.9667 258.837 29.7467 259.343 30.76C259.863 31.7733 260.123 32.9867 260.123 34.4C260.123 35.8133 259.863 37.0267 259.343 38.04C258.837 39.0533 258.11 39.8333 257.163 40.38C256.217 40.9267 255.09 41.2 253.783 41.2C252.477 41.2 251.343 40.9267 250.383 40.38C249.437 39.8333 248.703 39.0533 248.183 38.04C247.677 37.0267 247.423 35.8133 247.423 34.4C247.423 32.9867 247.677 31.7733 248.183 30.76C248.703 29.7467 249.437 28.9667 250.383 28.42C251.343 27.8733 252.477 27.6 253.783 27.6ZM253.783 29.86C253.037 29.86 252.403 30.0333 251.883 30.38C251.363 30.7267 250.963 31.24 250.683 31.92C250.417 32.5867 250.283 33.4133 250.283 34.4C250.283 35.3733 250.417 36.2 250.683 36.88C250.963 37.56 251.363 38.0733 251.883 38.42C252.403 38.7667 253.037 38.94 253.783 38.94C254.517 38.94 255.143 38.7667 255.663 38.42C256.183 38.0733 256.577 37.56 256.843 36.88C257.123 36.2 257.263 35.3733 257.263 34.4C257.263 33.4133 257.123 32.5867 256.843 31.92C256.577 31.24 256.183 30.7267 255.663 30.38C255.143 30.0333 254.517 29.86 253.783 29.86ZM268.728 27.8C270.221 27.8 271.394 28.16 272.248 28.88C273.101 29.6 273.528 30.5667 273.528 31.78C273.528 33.0733 273.101 34.0667 272.248 34.76C271.394 35.44 270.228 35.78 268.748 35.78L268.468 35.94H265.628V41H262.908V27.8H268.728ZM268.408 33.84C269.181 33.84 269.754 33.6867 270.128 33.38C270.514 33.06 270.708 32.5733 270.708 31.92C270.708 31.2667 270.514 30.7867 270.128 30.48C269.754 30.16 269.181 30 268.408 30H265.628V33.84H268.408ZM270.028 34.42L274.308 41H271.208L267.668 35.22L270.028 34.42ZM287.715 27.8C289.781 27.8 291.381 28.3733 292.515 29.52C293.648 30.6533 294.215 32.28 294.215 34.4C294.215 36.5067 293.648 38.1333 292.515 39.28C291.381 40.4267 289.781 41 287.715 41H282.615V27.8H287.715ZM287.575 38.8C288.828 38.8 289.768 38.4267 290.395 37.68C291.035 36.92 291.355 35.8267 291.355 34.4C291.355 32.9733 291.035 31.8867 290.395 31.14C289.768 30.38 288.828 30 287.575 30H285.375V38.8H287.575ZM296.99 41V27.8H306.89V30.02H299.75V33.3H305.37V35.42H299.75V38.78H307.17V41H296.99ZM325.639 30.02H318.519V33.38H324.139V35.6H318.519V41H315.759V27.8H325.639V30.02ZM330.765 27.8V41H328.005V27.8H330.765ZM336.957 38.78H343.917V41H334.197V27.8H336.957V38.78ZM353.973 27.8V30.02H349.553V41H346.793V30.02H342.353V27.8H353.973ZM362.048 27.8C363.541 27.8 364.714 28.16 365.568 28.88C366.421 29.6 366.848 30.5667 366.848 31.78C366.848 33.0733 366.421 34.0667 365.568 34.76C364.714 35.44 363.548 35.78 362.068 35.78L361.788 35.94H358.948V41H356.228V27.8H362.048ZM361.728 33.84C362.501 33.84 363.074 33.6867 363.448 33.38C363.834 33.06 364.028 32.5733 364.028 31.92C364.028 31.2667 363.834 30.7867 363.448 30.48C363.074 30.16 362.501 30 361.728 30H358.948V33.84H361.728ZM363.348 34.42L367.628 41H364.528L360.988 35.22L363.348 34.42ZM375.404 27.6C376.711 27.6 377.838 27.8733 378.784 28.42C379.731 28.9667 380.458 29.7467 380.964 30.76C381.484 31.7733 381.744 32.9867 381.744 34.4C381.744 35.8133 381.484 37.0267 380.964 38.04C380.458 39.0533 379.731 39.8333 378.784 40.38C377.838 40.9267 376.711 41.2 375.404 41.2C374.098 41.2 372.964 40.9267 372.004 40.38C371.058 39.8333 370.324 39.0533 369.804 38.04C369.298 37.0267 369.044 35.8133 369.044 34.4C369.044 32.9867 369.298 31.7733 369.804 30.76C370.324 29.7467 371.058 28.9667 372.004 28.42C372.964 27.8733 374.098 27.6 375.404 27.6ZM375.404 29.86C374.658 29.86 374.024 30.0333 373.504 30.38C372.984 30.7267 372.584 31.24 372.304 31.92C372.038 32.5867 371.904 33.4133 371.904 34.4C371.904 35.3733 372.038 36.2 372.304 36.88C372.584 37.56 372.984 38.0733 373.504 38.42C374.024 38.7667 374.658 38.94 375.404 38.94C376.138 38.94 376.764 38.7667 377.284 38.42C377.804 38.0733 378.198 37.56 378.464 36.88C378.744 36.2 378.884 35.3733 378.884 34.4C378.884 33.4133 378.744 32.5867 378.464 31.92C378.198 31.24 377.804 30.7267 377.284 30.38C376.764 30.0333 376.138 29.86 375.404 29.86ZM389.27 27.6C390.47 27.6 391.524 27.8067 392.43 28.22C393.337 28.6333 394.11 29.2467 394.75 30.06L393.21 31.84C392.664 31.1467 392.064 30.64 391.41 30.32C390.77 29.9867 390.024 29.82 389.17 29.82C388.61 29.82 388.144 29.8933 387.77 30.04C387.41 30.1867 387.144 30.38 386.97 30.62C386.81 30.86 386.73 31.1267 386.73 31.42C386.73 31.78 386.87 32.0867 387.15 32.34C387.43 32.58 387.91 32.78 388.59 32.94L391.05 33.5C392.357 33.7933 393.29 34.2333 393.85 34.82C394.424 35.3933 394.71 36.14 394.71 37.06C394.71 37.9267 394.484 38.6733 394.03 39.3C393.577 39.9133 392.944 40.3867 392.13 40.72C391.317 41.04 390.384 41.2 389.33 41.2C388.41 41.2 387.564 41.0933 386.79 40.88C386.03 40.6533 385.35 40.3467 384.75 39.96C384.15 39.5733 383.65 39.1267 383.25 38.62L384.81 36.76C385.117 37.1867 385.497 37.5667 385.95 37.9C386.404 38.2333 386.917 38.5 387.49 38.7C388.077 38.8867 388.69 38.98 389.33 38.98C389.877 38.98 390.337 38.92 390.71 38.8C391.097 38.6667 391.384 38.4867 391.57 38.26C391.77 38.02 391.87 37.7333 391.87 37.4C391.87 37.0533 391.75 36.76 391.51 36.52C391.284 36.2667 390.857 36.0733 390.23 35.94L387.55 35.34C386.777 35.1533 386.11 34.9133 385.55 34.62C385.004 34.3133 384.584 33.9267 384.29 33.46C384.01 32.98 383.87 32.4133 383.87 31.76C383.87 30.9733 384.084 30.2667 384.51 29.64C384.937 29.0133 385.55 28.52 386.35 28.16C387.164 27.7867 388.137 27.6 389.27 27.6Z" fill="#1F1F1F"/>
</svg>
