<svg width="1080" height="682" viewBox="0 0 1080 682" fill="none" xmlns="http://www.w3.org/2000/svg">
<path opacity="0.0144928" d="M499.352 -579.255C491.851 -586.241 480.632 -587.42 471.843 -582.146L300.983 -479.627C295.785 -476.509 292.029 -471.464 290.531 -465.59L217.973 -181.13C216.795 -176.511 217.081 -171.639 218.792 -167.19L310.148 70.3633C313.25 78.4311 320.614 84.0781 329.211 84.9816L500.164 102.95C508.76 103.853 517.137 99.8605 521.849 92.614L660.598 -120.754C663.197 -124.751 664.49 -129.456 664.298 -134.219L652.469 -427.549C652.224 -433.606 649.599 -439.321 645.163 -443.453L499.352 -579.255Z" stroke="url(#paint0_linear_331_488)" stroke-width="4"/>
<path opacity="0.0289855" d="M530.634 -569.603C523.516 -576.941 512.409 -578.7 503.372 -573.921L328.546 -481.461C323.18 -478.623 319.153 -473.778 317.344 -467.983L230.69 -190.399C229.266 -185.834 229.299 -180.939 230.785 -176.395L309.206 63.356C311.89 71.5608 318.942 77.572 327.468 78.9225L496.189 105.645C504.715 106.996 513.28 103.458 518.368 96.4839L667.037 -107.299C669.855 -111.162 671.399 -115.807 671.455 -120.588L674.821 -411.365C674.891 -417.435 672.559 -423.287 668.332 -427.645L530.634 -569.603Z" stroke="url(#paint1_linear_331_488)" stroke-width="4"/>
<path opacity="0.0434783" d="M561.403 -559.068C554.685 -566.737 543.719 -569.068 534.463 -564.795L356.251 -482.525C350.731 -479.977 346.445 -475.347 344.329 -469.647L244.099 -199.626C242.43 -195.13 242.209 -190.224 243.465 -185.596L308.972 55.6561C311.231 63.9761 317.954 70.334 326.387 72.1265L492.431 107.42C500.863 109.213 509.591 106.139 515.038 99.4568L673.008 -94.2934C676.039 -98.0106 677.831 -102.582 678.136 -107.369L696.398 -394.812C696.784 -400.88 694.751 -406.853 690.745 -411.427L561.403 -559.068Z" stroke="url(#paint2_linear_331_488)" stroke-width="4"/>
<path opacity="0.057971" d="M591.615 -547.688C585.311 -555.666 574.518 -558.558 565.07 -554.801L384.057 -482.819C378.399 -480.569 373.864 -476.168 371.446 -470.579L258.192 -208.776C256.282 -204.36 255.805 -199.457 256.827 -194.756L309.478 47.3086C311.308 55.7216 317.684 62.4081 326 64.6365L488.936 108.295C497.253 110.523 506.117 107.921 511.909 101.55L678.538 -81.7588C681.774 -85.3188 683.812 -89.804 684.366 -94.5831L717.187 -377.938C717.887 -383.987 716.161 -390.066 712.386 -394.844L591.615 -547.688Z" stroke="url(#paint3_linear_331_488)" stroke-width="4"/>
<path opacity="0.0724638" d="M621.229 -535.5C615.354 -543.764 604.761 -547.206 595.151 -543.973L411.921 -482.345C406.141 -480.401 401.37 -476.241 398.656 -470.779L272.961 -217.81C270.814 -213.488 270.08 -208.6 270.864 -203.838L310.754 38.3608C312.151 46.8445 318.164 53.8405 326.341 56.4974L485.753 108.293C493.93 110.95 502.906 108.825 509.023 102.782L683.655 -69.7142C687.089 -73.1058 689.369 -77.4915 690.172 -82.2504L737.174 -360.788C738.189 -366.801 736.774 -372.972 733.24 -377.942L621.229 -535.5Z" stroke="url(#paint4_linear_331_488)" stroke-width="4"/>
<path opacity="0.0869565" d="M650.206 -522.546C644.773 -531.072 634.409 -535.05 624.666 -532.35L439.803 -481.106C433.917 -479.474 428.922 -475.569 425.919 -470.25L288.395 -226.693C286.014 -222.478 285.025 -217.618 285.568 -212.807L312.825 28.8607C313.788 37.3927 319.422 44.6783 327.438 47.7552L482.924 107.441C490.939 110.518 500.002 108.874 506.426 103.177L688.39 -58.1781C692.012 -61.3903 694.528 -65.6637 695.58 -70.3896L756.352 -343.409C757.679 -349.371 756.58 -355.616 753.298 -360.766L650.206 -522.546Z" stroke="url(#paint5_linear_331_488)" stroke-width="4"/>
<path opacity="0.101449" d="M678.511 -508.867C673.531 -517.632 663.423 -522.133 653.577 -519.969L467.661 -479.109C461.686 -477.796 456.481 -474.157 453.195 -468.997L304.48 -235.391C301.872 -231.293 300.628 -226.475 300.926 -221.627L315.716 18.8573C316.242 27.415 321.485 34.9696 329.318 38.457L480.491 105.764C488.324 109.251 497.446 108.092 504.158 102.757L692.769 -47.1671C696.572 -50.1895 699.32 -54.338 700.619 -59.0181L774.713 -325.848C776.349 -331.742 775.571 -338.046 772.549 -343.364L678.511 -508.867Z" stroke="url(#paint6_linear_331_488)" stroke-width="4"/>
<path opacity="0.115942" d="M706.11 -494.509C701.593 -503.488 691.768 -508.494 681.848 -506.871L495.455 -476.363C489.409 -475.373 484.007 -472.012 480.449 -467.025L321.204 -243.867C318.373 -239.9 316.875 -235.137 316.927 -230.264L319.447 8.40045C319.537 16.9616 324.375 24.7639 332.004 28.6508L478.498 103.293C486.126 107.18 495.282 106.508 502.261 101.549L696.826 -36.6957C700.799 -39.5183 703.772 -43.5296 705.317 -48.1512L792.254 -308.152C794.197 -313.962 793.741 -320.308 790.988 -325.781L706.11 -494.509Z" stroke="url(#paint7_linear_331_488)" stroke-width="4"/>
<path opacity="0.130435" d="M732.973 -479.516C728.928 -488.685 719.411 -494.179 709.448 -493.098L523.147 -472.877C517.047 -472.215 511.463 -469.142 507.64 -464.343L338.548 -252.089C335.501 -248.265 333.753 -243.569 333.556 -238.684L324.035 -2.45829C323.69 6.08382 328.112 14.1121 335.516 18.3866L476.98 100.061C484.384 104.335 493.548 104.151 500.773 99.5817L700.59 -26.7766C704.722 -29.3898 707.915 -33.2519 709.703 -37.8023L808.974 -290.367C811.219 -296.078 811.088 -302.45 808.611 -308.064L732.973 -479.516Z" stroke="url(#paint8_linear_331_488)" stroke-width="4"/>
<path opacity="0.144928" d="M759.072 -463.935C755.506 -473.269 746.322 -479.233 736.345 -478.694L550.699 -468.665C544.561 -468.334 538.812 -465.559 534.733 -460.961L356.495 -260.025C353.24 -256.355 351.243 -251.74 350.797 -246.855L329.495 -13.668C328.719 -5.16716 332.714 3.06455 339.873 7.71373L475.976 96.1C483.135 100.749 492.28 101.051 499.73 96.884L704.093 -17.4215C708.375 -19.8163 711.778 -23.5173 713.807 -27.9841L824.875 -272.541C827.417 -278.137 827.613 -284.518 825.419 -290.26L759.072 -463.935Z" stroke="url(#paint9_linear_331_488)" stroke-width="4"/>
<path opacity="0.15942" d="M784.381 -447.815C781.301 -457.288 772.474 -463.701 762.513 -463.704L578.072 -463.741C571.916 -463.743 566.016 -461.276 561.692 -456.893L375.025 -267.644C371.569 -264.139 369.327 -259.618 368.631 -254.745L335.839 -25.1769C334.634 -16.7393 338.193 -8.32698 345.089 -3.31714L475.519 91.4459C482.415 96.4557 491.515 97.2416 499.167 93.488L707.366 -8.63966C711.786 -10.8076 715.393 -14.3362 717.658 -18.7068L839.961 -254.719C842.794 -260.185 843.317 -266.558 841.413 -272.413L784.381 -447.815Z" stroke="url(#paint10_linear_331_488)" stroke-width="4"/>
<path opacity="0.173913" d="M808.88 -431.205C806.29 -440.791 797.842 -447.633 787.927 -448.172L605.231 -458.122C599.074 -458.457 593.039 -456.306 588.483 -452.151L394.117 -274.916C390.467 -271.587 387.986 -267.172 387.04 -262.324L343.075 -36.9323C341.446 -28.5797 344.562 -20.0101 351.175 -14.6545L475.641 86.136C482.255 91.4915 491.285 92.7576 499.116 89.4273L710.442 -0.438508C714.988 -2.37157 718.79 -5.71682 721.287 -9.97908L854.238 -236.946C857.355 -242.267 858.205 -248.617 856.597 -254.57L808.88 -431.205Z" stroke="url(#paint11_linear_331_488)" stroke-width="4"/>
<path opacity="0.188406" d="M832.549 -414.153C830.453 -423.827 822.404 -431.074 812.564 -432.148L632.141 -451.825C626.001 -452.494 619.849 -450.666 615.071 -446.752L413.749 -281.812C409.914 -278.67 407.197 -274.374 406.003 -269.563L351.209 -48.8823C349.162 -40.636 351.827 -31.9328 358.142 -26.2475L476.373 80.2085C482.687 85.8938 491.621 87.6349 499.608 84.7367L713.353 7.17612C718.012 5.48522 722.001 2.33407 724.725 -1.80788L867.717 -219.268C871.11 -224.429 872.286 -230.738 870.978 -236.775L832.549 -414.153Z" stroke="url(#paint12_linear_331_488)" stroke-width="4"/>
<path opacity="0.202899" d="M855.372 -396.711C853.772 -406.447 846.142 -414.077 836.407 -415.677L658.768 -444.87C652.663 -445.874 646.411 -444.375 641.425 -440.713L433.894 -288.306C429.885 -285.361 426.938 -281.196 425.496 -276.435L360.243 -60.9751C357.785 -52.8564 359.994 -44.0434 365.993 -38.0451L477.74 73.7025C483.739 79.7008 492.552 81.9105 500.67 79.4517L716.13 14.1995C720.891 12.7575 725.057 9.81061 728.001 5.80082L880.408 -201.729C884.07 -206.716 885.569 -212.968 884.565 -219.073L855.372 -396.711Z" stroke="url(#paint13_linear_331_488)" stroke-width="4"/>
<path opacity="0.217391" d="M877.337 -378.93C876.233 -388.701 869.04 -396.69 859.438 -398.809L685.081 -437.28C679.03 -438.615 672.695 -437.451 667.512 -434.053L454.529 -294.372C450.354 -291.634 447.184 -287.612 445.496 -282.912L370.178 -73.1586C367.316 -65.1879 369.065 -56.2893 374.732 -49.9957L479.769 66.6595C485.436 72.9532 494.103 75.6235 502.329 73.6102L718.807 20.6298C723.657 19.4428 727.988 16.7099 731.148 12.8438L892.326 -184.372C896.248 -189.171 898.067 -195.349 897.372 -201.507L877.337 -378.93Z" stroke="url(#paint14_linear_331_488)" stroke-width="4"/>
<path opacity="0.231884" d="M898.432 -360.86C897.825 -370.641 891.086 -378.963 881.644 -381.592L711.049 -429.076C705.068 -430.741 698.668 -429.917 693.304 -426.792L475.626 -299.987C471.296 -297.464 467.908 -293.596 465.978 -288.972L381.008 -85.3815C377.752 -77.579 379.039 -68.619 384.36 -62.0485L482.481 59.1211C487.801 65.6917 496.298 68.8133 504.607 67.2503L721.415 26.4662C726.34 25.5398 730.827 23.0301 734.195 19.3189L903.487 -167.237C907.659 -171.835 909.796 -177.923 909.411 -184.12L898.432 -360.86Z" stroke="url(#paint15_linear_331_488)" stroke-width="4"/>
<path opacity="0.246377" d="M918.652 -342.553C918.538 -352.319 912.269 -360.949 903.016 -364.075L736.642 -420.285C730.75 -422.276 724.303 -421.796 718.771 -418.954L497.158 -305.128C492.683 -302.83 489.085 -299.128 486.916 -294.59L392.729 -97.5937C389.089 -89.979 389.911 -80.9819 394.872 -74.1536L485.896 51.1293C490.857 57.9576 499.159 61.5201 507.526 60.4107L723.986 31.7093C728.972 31.0482 733.605 28.7704 737.173 25.2251L913.911 -150.368C918.323 -154.751 920.771 -160.734 920.699 -166.952L918.652 -342.553Z" stroke="url(#paint16_linear_331_488)" stroke-width="4"/>
<path opacity="0.26087" d="M937.992 -324.06C938.368 -333.786 932.582 -342.696 923.544 -346.307L761.832 -410.932C756.047 -413.243 749.572 -413.11 743.888 -410.561L519.094 -309.774C514.486 -307.709 510.687 -304.184 508.281 -299.745L405.331 -109.745C401.317 -102.337 401.675 -93.3269 406.264 -86.2606L490.03 42.7281C494.619 49.7943 502.705 53.7858 511.105 53.132L726.552 36.3625C731.586 35.9707 736.351 33.9331 740.113 30.5642L923.617 -133.801C928.258 -137.958 931.014 -143.819 931.255 -150.044L937.992 -324.06Z" stroke="url(#paint17_linear_331_488)" stroke-width="4"/>
<path opacity="0.275362" d="M956.45 -305.431C957.312 -315.092 952.022 -324.255 943.225 -328.338L786.595 -401.042C780.934 -403.67 774.449 -403.884 768.627 -401.637L541.405 -313.907C536.677 -312.082 532.683 -308.745 530.047 -304.416L418.803 -121.785C414.427 -114.602 414.322 -105.604 418.527 -98.3201L494.9 33.9615C499.105 41.2452 506.95 45.6528 515.359 45.4552L729.144 40.4306C734.211 40.3115 739.098 38.5217 743.043 35.3394L932.63 -117.576C937.487 -121.494 940.544 -127.218 941.099 -133.434L956.45 -305.431Z" stroke="url(#paint18_linear_331_488)" stroke-width="4"/>
<path opacity="0.289855" d="M974.03 -286.718C975.371 -296.288 970.588 -305.677 962.057 -310.216L810.906 -390.647C805.387 -393.584 798.91 -394.147 792.967 -392.208L564.061 -317.51C559.223 -315.932 555.046 -312.793 552.183 -308.586L433.129 -133.668C428.405 -126.727 427.838 -117.765 431.649 -110.285L500.516 24.8732C504.327 32.3533 511.911 37.1627 520.303 37.4205L731.793 43.9188C736.879 44.0751 741.874 42.5401 745.995 39.5542L940.973 -101.728C946.036 -105.397 949.387 -110.968 950.255 -117.159L974.03 -286.718Z" stroke="url(#paint19_linear_331_488)" stroke-width="4"/>
<path opacity="0.304348" d="M990.734 -267.971C992.548 -277.427 988.281 -287.012 980.04 -291.991L834.743 -379.774C829.382 -383.013 822.932 -383.925 816.883 -382.301L587.03 -320.568C582.095 -319.243 577.743 -316.313 574.659 -312.239L448.293 -145.346C443.234 -138.665 442.209 -129.762 445.618 -122.107L506.888 15.5074C510.296 23.1626 517.598 28.3584 525.947 29.0695L734.529 46.835C739.619 47.2686 744.71 45.9948 748.996 43.2147L948.674 -86.293C953.929 -89.7011 957.567 -95.1048 958.747 -101.256L990.734 -267.971Z" stroke="url(#paint20_linear_331_488)" stroke-width="4"/>
<path opacity="0.318841" d="M1006.57 -249.238C1008.85 -258.555 1005.11 -268.309 997.177 -273.709L858.084 -368.454C852.899 -371.986 846.495 -373.246 840.357 -371.943L610.278 -323.067C605.26 -322.001 600.743 -319.288 597.444 -315.36L464.274 -156.773C458.896 -150.368 457.418 -141.549 460.415 -133.74L514.022 5.9094C517.019 13.7176 524.019 19.2833 532.302 20.4443L737.381 49.1889C742.461 49.9009 747.634 48.8942 752.076 46.3287L955.762 -71.3024C961.196 -74.4403 965.111 -79.662 966.601 -85.7571L1006.57 -249.238Z" stroke="url(#paint21_linear_331_488)" stroke-width="4"/>
<path opacity="0.333333" d="M1021.55 -230.567C1024.28 -239.724 1021.07 -249.617 1013.48 -255.419L880.913 -356.718C875.918 -360.534 869.578 -362.14 863.369 -361.162L633.775 -324.996C628.687 -324.194 624.015 -321.708 620.508 -317.935L481.052 -167.908C475.368 -161.794 473.444 -153.08 476.023 -145.141L521.923 -3.87689C524.503 4.0621 531.181 9.98023 539.373 11.5861L740.379 50.9907C745.434 51.9817 750.675 51.2471 755.263 48.9047L962.266 -56.7879C967.865 -59.6465 972.049 -64.672 973.847 -70.6958L1021.55 -230.567Z" stroke="url(#paint22_linear_331_488)" stroke-width="4"/>
<path opacity="0.347826" d="M1035.69 -212.007C1038.86 -220.98 1036.18 -230.983 1028.95 -237.166L903.211 -344.597C898.423 -348.688 892.166 -350.637 885.902 -349.989L657.486 -326.345C652.341 -325.812 647.525 -323.561 643.817 -319.954L498.601 -178.706C492.629 -172.897 490.265 -164.313 492.421 -156.266L530.593 -13.8068C532.749 -5.75965 539.088 0.492395 547.164 2.53697L743.55 52.2533C748.564 53.5227 753.86 53.0648 758.583 50.9535L968.219 -42.7781C973.968 -45.3488 978.412 -50.1646 980.513 -56.1017L1035.69 -212.007Z" stroke="url(#paint23_linear_331_488)" stroke-width="4"/>
<path opacity="0.362319" d="M1048.99 -193.603C1052.6 -202.371 1050.46 -212.455 1043.6 -218.998L924.964 -332.126C920.398 -336.48 914.243 -338.767 907.941 -338.452L681.378 -327.106C676.19 -326.846 671.242 -324.838 667.341 -321.408L516.894 -189.127C510.651 -183.637 507.856 -175.205 509.584 -167.073L540.03 -23.837C541.758 -15.7045 547.742 -9.13794 555.679 -6.66225L746.922 52.9896C751.881 54.5364 757.217 54.3589 762.063 52.486L973.653 -29.3006C979.539 -31.5755 984.231 -36.1685 986.632 -42.0038L1048.99 -193.603Z" stroke="url(#paint24_linear_331_488)" stroke-width="4"/>
<path opacity="0.376812" d="M1061.49 -175.4C1065.51 -183.942 1063.91 -194.077 1057.44 -200.957L946.16 -319.335C941.83 -323.941 935.795 -326.562 929.473 -326.581L705.417 -327.274C700.2 -327.29 695.132 -325.532 691.046 -322.288L535.904 -199.134C529.406 -193.975 526.19 -185.717 527.488 -177.522L550.231 -33.9234C551.529 -25.7286 557.14 -18.8679 564.915 -15.97L750.52 53.2151C755.409 55.0373 760.772 55.1434 765.728 53.5159L978.604 -16.3796C984.61 -18.3518 989.54 -22.7092 992.235 -28.428L1061.49 -175.4Z" stroke="url(#paint25_linear_331_488)" stroke-width="4"/>
<path opacity="0.391304" d="M1073.19 -157.441C1077.62 -165.737 1076.56 -175.894 1070.5 -183.088L966.786 -306.259C962.707 -311.104 956.809 -314.052 950.485 -314.408L729.57 -326.844C724.338 -327.139 719.162 -325.638 714.9 -322.59L555.6 -208.689C548.865 -203.873 545.238 -195.81 546.103 -187.575L561.191 -44.0239C562.056 -35.7898 567.281 -28.6562 574.87 -25.3461L754.37 52.9457C759.173 55.0407 764.548 55.4327 769.604 54.0568L983.107 -4.03846C989.218 -5.70153 994.374 -9.81147 997.357 -15.399L1073.19 -157.441Z" stroke="url(#paint26_linear_331_488)" stroke-width="4"/>
<path opacity="0.405797" d="M1084.13 -139.769C1088.95 -147.799 1088.42 -157.949 1082.78 -165.432L986.835 -292.931C983.019 -298.002 977.277 -301.271 970.969 -301.963L753.802 -325.816C748.57 -326.391 743.299 -325.153 738.869 -322.31L575.948 -217.758C568.994 -213.296 564.969 -205.448 565.401 -197.197L572.901 -54.0961C573.333 -45.8458 578.157 -38.4612 585.539 -34.7504L758.496 52.1992C763.199 54.5634 768.57 55.243 773.714 54.1246L987.198 7.70263C993.399 6.35413 998.768 2.50313 1002.03 -2.93886L1084.13 -139.769Z" stroke="url(#paint27_linear_331_488)" stroke-width="4"/>
<path opacity="0.42029" d="M1094.32 -122.422C1099.51 -130.169 1099.51 -140.283 1094.32 -148.03L1006.3 -279.385C1002.76 -284.667 997.19 -288.249 990.915 -289.278L778.08 -324.188C772.862 -325.044 767.509 -324.076 762.921 -321.447L596.914 -226.309C589.762 -222.21 585.35 -214.597 585.35 -206.353L585.35 -64.099C585.35 -55.8556 589.762 -48.2426 596.914 -44.1437L762.921 50.9942C767.509 53.6234 772.862 54.5915 778.08 53.7356L990.915 18.8254C997.19 17.7962 1002.76 14.2149 1006.3 8.93246L1094.32 -122.422Z" stroke="url(#paint28_linear_331_488)" stroke-width="4"/>
<path opacity="0.434783" d="M1103.8 -105.441C1109.35 -112.887 1109.87 -122.937 1105.13 -130.921L1025.17 -265.655C1021.92 -271.134 1016.54 -275.019 1010.32 -276.383L802.371 -321.963C797.182 -323.101 791.759 -322.407 787.023 -320L618.464 -234.312C611.132 -230.584 606.348 -223.226 605.918 -215.012L598.527 -73.9931C598.097 -65.7796 602.085 -57.9614 608.987 -53.4883L767.667 49.3496C772.124 52.2387 777.445 53.4956 782.724 52.9069L994.297 29.3131C1000.63 28.607 1006.39 25.3057 1010.19 20.1963L1103.8 -105.441Z" stroke="url(#paint29_linear_331_488)" stroke-width="4"/>
<path opacity="0.449275" d="M1112.59 -88.8606C1118.47 -95.9881 1119.52 -105.946 1115.24 -114.142L1043.45 -251.774C1040.5 -257.435 1035.33 -261.613 1029.17 -263.31L826.64 -319.144C821.495 -320.563 816.016 -320.147 811.144 -317.97L640.559 -241.737C633.067 -238.39 627.926 -231.304 627.069 -223.143L612.417 -83.7383C611.559 -75.5775 615.114 -67.5779 621.746 -62.7455L772.753 47.2876C777.067 50.4308 782.339 51.9759 787.667 51.6582L997.383 39.1533C1003.76 38.7733 1009.68 35.7614 1013.75 30.8384L1112.59 -88.8606Z" stroke="url(#paint30_linear_331_488)" stroke-width="4"/>
<path opacity="0.463768" d="M1120.72 -72.715C1126.92 -79.5095 1128.48 -89.3482 1124.68 -97.7276L1061.14 -237.776C1058.5 -243.602 1053.55 -248.064 1047.48 -250.09L850.856 -315.737C845.769 -317.435 840.249 -317.302 835.249 -315.362L663.161 -248.562C655.529 -245.6 650.047 -238.804 648.767 -230.719L627.001 -93.2976C625.721 -85.2121 628.834 -77.0553 635.177 -71.8796L778.201 44.8292C782.356 48.2197 787.565 50.0518 792.928 50.0084L1000.21 48.3339C1006.61 48.2823 1012.7 45.5685 1017.01 40.8446L1120.72 -72.715Z" stroke="url(#paint31_linear_331_488)" stroke-width="4"/>
<path opacity="0.478261" d="M1128.22 -57.0373C1134.73 -63.4844 1136.79 -73.1767 1133.47 -81.7124L1078.23 -223.695C1075.91 -229.669 1071.19 -234.402 1065.23 -236.753L874.986 -311.748C869.972 -313.725 864.424 -313.878 859.309 -312.181L686.23 -254.762C678.479 -252.191 672.672 -245.702 670.974 -237.714L642.262 -102.635C640.565 -94.6468 643.23 -86.3575 649.265 -80.8557L784.026 41.9966C788.009 45.6272 793.14 47.7441 798.524 47.9778L1002.82 56.8459C1009.23 57.1239 1015.46 54.7164 1020.01 50.2039L1128.22 -57.0373Z" stroke="url(#paint32_linear_331_488)" stroke-width="4"/>
<path opacity="0.492754" d="M1135.13 -41.857C1141.92 -47.9436 1144.47 -57.4635 1141.64 -66.1276L1094.73 -209.562C1092.73 -215.668 1088.28 -220.66 1082.43 -223.331L898.999 -307.188C894.073 -309.44 888.511 -309.881 883.292 -308.434L709.726 -260.317C701.876 -258.141 695.762 -251.975 693.654 -244.106L658.18 -111.715C656.071 -103.846 658.282 -95.4493 663.993 -89.6396L790.247 38.8135C794.043 42.6761 799.081 45.075 804.473 45.5878L1005.26 64.6828C1011.65 65.291 1018.01 63.197 1022.79 58.9077L1135.13 -41.857Z" stroke="url(#paint33_linear_331_488)" stroke-width="4"/>
<path opacity="0.507246" d="M1141.49 -27.2023C1148.54 -32.9165 1151.57 -42.2384 1149.22 -51.0027L1110.64 -195.411C1108.98 -201.63 1104.79 -206.869 1099.09 -209.853L922.863 -302.066C918.04 -304.59 912.478 -305.321 907.166 -304.13L733.607 -265.21C725.678 -263.432 719.276 -257.603 716.765 -249.875L674.73 -120.505C672.219 -112.777 673.972 -104.298 679.341 -98.1989L796.878 35.3038C800.475 39.3894 805.404 42.0668 810.789 42.86L1007.56 71.8401C1013.93 72.7781 1020.4 71.0041 1025.4 66.9493L1141.49 -27.2023Z" stroke="url(#paint34_linear_331_488)" stroke-width="4"/>
<path opacity="0.521739" d="M1147.33 -13.0987C1154.61 -18.4295 1158.11 -27.5289 1156.26 -36.365L1125.97 -181.274C1124.65 -187.588 1120.74 -193.058 1115.2 -196.35L946.548 -296.396C941.842 -299.187 936.295 -300.21 930.904 -299.28L757.831 -269.425C749.844 -268.047 743.172 -262.568 740.268 -255.002L691.89 -128.973C688.985 -121.406 690.277 -112.87 695.291 -106.503L803.932 31.4921C807.317 35.7911 812.123 38.7428 817.488 39.817L1009.76 78.316C1016.09 79.5825 1022.65 78.1344 1027.86 74.3248L1147.33 -13.0987Z" stroke="url(#paint35_linear_331_488)" stroke-width="4"/>
<path opacity="0.536232" d="M1152.68 0.431542C1160.19 -4.50633 1164.13 -13.3597 1162.78 -22.2392L1140.73 -167.18C1139.76 -173.572 1136.14 -179.259 1130.77 -182.849L970.026 -290.189C965.452 -293.244 959.934 -294.558 954.474 -293.894L782.355 -272.948C774.332 -271.972 767.41 -266.856 764.122 -259.472L709.633 -137.088C706.346 -129.704 707.175 -121.136 711.818 -114.52L811.423 27.4043C814.583 31.9064 819.251 35.1272 824.582 36.4825L1011.91 84.1115C1018.17 85.7046 1024.82 84.5872 1030.22 81.0329L1152.68 0.431542Z" stroke="url(#paint36_linear_331_488)" stroke-width="4"/>
<path opacity="0.550725" d="M1157.6 13.3666C1165.29 8.83014 1169.67 0.245533 1168.81 -8.64895L1154.92 -153.162C1154.3 -159.611 1150.99 -165.5 1145.81 -169.38L993.267 -283.464C988.839 -286.776 983.366 -288.381 977.85 -287.987L807.137 -275.771C799.097 -275.196 791.945 -270.454 788.285 -263.272L727.933 -144.823C724.273 -137.641 724.641 -129.068 728.901 -122.225L819.361 23.0652C822.284 27.7593 826.8 31.2434 832.082 32.8792L1014.04 89.2284C1020.23 91.145 1026.94 90.3625 1032.52 87.0732L1157.6 13.3666Z" stroke="url(#paint37_linear_331_488)" stroke-width="4"/>
<path opacity="0.565217" d="M1162.1 25.6884C1169.97 21.5604 1174.76 13.2662 1174.4 4.38492L1168.56 -139.248C1168.3 -145.736 1165.31 -151.81 1160.32 -155.971L1016.25 -276.237C1011.98 -279.799 1006.56 -281.696 1001 -281.574L832.132 -277.886C824.096 -277.71 816.735 -273.353 812.716 -266.391L746.76 -152.153C742.741 -145.192 742.648 -136.638 746.514 -129.591L827.756 18.5007C830.43 23.3752 834.779 27.116 839.999 29.031L1016.19 93.6717C1022.29 95.9081 1029.04 95.4637 1034.79 92.4483L1162.1 25.6884Z" stroke="url(#paint38_linear_331_488)" stroke-width="4"/>
<path opacity="0.57971" d="M1166.25 37.3821C1174.27 33.6687 1179.45 25.6851 1179.58 16.8452L1181.66 -125.467C1181.76 -131.973 1179.09 -138.216 1174.32 -142.647L1038.93 -268.524C1034.84 -272.331 1029.5 -274.516 1023.91 -274.671L857.299 -279.287C849.287 -279.509 841.737 -275.544 837.372 -268.822L766.086 -159.051C761.721 -152.329 761.17 -143.82 764.631 -136.591L836.615 13.7383C839.029 18.7807 843.198 22.7711 848.341 24.9633L1018.4 97.4497C1024.39 100.001 1031.18 99.8975 1037.08 97.1642L1166.25 37.3821Z" stroke="url(#paint39_linear_331_488)" stroke-width="4"/>
<path opacity="0.594203" d="M1170.07 48.4327C1178.22 45.1384 1183.78 37.485 1184.39 28.7141L1194.23 -111.847C1194.69 -118.353 1192.36 -124.747 1187.83 -129.436L1061.31 -260.349C1057.4 -264.392 1052.15 -266.863 1046.54 -267.297L882.592 -279.973C874.625 -280.589 866.909 -277.025 862.212 -270.56L785.879 -165.498C781.182 -159.033 780.177 -150.593 783.225 -143.206L845.944 8.80261C848.089 14 852.063 18.2319 857.115 20.6986L1020.72 100.57C1026.58 103.431 1033.38 103.67 1039.42 101.226L1170.07 48.4327Z" stroke="url(#paint40_linear_331_488)" stroke-width="4"/>
<path opacity="0.608696" d="M1173.6 58.8311C1181.86 55.9595 1187.78 48.6542 1188.87 39.9797L1206.29 -98.4136C1207.11 -104.899 1205.12 -111.426 1200.84 -116.362L1083.34 -251.729C1079.64 -256 1074.49 -258.755 1068.88 -259.469L907.97 -279.943C900.067 -280.948 892.207 -277.793 887.193 -271.601L806.108 -171.47C801.095 -165.279 799.642 -156.934 802.269 -149.412L855.75 3.72214C857.614 9.06082 861.38 13.5255 866.328 16.2634L1023.17 103.046C1028.88 106.21 1035.68 106.792 1041.86 104.645L1173.6 58.8311Z" stroke="url(#paint41_linear_331_488)" stroke-width="4"/>
<path opacity="0.623188" d="M1176.9 68.5683C1185.24 66.1215 1191.49 59.1811 1193.05 50.6297L1217.85 -85.1931C1219.03 -91.6382 1217.4 -98.2794 1213.38 -103.45L1105.02 -242.689C1101.53 -247.178 1096.49 -250.213 1090.89 -251.209L933.39 -279.2C925.571 -280.59 917.588 -277.847 912.273 -271.945L826.741 -176.952C821.426 -171.05 819.533 -162.823 821.733 -155.192L866.035 -1.47741C867.61 3.98832 871.155 8.67643 875.984 11.6815L1025.79 104.889C1031.35 108.351 1038.12 109.275 1044.41 107.431L1176.9 68.5683Z" stroke="url(#paint42_linear_331_488)" stroke-width="4"/>
<path opacity="0.637681" d="M1179.99 77.6392C1188.39 75.6182 1194.95 69.0581 1196.98 60.656L1228.94 -72.2086C1230.47 -78.5934 1229.2 -85.3301 1225.45 -90.7211L1126.31 -233.251C1123.05 -237.948 1118.15 -241.259 1112.57 -242.537L958.809 -277.75C951.093 -279.517 943.009 -277.192 937.411 -271.594L847.743 -181.925C842.145 -176.327 839.819 -168.244 841.586 -160.527L876.8 -6.76869C878.077 -1.1907 881.388 3.71076 886.086 6.97838L1028.62 106.118C1034.01 109.868 1040.74 111.134 1047.13 109.599L1179.99 77.6392Z" stroke="url(#paint43_linear_331_488)" stroke-width="4"/>
<path opacity="0.652174" d="M1182.93 86.0394C1191.37 84.4438 1198.22 78.2781 1200.69 70.0509L1239.56 -59.4845C1241.45 -65.7888 1240.55 -72.6017 1237.09 -78.1988L1147.21 -223.439C1144.18 -228.335 1139.42 -231.917 1133.88 -233.476L984.187 -275.601C976.592 -277.738 968.431 -275.833 962.567 -270.553L869.081 -186.378C863.217 -181.098 860.469 -173.181 861.801 -165.404L888.047 -12.1262C889.019 -6.45135 892.084 -1.3473 896.636 2.17756L1031.69 106.747C1036.89 110.777 1043.57 112.384 1050.04 111.161L1182.93 86.0394Z" stroke="url(#paint44_linear_331_488)" stroke-width="4"/>
<path opacity="0.666667" d="M1185.75 93.7687C1194.2 92.5971 1201.31 86.8383 1204.22 78.8107L1249.75 -47.0414C1251.99 -53.2455 1251.46 -60.1148 1248.3 -65.9032L1167.68 -213.28C1164.9 -218.363 1160.31 -222.209 1154.82 -224.05L1009.48 -272.762C1002.03 -275.261 993.81 -273.777 987.699 -268.828L890.722 -190.298C884.61 -185.349 881.451 -177.621 882.345 -169.808L899.776 -17.5232C900.434 -11.7673 903.241 -6.47205 907.635 -2.69584L1035.03 106.797C1040.03 111.098 1046.64 113.042 1053.18 112.137L1185.75 93.7687Z" stroke="url(#paint45_linear_331_488)" stroke-width="4"/>
<path opacity="0.681159" d="M1188.49 100.829C1196.94 100.079 1204.29 94.7381 1207.61 86.9339L1259.52 -34.8993C1262.11 -40.9835 1261.96 -47.889 1259.1 -53.853L1187.73 -202.799C1185.21 -208.057 1180.78 -212.161 1175.35 -214.283L1034.66 -269.245C1027.36 -272.096 1019.11 -271.035 1012.77 -266.429L912.63 -193.674C906.29 -189.068 902.732 -181.551 903.188 -173.727L911.982 -22.9331C912.321 -17.1125 914.859 -11.6381 919.081 -7.61708L1038.68 106.289C1043.47 110.85 1049.99 113.129 1056.58 112.544L1188.49 100.829Z" stroke="url(#paint46_linear_331_488)" stroke-width="4"/>
<path opacity="0.695652" d="M1191.19 107.225C1199.61 106.892 1207.18 101.979 1210.91 94.421L1268.89 -23.0768C1271.82 -29.0216 1272.05 -35.9431 1269.51 -42.0665L1207.32 -192.022C1205.07 -197.442 1200.83 -201.799 1195.48 -204.199L1059.67 -265.065C1052.54 -268.258 1044.28 -267.619 1037.74 -263.366L934.77 -196.499C928.222 -192.247 924.278 -184.962 924.297 -177.153L924.663 -28.3302C924.678 -22.4618 926.935 -16.8208 930.972 -12.5622L1042.67 105.247C1047.23 110.058 1053.64 112.666 1060.27 112.404L1191.19 107.225Z" stroke="url(#paint47_linear_331_488)" stroke-width="4"/>
<path opacity="0.710145" d="M1193.89 112.961C1202.27 113.04 1210.02 108.563 1214.14 101.274L1277.89 -11.5924C1281.16 -17.3785 1281.76 -24.2953 1279.55 -30.5614L1226.44 -180.978C1224.48 -186.549 1220.44 -191.149 1215.17 -193.825L1084.48 -260.24C1077.55 -263.764 1069.3 -263.544 1062.56 -259.654L957.109 -198.77C950.372 -194.88 946.057 -187.848 945.642 -180.079L937.813 -33.6903C937.498 -27.7912 939.464 -21.997 943.305 -17.5085L1047.02 103.693C1051.34 108.742 1057.63 111.676 1064.27 111.738L1193.89 112.961Z" stroke="url(#paint48_linear_331_488)" stroke-width="4"/>
<path opacity="0.724638" d="M1196.64 118.048C1204.94 118.533 1212.86 114.499 1217.35 107.498L1286.54 -0.460406C1290.13 -6.06883 1291.12 -12.9603 1289.24 -19.3519L1245.1 -169.694C1243.42 -175.401 1239.6 -180.237 1234.43 -183.186L1109.07 -254.787C1102.34 -258.631 1094.12 -258.826 1087.22 -255.308L979.612 -200.48C972.706 -196.962 968.037 -190.202 967.191 -182.498L951.427 -38.9871C950.778 -33.0751 952.444 -27.1414 956.076 -22.4314L1051.76 101.654C1055.82 106.93 1061.98 110.182 1068.63 110.571L1196.64 118.048Z" stroke="url(#paint49_linear_331_488)" stroke-width="4"/>
<path opacity="0.73913" d="M1199.46 122.495C1207.67 123.379 1215.73 119.793 1220.56 113.101L1294.86 10.304C1298.78 4.89176 1300.14 -1.95344 1298.61 -8.45279L1263.26 -158.2C1261.89 -164.029 1258.29 -169.091 1253.24 -172.31L1133.38 -248.728C1126.87 -252.878 1118.71 -253.486 1111.66 -250.346L1002.24 -201.63C995.19 -198.49 990.184 -192.022 988.912 -184.407L965.496 -44.1975C964.51 -38.2904 965.866 -32.2316 969.277 -27.309L1056.91 99.1582C1060.71 104.647 1066.72 108.212 1073.35 108.926L1199.46 122.495Z" stroke="url(#paint50_linear_331_488)" stroke-width="4"/>
<path opacity="0.753623" d="M1202.4 126.316C1210.5 127.59 1218.67 124.456 1223.83 118.09L1302.89 20.6879C1307.11 15.49 1308.85 8.71188 1307.67 2.12301L1280.94 -146.524C1279.87 -152.46 1276.51 -157.74 1271.59 -161.225L1157.39 -242.086C1151.11 -246.529 1143.03 -247.542 1135.86 -244.787L1024.97 -202.221C1017.79 -199.466 1012.46 -193.306 1010.77 -185.805L980.012 -49.2978C978.686 -43.414 979.724 -37.2449 982.903 -32.1193L1062.5 96.2323C1066.03 101.922 1071.86 105.791 1078.48 106.831L1202.4 126.316Z" stroke="url(#paint51_linear_331_488)" stroke-width="4"/>
<path opacity="0.768116" d="M1205.49 129.527C1213.46 131.181 1221.71 128.5 1227.18 122.478L1310.64 30.6809C1315.15 25.7149 1317.27 19.0249 1316.44 12.3651L1298.11 -134.696C1297.36 -140.724 1294.26 -146.21 1289.47 -149.957L1181.07 -234.884C1175.04 -239.606 1167.06 -241.019 1159.78 -238.653L1047.76 -202.255C1040.47 -199.889 1034.85 -194.054 1032.75 -186.691L994.963 -54.2643C993.297 -48.4224 994.009 -42.1584 996.944 -36.8398L1068.56 92.9074C1071.8 98.7831 1077.45 102.949 1084.02 104.313L1205.49 129.527Z" stroke="url(#paint52_linear_331_488)" stroke-width="4"/>
<path opacity="0.782609" d="M1208.76 132.143C1216.58 134.167 1224.89 131.941 1230.65 126.278L1318.13 40.273C1322.93 35.556 1325.42 28.9747 1324.95 22.2629L1314.78 -122.744C1314.36 -128.849 1311.51 -134.531 1306.88 -138.534L1204.38 -227.149C1198.62 -232.135 1190.75 -233.94 1183.39 -231.966L1070.57 -201.737C1063.21 -199.764 1057.3 -194.27 1054.8 -187.068L1010.34 -59.0754C1008.33 -53.2943 1008.71 -46.9513 1011.39 -41.4502L1075.09 89.2134C1078.04 95.2613 1083.49 99.715 1090 101.401L1208.76 132.143Z" stroke="url(#paint53_linear_331_488)" stroke-width="4"/>
<path opacity="0.797101" d="M1212.25 134.184C1219.91 136.567 1228.25 134.794 1234.27 129.505L1325.41 49.4558C1330.47 45.0042 1333.33 38.5523 1333.22 31.8078L1330.95 -110.699C1330.85 -116.864 1328.28 -122.732 1323.81 -126.985L1227.31 -218.909C1221.81 -224.144 1214.09 -226.331 1206.66 -224.753L1093.38 -200.674C1085.96 -199.096 1079.79 -193.956 1076.9 -186.938L1026.13 -63.71C1023.78 -58.0087 1023.82 -51.6029 1026.24 -45.9303L1082.12 85.1819C1084.76 91.3872 1090 96.1187 1096.44 98.124L1212.25 134.184Z" stroke="url(#paint54_linear_331_488)" stroke-width="4"/>
<path opacity="0.811594" d="M1215.99 135.671C1223.46 138.4 1231.81 137.078 1238.07 132.175L1332.48 58.2235C1337.8 54.0532 1341.02 47.7513 1341.28 40.9934L1346.6 -98.5889C1346.84 -104.798 1344.55 -110.84 1340.26 -115.337L1249.82 -210.193C1244.61 -215.661 1237.04 -218.22 1229.58 -217.038L1116.16 -199.074C1108.7 -197.892 1102.29 -193.12 1099.02 -186.308L1042.32 -68.1468C1039.63 -62.5445 1039.32 -56.0927 1041.46 -50.2602L1089.66 80.8459C1091.99 87.1933 1097 92.1922 1103.35 94.5132L1215.99 135.671Z" stroke="url(#paint55_linear_331_488)" stroke-width="4"/>
<path opacity="0.826087" d="M1220.01 136.627C1227.28 139.689 1235.61 138.813 1242.08 134.307L1339.38 66.5706C1344.94 62.6967 1348.51 56.5649 1349.14 49.8135L1361.74 -86.4448C1362.32 -92.6815 1360.33 -98.8837 1356.23 -103.619L1271.89 -201.03C1266.97 -206.716 1259.58 -209.635 1252.1 -208.849L1138.87 -196.949C1131.39 -196.163 1124.77 -191.77 1121.13 -185.185L1058.89 -72.3669C1055.86 -66.8829 1055.2 -60.4022 1057.07 -54.4218L1097.73 76.2379C1099.74 82.7119 1104.51 87.9671 1110.76 90.5995L1220.01 136.627Z" stroke="url(#paint56_linear_331_488)" stroke-width="4"/>
<path opacity="0.84058" d="M1224.33 137.074C1231.39 140.455 1239.67 140.021 1246.33 135.922L1346.13 74.4945C1351.92 70.9311 1355.83 64.9894 1356.83 58.2643L1376.38 -74.2949C1377.3 -80.5414 1375.62 -86.892 1371.72 -91.8577L1293.5 -191.454C1288.87 -197.339 1281.68 -200.608 1274.2 -200.216L1161.48 -194.308C1154.01 -193.917 1147.19 -189.914 1143.21 -183.577L1075.83 -76.3509C1072.47 -71.0048 1071.46 -64.5127 1073.03 -58.3967L1106.33 71.3922C1108.02 77.9768 1112.54 83.4766 1118.67 86.4153L1224.33 137.074Z" stroke="url(#paint57_linear_331_488)" stroke-width="4"/>
<defs>
<linearGradient id="paint0_linear_331_488" x1="486.947" y1="-593.542" x2="407.844" y2="159.077" gradientUnits="userSpaceOnUse">
<stop stop-color="#FF9700" stop-opacity="0.24"/>
<stop offset="1" stop-color="#281802"/>
</linearGradient>
<linearGradient id="paint1_linear_331_488" x1="519.013" y1="-584.456" x2="401.674" y2="156.395" gradientUnits="userSpaceOnUse">
<stop stop-color="#FF9700" stop-opacity="0.24"/>
<stop offset="1" stop-color="#281802"/>
</linearGradient>
<linearGradient id="paint2_linear_331_488" x1="550.592" y1="-574.444" x2="396.029" y2="152.717" gradientUnits="userSpaceOnUse">
<stop stop-color="#FF9700" stop-opacity="0.24"/>
<stop offset="1" stop-color="#281802"/>
</linearGradient>
<linearGradient id="paint3_linear_331_488" x1="581.637" y1="-563.541" x2="390.958" y2="148.082" gradientUnits="userSpaceOnUse">
<stop stop-color="#FF9700" stop-opacity="0.24"/>
<stop offset="1" stop-color="#281802"/>
</linearGradient>
<linearGradient id="paint4_linear_331_488" x1="612.105" y1="-551.786" x2="386.508" y2="142.53" gradientUnits="userSpaceOnUse">
<stop stop-color="#FF9700" stop-opacity="0.24"/>
<stop offset="1" stop-color="#281802"/>
</linearGradient>
<linearGradient id="paint5_linear_331_488" x1="641.954" y1="-539.217" x2="382.722" y2="136.105" gradientUnits="userSpaceOnUse">
<stop stop-color="#FF9700" stop-opacity="0.24"/>
<stop offset="1" stop-color="#281802"/>
</linearGradient>
<linearGradient id="paint6_linear_331_488" x1="671.146" y1="-525.878" x2="379.643" y2="128.85" gradientUnits="userSpaceOnUse">
<stop stop-color="#FF9700" stop-opacity="0.24"/>
<stop offset="1" stop-color="#281802"/>
</linearGradient>
<linearGradient id="paint7_linear_331_488" x1="699.646" y1="-511.81" x2="377.308" y2="120.812" gradientUnits="userSpaceOnUse">
<stop stop-color="#FF9700" stop-opacity="0.24"/>
<stop offset="1" stop-color="#281802"/>
</linearGradient>
<linearGradient id="paint8_linear_331_488" x1="727.419" y1="-497.06" x2="375.754" y2="112.041" gradientUnits="userSpaceOnUse">
<stop stop-color="#FF9700" stop-opacity="0.24"/>
<stop offset="1" stop-color="#281802"/>
</linearGradient>
<linearGradient id="paint9_linear_331_488" x1="754.436" y1="-481.674" x2="375.013" y2="102.586" gradientUnits="userSpaceOnUse">
<stop stop-color="#FF9700" stop-opacity="0.24"/>
<stop offset="1" stop-color="#281802"/>
</linearGradient>
<linearGradient id="paint10_linear_331_488" x1="780.669" y1="-465.7" x2="375.114" y2="92.4988" gradientUnits="userSpaceOnUse">
<stop stop-color="#FF9700" stop-opacity="0.24"/>
<stop offset="1" stop-color="#281802"/>
</linearGradient>
<linearGradient id="paint11_linear_331_488" x1="806.094" y1="-449.186" x2="376.085" y2="81.8316" gradientUnits="userSpaceOnUse">
<stop stop-color="#FF9700" stop-opacity="0.24"/>
<stop offset="1" stop-color="#281802"/>
</linearGradient>
<linearGradient id="paint12_linear_331_488" x1="830.69" y1="-432.183" x2="377.947" y2="70.6386" gradientUnits="userSpaceOnUse">
<stop stop-color="#FF9700" stop-opacity="0.24"/>
<stop offset="1" stop-color="#281802"/>
</linearGradient>
<linearGradient id="paint13_linear_331_488" x1="854.436" y1="-414.741" x2="380.722" y2="58.9735" gradientUnits="userSpaceOnUse">
<stop stop-color="#FF9700" stop-opacity="0.24"/>
<stop offset="1" stop-color="#281802"/>
</linearGradient>
<linearGradient id="paint14_linear_331_488" x1="877.319" y1="-396.911" x2="384.425" y2="46.8922" gradientUnits="userSpaceOnUse">
<stop stop-color="#FF9700" stop-opacity="0.24"/>
<stop offset="1" stop-color="#281802"/>
</linearGradient>
<linearGradient id="paint15_linear_331_488" x1="899.325" y1="-378.746" x2="389.071" y2="34.4498" gradientUnits="userSpaceOnUse">
<stop stop-color="#FF9700" stop-opacity="0.24"/>
<stop offset="1" stop-color="#281802"/>
</linearGradient>
<linearGradient id="paint16_linear_331_488" x1="920.445" y1="-360.297" x2="394.669" y2="21.7018" gradientUnits="userSpaceOnUse">
<stop stop-color="#FF9700" stop-opacity="0.24"/>
<stop offset="1" stop-color="#281802"/>
</linearGradient>
<linearGradient id="paint17_linear_331_488" x1="940.673" y1="-341.616" x2="401.226" y2="8.70452" gradientUnits="userSpaceOnUse">
<stop stop-color="#FF9700" stop-opacity="0.24"/>
<stop offset="1" stop-color="#281802"/>
</linearGradient>
<linearGradient id="paint18_linear_331_488" x1="960.004" y1="-322.754" x2="408.747" y2="-4.486" gradientUnits="userSpaceOnUse">
<stop stop-color="#FF9700" stop-opacity="0.24"/>
<stop offset="1" stop-color="#281802"/>
</linearGradient>
<linearGradient id="paint19_linear_331_488" x1="978.439" y1="-303.764" x2="417.232" y2="-17.815" gradientUnits="userSpaceOnUse">
<stop stop-color="#FF9700" stop-opacity="0.24"/>
<stop offset="1" stop-color="#281802"/>
</linearGradient>
<linearGradient id="paint20_linear_331_488" x1="995.98" y1="-284.697" x2="426.678" y2="-31.2276" gradientUnits="userSpaceOnUse">
<stop stop-color="#FF9700" stop-opacity="0.24"/>
<stop offset="1" stop-color="#281802"/>
</linearGradient>
<linearGradient id="paint21_linear_331_488" x1="1012.63" y1="-265.602" x2="437.08" y2="-44.669" gradientUnits="userSpaceOnUse">
<stop stop-color="#FF9700" stop-opacity="0.24"/>
<stop offset="1" stop-color="#281802"/>
</linearGradient>
<linearGradient id="paint22_linear_331_488" x1="1028.4" y1="-246.531" x2="448.429" y2="-58.0861" gradientUnits="userSpaceOnUse">
<stop stop-color="#FF9700" stop-opacity="0.24"/>
<stop offset="1" stop-color="#281802"/>
</linearGradient>
<linearGradient id="paint23_linear_331_488" x1="1043.3" y1="-227.53" x2="460.713" y2="-71.4261" gradientUnits="userSpaceOnUse">
<stop stop-color="#FF9700" stop-opacity="0.24"/>
<stop offset="1" stop-color="#281802"/>
</linearGradient>
<linearGradient id="paint24_linear_331_488" x1="1057.35" y1="-208.649" x2="473.918" y2="-84.6381" gradientUnits="userSpaceOnUse">
<stop stop-color="#FF9700" stop-opacity="0.24"/>
<stop offset="1" stop-color="#281802"/>
</linearGradient>
<linearGradient id="paint25_linear_331_488" x1="1070.55" y1="-189.934" x2="488.028" y2="-97.6716" gradientUnits="userSpaceOnUse">
<stop stop-color="#FF9700" stop-opacity="0.24"/>
<stop offset="1" stop-color="#281802"/>
</linearGradient>
<linearGradient id="paint26_linear_331_488" x1="1082.93" y1="-171.429" x2="503.021" y2="-110.479" gradientUnits="userSpaceOnUse">
<stop stop-color="#FF9700" stop-opacity="0.24"/>
<stop offset="1" stop-color="#281802"/>
</linearGradient>
<linearGradient id="paint27_linear_331_488" x1="1094.51" y1="-153.18" x2="518.875" y2="-123.012" gradientUnits="userSpaceOnUse">
<stop stop-color="#FF9700" stop-opacity="0.24"/>
<stop offset="1" stop-color="#281802"/>
</linearGradient>
<linearGradient id="paint28_linear_331_488" x1="1105.31" y1="-135.226" x2="535.566" y2="-135.226" gradientUnits="userSpaceOnUse">
<stop stop-color="#FF9700" stop-opacity="0.24"/>
<stop offset="1" stop-color="#281802"/>
</linearGradient>
<linearGradient id="paint29_linear_331_488" x1="1115.36" y1="-117.61" x2="553.066" y2="-147.079" gradientUnits="userSpaceOnUse">
<stop stop-color="#FF9700" stop-opacity="0.24"/>
<stop offset="1" stop-color="#281802"/>
</linearGradient>
<linearGradient id="paint30_linear_331_488" x1="1124.68" y1="-100.369" x2="571.345" y2="-158.527" gradientUnits="userSpaceOnUse">
<stop stop-color="#FF9700" stop-opacity="0.24"/>
<stop offset="1" stop-color="#281802"/>
</linearGradient>
<linearGradient id="paint31_linear_331_488" x1="1133.31" y1="-83.5403" x2="590.372" y2="-169.533" gradientUnits="userSpaceOnUse">
<stop stop-color="#FF9700" stop-opacity="0.24"/>
<stop offset="1" stop-color="#281802"/>
</linearGradient>
<linearGradient id="paint32_linear_331_488" x1="1141.27" y1="-67.1577" x2="610.113" y2="-180.059" gradientUnits="userSpaceOnUse">
<stop stop-color="#FF9700" stop-opacity="0.24"/>
<stop offset="1" stop-color="#281802"/>
</linearGradient>
<linearGradient id="paint33_linear_331_488" x1="1148.61" y1="-51.2539" x2="630.534" y2="-190.071" gradientUnits="userSpaceOnUse">
<stop stop-color="#FF9700" stop-opacity="0.24"/>
<stop offset="1" stop-color="#281802"/>
</linearGradient>
<linearGradient id="paint34_linear_331_488" x1="1155.34" y1="-35.859" x2="651.596" y2="-199.535" gradientUnits="userSpaceOnUse">
<stop stop-color="#FF9700" stop-opacity="0.24"/>
<stop offset="1" stop-color="#281802"/>
</linearGradient>
<linearGradient id="paint35_linear_331_488" x1="1161.51" y1="-21.0008" x2="673.262" y2="-208.423" gradientUnits="userSpaceOnUse">
<stop stop-color="#FF9700" stop-opacity="0.24"/>
<stop offset="1" stop-color="#281802"/>
</linearGradient>
<linearGradient id="paint36_linear_331_488" x1="1167.16" y1="-6.7041" x2="695.491" y2="-216.706" gradientUnits="userSpaceOnUse">
<stop stop-color="#FF9700" stop-opacity="0.24"/>
<stop offset="1" stop-color="#281802"/>
</linearGradient>
<linearGradient id="paint37_linear_331_488" x1="1172.33" y1="7.00703" x2="718.243" y2="-224.36" gradientUnits="userSpaceOnUse">
<stop stop-color="#FF9700" stop-opacity="0.24"/>
<stop offset="1" stop-color="#281802"/>
</linearGradient>
<linearGradient id="paint38_linear_331_488" x1="1177.04" y1="20.112" x2="741.475" y2="-231.364" gradientUnits="userSpaceOnUse">
<stop stop-color="#FF9700" stop-opacity="0.24"/>
<stop offset="1" stop-color="#281802"/>
</linearGradient>
<linearGradient id="paint39_linear_331_488" x1="1181.35" y1="32.5938" x2="765.144" y2="-237.695" gradientUnits="userSpaceOnUse">
<stop stop-color="#FF9700" stop-opacity="0.24"/>
<stop offset="1" stop-color="#281802"/>
</linearGradient>
<linearGradient id="paint40_linear_331_488" x1="1185.3" y1="44.4349" x2="789.207" y2="-243.34" gradientUnits="userSpaceOnUse">
<stop stop-color="#FF9700" stop-opacity="0.24"/>
<stop offset="1" stop-color="#281802"/>
</linearGradient>
<linearGradient id="paint41_linear_331_488" x1="1188.91" y1="55.624" x2="813.62" y2="-248.283" gradientUnits="userSpaceOnUse">
<stop stop-color="#FF9700" stop-opacity="0.24"/>
<stop offset="1" stop-color="#281802"/>
</linearGradient>
<linearGradient id="paint42_linear_331_488" x1="1192.25" y1="66.1496" x2="838.338" y2="-252.513" gradientUnits="userSpaceOnUse">
<stop stop-color="#FF9700" stop-opacity="0.24"/>
<stop offset="1" stop-color="#281802"/>
</linearGradient>
<linearGradient id="paint43_linear_331_488" x1="1195.34" y1="76.0044" x2="863.316" y2="-256.021" gradientUnits="userSpaceOnUse">
<stop stop-color="#FF9700" stop-opacity="0.24"/>
<stop offset="1" stop-color="#281802"/>
</linearGradient>
<linearGradient id="paint44_linear_331_488" x1="1198.23" y1="85.1816" x2="888.509" y2="-258.802" gradientUnits="userSpaceOnUse">
<stop stop-color="#FF9700" stop-opacity="0.24"/>
<stop offset="1" stop-color="#281802"/>
</linearGradient>
<linearGradient id="paint45_linear_331_488" x1="1200.97" y1="93.679" x2="913.873" y2="-260.852" gradientUnits="userSpaceOnUse">
<stop stop-color="#FF9700" stop-opacity="0.24"/>
<stop offset="1" stop-color="#281802"/>
</linearGradient>
<linearGradient id="paint46_linear_331_488" x1="1203.58" y1="101.496" x2="939.363" y2="-262.17" gradientUnits="userSpaceOnUse">
<stop stop-color="#FF9700" stop-opacity="0.24"/>
<stop offset="1" stop-color="#281802"/>
</linearGradient>
<linearGradient id="paint47_linear_331_488" x1="1206.12" y1="108.636" x2="964.935" y2="-262.759" gradientUnits="userSpaceOnUse">
<stop stop-color="#FF9700" stop-opacity="0.24"/>
<stop offset="1" stop-color="#281802"/>
</linearGradient>
<linearGradient id="paint48_linear_331_488" x1="1208.63" y1="115.1" x2="990.546" y2="-262.624" gradientUnits="userSpaceOnUse">
<stop stop-color="#FF9700" stop-opacity="0.24"/>
<stop offset="1" stop-color="#281802"/>
</linearGradient>
<linearGradient id="paint49_linear_331_488" x1="1211.13" y1="120.898" x2="1016.15" y2="-261.771" gradientUnits="userSpaceOnUse">
<stop stop-color="#FF9700" stop-opacity="0.24"/>
<stop offset="1" stop-color="#281802"/>
</linearGradient>
<linearGradient id="paint50_linear_331_488" x1="1213.68" y1="126.037" x2="1041.71" y2="-260.21" gradientUnits="userSpaceOnUse">
<stop stop-color="#FF9700" stop-opacity="0.24"/>
<stop offset="1" stop-color="#281802"/>
</linearGradient>
<linearGradient id="paint51_linear_331_488" x1="1216.31" y1="130.528" x2="1067.19" y2="-257.953" gradientUnits="userSpaceOnUse">
<stop stop-color="#FF9700" stop-opacity="0.24"/>
<stop offset="1" stop-color="#281802"/>
</linearGradient>
<linearGradient id="paint52_linear_331_488" x1="1219.06" y1="134.386" x2="1092.54" y2="-255.015" gradientUnits="userSpaceOnUse">
<stop stop-color="#FF9700" stop-opacity="0.24"/>
<stop offset="1" stop-color="#281802"/>
</linearGradient>
<linearGradient id="paint53_linear_331_488" x1="1221.96" y1="137.626" x2="1117.72" y2="-251.412" gradientUnits="userSpaceOnUse">
<stop stop-color="#FF9700" stop-opacity="0.24"/>
<stop offset="1" stop-color="#281802"/>
</linearGradient>
<linearGradient id="paint54_linear_331_488" x1="1225.05" y1="140.264" x2="1142.7" y2="-247.163" gradientUnits="userSpaceOnUse">
<stop stop-color="#FF9700" stop-opacity="0.24"/>
<stop offset="1" stop-color="#281802"/>
</linearGradient>
<linearGradient id="paint55_linear_331_488" x1="1228.36" y1="142.32" x2="1167.45" y2="-242.289" gradientUnits="userSpaceOnUse">
<stop stop-color="#FF9700" stop-opacity="0.24"/>
<stop offset="1" stop-color="#281802"/>
</linearGradient>
<linearGradient id="paint56_linear_331_488" x1="1231.92" y1="143.816" x2="1191.92" y2="-236.811" gradientUnits="userSpaceOnUse">
<stop stop-color="#FF9700" stop-opacity="0.24"/>
<stop offset="1" stop-color="#281802"/>
</linearGradient>
<linearGradient id="paint57_linear_331_488" x1="1235.77" y1="144.774" x2="1216.09" y2="-230.755" gradientUnits="userSpaceOnUse">
<stop stop-color="#FF9700" stop-opacity="0.24"/>
<stop offset="1" stop-color="#281802"/>
</linearGradient>
</defs>
</svg>
