<svg width="943" height="926" viewBox="0 0 943 926" fill="none" xmlns="http://www.w3.org/2000/svg">
<ellipse cx="737" cy="247.389" rx="206" ry="206.389" fill="#FBFBFB"/>
<path d="M818.575 485.26L744 438.607L808.724 412.117L818.575 485.26Z" fill="#FBFBFB"/>
<path d="M574.048 181.704V188.232H581.728V191.208H574.048V198.024H582.688V201H570.4V178.728H582.688V181.704H574.048ZM593.581 201.288C592.195 201.288 590.947 201.043 589.837 200.552C588.749 200.04 587.885 199.357 587.245 198.504C586.605 197.629 586.264 196.659 586.221 195.592H589.997C590.061 196.339 590.413 196.968 591.053 197.48C591.715 197.971 592.536 198.216 593.517 198.216C594.541 198.216 595.331 198.024 595.885 197.64C596.461 197.235 596.749 196.723 596.749 196.104C596.749 195.443 596.429 194.952 595.789 194.632C595.171 194.312 594.179 193.96 592.813 193.576C591.491 193.213 590.413 192.861 589.581 192.52C588.749 192.179 588.024 191.656 587.405 190.952C586.808 190.248 586.509 189.32 586.509 188.168C586.509 187.229 586.787 186.376 587.341 185.608C587.896 184.819 588.685 184.2 589.709 183.752C590.755 183.304 591.949 183.08 593.293 183.08C595.299 183.08 596.909 183.592 598.125 184.616C599.363 185.619 600.024 186.995 600.109 188.744H596.461C596.397 187.955 596.077 187.325 595.501 186.856C594.925 186.387 594.147 186.152 593.165 186.152C592.205 186.152 591.469 186.333 590.957 186.696C590.445 187.059 590.189 187.539 590.189 188.136C590.189 188.605 590.36 189 590.701 189.32C591.043 189.64 591.459 189.896 591.949 190.088C592.44 190.259 593.165 190.483 594.125 190.76C595.405 191.101 596.451 191.453 597.261 191.816C598.093 192.157 598.808 192.669 599.405 193.352C600.003 194.035 600.312 194.941 600.333 196.072C600.333 197.075 600.056 197.971 599.501 198.76C598.947 199.549 598.157 200.168 597.133 200.616C596.131 201.064 594.947 201.288 593.581 201.288ZM603.059 192.168C603.059 190.355 603.422 188.765 604.147 187.4C604.894 186.013 605.918 184.947 607.219 184.2C608.52 183.453 610.014 183.08 611.699 183.08C613.832 183.08 615.592 183.592 616.979 184.616C618.387 185.619 619.336 187.059 619.827 188.936H615.891C615.571 188.061 615.059 187.379 614.355 186.888C613.651 186.397 612.766 186.152 611.699 186.152C610.206 186.152 609.011 186.685 608.115 187.752C607.24 188.797 606.803 190.269 606.803 192.168C606.803 194.067 607.24 195.549 608.115 196.616C609.011 197.683 610.206 198.216 611.699 198.216C613.811 198.216 615.208 197.288 615.891 195.432H619.827C619.315 197.224 618.355 198.653 616.947 199.72C615.539 200.765 613.79 201.288 611.699 201.288C610.014 201.288 608.52 200.915 607.219 200.168C605.918 199.4 604.894 198.333 604.147 196.968C603.422 195.581 603.059 193.981 603.059 192.168ZM622.247 192.104C622.247 190.333 622.609 188.765 623.335 187.4C624.081 186.035 625.084 184.979 626.343 184.232C627.623 183.464 629.031 183.08 630.567 183.08C631.953 183.08 633.159 183.357 634.183 183.912C635.228 184.445 636.06 185.117 636.679 185.928V183.368H640.359V201H636.679V198.376C636.06 199.208 635.217 199.901 634.151 200.456C633.084 201.011 631.868 201.288 630.503 201.288C628.988 201.288 627.601 200.904 626.343 200.136C625.084 199.347 624.081 198.259 623.335 196.872C622.609 195.464 622.247 193.875 622.247 192.104ZM636.679 192.168C636.679 190.952 636.423 189.896 635.911 189C635.42 188.104 634.769 187.421 633.959 186.952C633.148 186.483 632.273 186.248 631.335 186.248C630.396 186.248 629.521 186.483 628.711 186.952C627.9 187.4 627.239 188.072 626.727 188.968C626.236 189.843 625.991 190.888 625.991 192.104C625.991 193.32 626.236 194.387 626.727 195.304C627.239 196.221 627.9 196.925 628.711 197.416C629.543 197.885 630.417 198.12 631.335 198.12C632.273 198.12 633.148 197.885 633.959 197.416C634.769 196.947 635.42 196.264 635.911 195.368C636.423 194.451 636.679 193.384 636.679 192.168ZM654.046 183.08C655.433 183.08 656.67 183.368 657.758 183.944C658.867 184.52 659.731 185.373 660.35 186.504C660.969 187.635 661.278 189 661.278 190.6V201H657.662V191.144C657.662 189.565 657.267 188.36 656.478 187.528C655.689 186.675 654.611 186.248 653.246 186.248C651.881 186.248 650.793 186.675 649.982 187.528C649.193 188.36 648.798 189.565 648.798 191.144V201H645.15V183.368H648.798V185.384C649.395 184.659 650.153 184.093 651.07 183.688C652.009 183.283 653.001 183.08 654.046 183.08ZM682.091 191.752C682.091 192.413 682.049 193.011 681.963 193.544H668.491C668.598 194.952 669.121 196.083 670.059 196.936C670.998 197.789 672.15 198.216 673.515 198.216C675.478 198.216 676.865 197.395 677.675 195.752H681.611C681.078 197.373 680.107 198.707 678.699 199.752C677.313 200.776 675.585 201.288 673.515 201.288C671.83 201.288 670.315 200.915 668.971 200.168C667.649 199.4 666.603 198.333 665.835 196.968C665.089 195.581 664.715 193.981 664.715 192.168C664.715 190.355 665.078 188.765 665.803 187.4C666.55 186.013 667.585 184.947 668.907 184.2C670.251 183.453 671.787 183.08 673.515 183.08C675.179 183.08 676.662 183.443 677.963 184.168C679.265 184.893 680.278 185.917 681.003 187.24C681.729 188.541 682.091 190.045 682.091 191.752ZM678.283 190.6C678.262 189.256 677.782 188.179 676.843 187.368C675.905 186.557 674.742 186.152 673.355 186.152C672.097 186.152 671.019 186.557 670.123 187.368C669.227 188.157 668.694 189.235 668.523 190.6H678.283ZM687.537 181.032C686.876 181.032 686.321 180.808 685.873 180.36C685.425 179.912 685.201 179.357 685.201 178.696C685.201 178.035 685.425 177.48 685.873 177.032C686.321 176.584 686.876 176.36 687.537 176.36C688.177 176.36 688.721 176.584 689.169 177.032C689.617 177.48 689.841 178.035 689.841 178.696C689.841 179.357 689.617 179.912 689.169 180.36C688.721 180.808 688.177 181.032 687.537 181.032ZM689.329 183.368V201H685.681V183.368H689.329ZM710.279 191.752C710.279 192.413 710.236 193.011 710.151 193.544H696.679C696.785 194.952 697.308 196.083 698.247 196.936C699.185 197.789 700.337 198.216 701.703 198.216C703.665 198.216 705.052 197.395 705.863 195.752H709.799C709.265 197.373 708.295 198.707 706.887 199.752C705.5 200.776 703.772 201.288 701.703 201.288C700.017 201.288 698.503 200.915 697.159 200.168C695.836 199.4 694.791 198.333 694.023 196.968C693.276 195.581 692.903 193.981 692.903 192.168C692.903 190.355 693.265 188.765 693.991 187.4C694.737 186.013 695.772 184.947 697.095 184.2C698.439 183.453 699.975 183.08 701.703 183.08C703.367 183.08 704.849 183.443 706.151 184.168C707.452 184.893 708.465 185.917 709.191 187.24C709.916 188.541 710.279 190.045 710.279 191.752ZM706.471 190.6C706.449 189.256 705.969 188.179 705.031 187.368C704.092 186.557 702.929 186.152 701.543 186.152C700.284 186.152 699.207 186.557 698.311 187.368C697.415 188.157 696.881 189.235 696.711 190.6H706.471ZM729.829 201.288C728.165 201.288 726.661 200.915 725.317 200.168C723.973 199.4 722.917 198.333 722.149 196.968C721.381 195.581 720.997 193.981 720.997 192.168C720.997 190.376 721.392 188.787 722.181 187.4C722.971 186.013 724.048 184.947 725.413 184.2C726.779 183.453 728.304 183.08 729.989 183.08C731.675 183.08 733.2 183.453 734.565 184.2C735.931 184.947 737.008 186.013 737.797 187.4C738.587 188.787 738.981 190.376 738.981 192.168C738.981 193.96 738.576 195.549 737.765 196.936C736.955 198.323 735.845 199.4 734.437 200.168C733.051 200.915 731.515 201.288 729.829 201.288ZM729.829 198.12C730.768 198.12 731.643 197.896 732.453 197.448C733.285 197 733.957 196.328 734.469 195.432C734.981 194.536 735.237 193.448 735.237 192.168C735.237 190.888 734.992 189.811 734.501 188.936C734.011 188.04 733.36 187.368 732.549 186.92C731.739 186.472 730.864 186.248 729.925 186.248C728.987 186.248 728.112 186.472 727.301 186.92C726.512 187.368 725.883 188.04 725.413 188.936C724.944 189.811 724.709 190.888 724.709 192.168C724.709 194.067 725.189 195.539 726.149 196.584C727.131 197.608 728.357 198.12 729.829 198.12ZM768.116 205.032L764.212 200.808C763.252 201.085 762.196 201.224 761.044 201.224C758.975 201.224 757.065 200.744 755.316 199.784C753.588 198.803 752.212 197.448 751.188 195.72C750.185 193.971 749.684 192.008 749.684 189.832C749.684 187.656 750.185 185.704 751.188 183.976C752.212 182.248 753.588 180.904 755.316 179.944C757.065 178.963 758.975 178.472 761.044 178.472C763.135 178.472 765.044 178.963 766.772 179.944C768.521 180.904 769.897 182.248 770.9 183.976C771.903 185.704 772.404 187.656 772.404 189.832C772.404 191.88 771.956 193.736 771.06 195.4C770.185 197.043 768.969 198.365 767.412 199.368L772.756 205.032H768.116ZM753.428 189.832C753.428 191.475 753.748 192.925 754.388 194.184C755.049 195.421 755.956 196.381 757.108 197.064C758.26 197.725 759.572 198.056 761.044 198.056C762.516 198.056 763.828 197.725 764.98 197.064C766.132 196.381 767.028 195.421 767.668 194.184C768.329 192.925 768.66 191.475 768.66 189.832C768.66 188.189 768.329 186.749 767.668 185.512C767.028 184.275 766.132 183.325 764.98 182.664C763.828 182.003 762.516 181.672 761.044 181.672C759.572 181.672 758.26 182.003 757.108 182.664C755.956 183.325 755.049 184.275 754.388 185.512C753.748 186.749 753.428 188.189 753.428 189.832ZM787.64 201L782.52 192.104H779.736V201H776.088V178.76H783.768C785.474 178.76 786.914 179.059 788.088 179.656C789.282 180.253 790.168 181.053 790.744 182.056C791.341 183.059 791.64 184.179 791.64 185.416C791.64 186.867 791.213 188.189 790.36 189.384C789.528 190.557 788.237 191.357 786.488 191.784L791.992 201H787.64ZM779.736 189.192H783.768C785.133 189.192 786.157 188.851 786.84 188.168C787.544 187.485 787.896 186.568 787.896 185.416C787.896 184.264 787.554 183.368 786.872 182.728C786.189 182.067 785.154 181.736 783.768 181.736H779.736V189.192ZM803.403 192.168C803.403 190.355 803.765 188.765 804.491 187.4C805.237 186.013 806.261 184.947 807.563 184.2C808.864 183.453 810.357 183.08 812.043 183.08C814.176 183.08 815.936 183.592 817.323 184.616C818.731 185.619 819.68 187.059 820.171 188.936H816.235C815.915 188.061 815.403 187.379 814.699 186.888C813.995 186.397 813.109 186.152 812.043 186.152C810.549 186.152 809.355 186.685 808.459 187.752C807.584 188.797 807.147 190.269 807.147 192.168C807.147 194.067 807.584 195.549 808.459 196.616C809.355 197.683 810.549 198.216 812.043 198.216C814.155 198.216 815.552 197.288 816.235 195.432H820.171C819.659 197.224 818.699 198.653 817.291 199.72C815.883 200.765 814.133 201.288 812.043 201.288C810.357 201.288 808.864 200.915 807.563 200.168C806.261 199.4 805.237 198.333 804.491 196.968C803.765 195.581 803.403 193.981 803.403 192.168ZM831.454 201.288C829.79 201.288 828.286 200.915 826.942 200.168C825.598 199.4 824.542 198.333 823.774 196.968C823.006 195.581 822.622 193.981 822.622 192.168C822.622 190.376 823.017 188.787 823.806 187.4C824.596 186.013 825.673 184.947 827.038 184.2C828.404 183.453 829.929 183.08 831.614 183.08C833.3 183.08 834.825 183.453 836.19 184.2C837.556 184.947 838.633 186.013 839.422 187.4C840.212 188.787 840.606 190.376 840.606 192.168C840.606 193.96 840.201 195.549 839.39 196.936C838.58 198.323 837.47 199.4 836.062 200.168C834.676 200.915 833.14 201.288 831.454 201.288ZM831.454 198.12C832.393 198.12 833.268 197.896 834.078 197.448C834.91 197 835.582 196.328 836.094 195.432C836.606 194.536 836.862 193.448 836.862 192.168C836.862 190.888 836.617 189.811 836.126 188.936C835.636 188.04 834.985 187.368 834.174 186.92C833.364 186.472 832.489 186.248 831.55 186.248C830.612 186.248 829.737 186.472 828.926 186.92C828.137 187.368 827.508 188.04 827.038 188.936C826.569 189.811 826.334 190.888 826.334 192.168C826.334 194.067 826.814 195.539 827.774 196.584C828.756 197.608 829.982 198.12 831.454 198.12ZM842.997 192.104C842.997 190.333 843.359 188.765 844.085 187.4C844.831 186.035 845.834 184.979 847.093 184.232C848.373 183.464 849.791 183.08 851.349 183.08C852.501 183.08 853.631 183.336 854.741 183.848C855.871 184.339 856.767 185 857.429 185.832V177.32H861.109V201H857.429V198.344C856.831 199.197 855.999 199.901 854.933 200.456C853.887 201.011 852.682 201.288 851.317 201.288C849.781 201.288 848.373 200.904 847.093 200.136C845.834 199.347 844.831 198.259 844.085 196.872C843.359 195.464 842.997 193.875 842.997 192.104ZM857.429 192.168C857.429 190.952 857.173 189.896 856.661 189C856.17 188.104 855.519 187.421 854.709 186.952C853.898 186.483 853.023 186.248 852.085 186.248C851.146 186.248 850.271 186.483 849.461 186.952C848.65 187.4 847.989 188.072 847.477 188.968C846.986 189.843 846.741 190.888 846.741 192.104C846.741 193.32 846.986 194.387 847.477 195.304C847.989 196.221 848.65 196.925 849.461 197.416C850.293 197.885 851.167 198.12 852.085 198.12C853.023 198.12 853.898 197.885 854.709 197.416C855.519 196.947 856.17 196.264 856.661 195.368C857.173 194.451 857.429 193.384 857.429 192.168ZM882.06 191.752C882.06 192.413 882.017 193.011 881.932 193.544H868.46C868.567 194.952 869.089 196.083 870.028 196.936C870.967 197.789 872.119 198.216 873.484 198.216C875.447 198.216 876.833 197.395 877.644 195.752H881.58C881.047 197.373 880.076 198.707 878.668 199.752C877.281 200.776 875.553 201.288 873.484 201.288C871.799 201.288 870.284 200.915 868.94 200.168C867.617 199.4 866.572 198.333 865.804 196.968C865.057 195.581 864.684 193.981 864.684 192.168C864.684 190.355 865.047 188.765 865.772 187.4C866.519 186.013 867.553 184.947 868.876 184.2C870.22 183.453 871.756 183.08 873.484 183.08C875.148 183.08 876.631 183.443 877.932 184.168C879.233 184.893 880.247 185.917 880.972 187.24C881.697 188.541 882.06 190.045 882.06 191.752ZM878.252 190.6C878.231 189.256 877.751 188.179 876.812 187.368C875.873 186.557 874.711 186.152 873.324 186.152C872.065 186.152 870.988 186.557 870.092 187.368C869.196 188.157 868.663 189.235 868.492 190.6H878.252ZM574.048 223.96C574.667 223.149 575.509 222.467 576.576 221.912C577.643 221.357 578.848 221.08 580.192 221.08C581.728 221.08 583.125 221.464 584.384 222.232C585.664 222.979 586.667 224.035 587.392 225.4C588.117 226.765 588.48 228.333 588.48 230.104C588.48 231.875 588.117 233.464 587.392 234.872C586.667 236.259 585.664 237.347 584.384 238.136C583.125 238.904 581.728 239.288 580.192 239.288C578.848 239.288 577.653 239.021 576.608 238.488C575.563 237.933 574.709 237.251 574.048 236.44V247.384H570.4V221.368H574.048V223.96ZM584.768 230.104C584.768 228.888 584.512 227.843 584 226.968C583.509 226.072 582.848 225.4 582.016 224.952C581.205 224.483 580.331 224.248 579.392 224.248C578.475 224.248 577.6 224.483 576.768 224.952C575.957 225.421 575.296 226.104 574.784 227C574.293 227.896 574.048 228.952 574.048 230.168C574.048 231.384 574.293 232.451 574.784 233.368C575.296 234.264 575.957 234.947 576.768 235.416C577.6 235.885 578.475 236.12 579.392 236.12C580.331 236.12 581.205 235.885 582.016 235.416C582.848 234.925 583.509 234.221 584 233.304C584.512 232.387 584.768 231.32 584.768 230.104ZM590.872 230.104C590.872 228.333 591.234 226.765 591.96 225.4C592.706 224.035 593.709 222.979 594.968 222.232C596.248 221.464 597.656 221.08 599.192 221.08C600.578 221.08 601.784 221.357 602.808 221.912C603.853 222.445 604.685 223.117 605.304 223.928V221.368H608.984V239H605.304V236.376C604.685 237.208 603.842 237.901 602.776 238.456C601.709 239.011 600.493 239.288 599.128 239.288C597.613 239.288 596.226 238.904 594.968 238.136C593.709 237.347 592.706 236.259 591.96 234.872C591.234 233.464 590.872 231.875 590.872 230.104ZM605.304 230.168C605.304 228.952 605.048 227.896 604.536 227C604.045 226.104 603.394 225.421 602.584 224.952C601.773 224.483 600.898 224.248 599.96 224.248C599.021 224.248 598.146 224.483 597.336 224.952C596.525 225.4 595.864 226.072 595.352 226.968C594.861 227.843 594.616 228.888 594.616 230.104C594.616 231.32 594.861 232.387 595.352 233.304C595.864 234.221 596.525 234.925 597.336 235.416C598.168 235.885 599.042 236.12 599.96 236.12C600.898 236.12 601.773 235.885 602.584 235.416C603.394 234.947 604.045 234.264 604.536 233.368C605.048 232.451 605.304 231.384 605.304 230.168ZM617.423 223.928C617.956 223.032 618.66 222.339 619.535 221.848C620.431 221.336 621.487 221.08 622.703 221.08V224.856H621.775C620.346 224.856 619.258 225.219 618.511 225.944C617.786 226.669 617.423 227.928 617.423 229.72V239H613.775V221.368H617.423V223.928ZM624.84 230.104C624.84 228.333 625.203 226.765 625.928 225.4C626.675 224.035 627.678 222.979 628.936 222.232C630.216 221.464 631.624 221.08 633.16 221.08C634.547 221.08 635.752 221.357 636.776 221.912C637.822 222.445 638.654 223.117 639.272 223.928V221.368H642.952V239H639.272V236.376C638.654 237.208 637.811 237.901 636.744 238.456C635.678 239.011 634.462 239.288 633.096 239.288C631.582 239.288 630.195 238.904 628.936 238.136C627.678 237.347 626.675 236.259 625.928 234.872C625.203 233.464 624.84 231.875 624.84 230.104ZM639.272 230.168C639.272 228.952 639.016 227.896 638.504 227C638.014 226.104 637.363 225.421 636.552 224.952C635.742 224.483 634.867 224.248 633.928 224.248C632.99 224.248 632.115 224.483 631.304 224.952C630.494 225.4 629.832 226.072 629.32 226.968C628.83 227.843 628.584 228.888 628.584 230.104C628.584 231.32 628.83 232.387 629.32 233.304C629.832 234.221 630.494 234.925 631.304 235.416C632.136 235.885 633.011 236.12 633.928 236.12C634.867 236.12 635.742 235.885 636.552 235.416C637.363 234.947 638.014 234.264 638.504 233.368C639.016 232.451 639.272 231.384 639.272 230.168ZM659.704 223.928C660.238 223.032 660.942 222.339 661.816 221.848C662.712 221.336 663.768 221.08 664.984 221.08V224.856H664.056C662.627 224.856 661.539 225.219 660.792 225.944C660.067 226.669 659.704 227.928 659.704 229.72V239H656.056V221.368H659.704V223.928ZM684.498 229.752C684.498 230.413 684.455 231.011 684.37 231.544H670.898C671.004 232.952 671.527 234.083 672.466 234.936C673.404 235.789 674.556 236.216 675.922 236.216C677.884 236.216 679.271 235.395 680.082 233.752H684.017C683.484 235.373 682.514 236.707 681.106 237.752C679.719 238.776 677.991 239.288 675.922 239.288C674.236 239.288 672.722 238.915 671.378 238.168C670.055 237.4 669.01 236.333 668.242 234.968C667.495 233.581 667.122 231.981 667.122 230.168C667.122 228.355 667.484 226.765 668.21 225.4C668.956 224.013 669.991 222.947 671.314 222.2C672.658 221.453 674.194 221.08 675.922 221.08C677.586 221.08 679.068 221.443 680.37 222.168C681.671 222.893 682.684 223.917 683.41 225.24C684.135 226.541 684.498 228.045 684.498 229.752ZM680.69 228.6C680.668 227.256 680.188 226.179 679.25 225.368C678.311 224.557 677.148 224.152 675.762 224.152C674.503 224.152 673.426 224.557 672.53 225.368C671.634 226.157 671.1 227.235 670.93 228.6H680.69ZM686.872 230.168C686.872 228.355 687.234 226.765 687.96 225.4C688.706 224.013 689.73 222.947 691.032 222.2C692.333 221.453 693.826 221.08 695.512 221.08C697.645 221.08 699.405 221.592 700.792 222.616C702.2 223.619 703.149 225.059 703.64 226.936H699.704C699.384 226.061 698.872 225.379 698.168 224.888C697.464 224.397 696.578 224.152 695.512 224.152C694.018 224.152 692.824 224.685 691.928 225.752C691.053 226.797 690.616 228.269 690.616 230.168C690.616 232.067 691.053 233.549 691.928 234.616C692.824 235.683 694.018 236.216 695.512 236.216C697.624 236.216 699.021 235.288 699.704 233.432H703.64C703.128 235.224 702.168 236.653 700.76 237.72C699.352 238.765 697.602 239.288 695.512 239.288C693.826 239.288 692.333 238.915 691.032 238.168C689.73 237.4 688.706 236.333 687.96 234.968C687.234 233.581 686.872 231.981 686.872 230.168ZM723.435 229.752C723.435 230.413 723.392 231.011 723.307 231.544H709.835C709.942 232.952 710.464 234.083 711.403 234.936C712.342 235.789 713.494 236.216 714.859 236.216C716.822 236.216 718.208 235.395 719.019 233.752H722.955C722.422 235.373 721.451 236.707 720.043 237.752C718.656 238.776 716.928 239.288 714.859 239.288C713.174 239.288 711.659 238.915 710.315 238.168C708.992 237.4 707.947 236.333 707.179 234.968C706.432 233.581 706.059 231.981 706.059 230.168C706.059 228.355 706.422 226.765 707.147 225.4C707.894 224.013 708.928 222.947 710.251 222.2C711.595 221.453 713.131 221.08 714.859 221.08C716.523 221.08 718.006 221.443 719.307 222.168C720.608 222.893 721.622 223.917 722.347 225.24C723.072 226.541 723.435 228.045 723.435 229.752ZM719.627 228.6C719.606 227.256 719.126 226.179 718.187 225.368C717.248 224.557 716.086 224.152 714.699 224.152C713.44 224.152 712.363 224.557 711.467 225.368C710.571 226.157 710.038 227.235 709.867 228.6H719.627ZM730.673 223.992C731.292 223.139 732.134 222.445 733.201 221.912C734.289 221.357 735.494 221.08 736.817 221.08C738.374 221.08 739.782 221.453 741.041 222.2C742.3 222.947 743.292 224.013 744.017 225.4C744.742 226.765 745.105 228.333 745.105 230.104C745.105 231.875 744.742 233.464 744.017 234.872C743.292 236.259 742.289 237.347 741.009 238.136C739.75 238.904 738.353 239.288 736.817 239.288C735.452 239.288 734.236 239.021 733.169 238.488C732.124 237.955 731.292 237.272 730.673 236.44V239H727.025V215.32H730.673V223.992ZM741.393 230.104C741.393 228.888 741.137 227.843 740.625 226.968C740.134 226.072 739.473 225.4 738.641 224.952C737.83 224.483 736.956 224.248 736.017 224.248C735.1 224.248 734.225 224.483 733.393 224.952C732.582 225.421 731.921 226.104 731.409 227C730.918 227.896 730.673 228.952 730.673 230.168C730.673 231.384 730.918 232.451 731.409 233.368C731.921 234.264 732.582 234.947 733.393 235.416C734.225 235.885 735.1 236.12 736.017 236.12C736.956 236.12 737.83 235.885 738.641 235.416C739.473 234.925 740.134 234.221 740.625 233.304C741.137 232.387 741.393 231.32 741.393 230.104ZM764.873 229.752C764.873 230.413 764.83 231.011 764.745 231.544H751.273C751.379 232.952 751.902 234.083 752.841 234.936C753.779 235.789 754.931 236.216 756.297 236.216C758.259 236.216 759.646 235.395 760.457 233.752H764.392C763.859 235.373 762.889 236.707 761.481 237.752C760.094 238.776 758.366 239.288 756.297 239.288C754.611 239.288 753.097 238.915 751.753 238.168C750.43 237.4 749.385 236.333 748.617 234.968C747.87 233.581 747.497 231.981 747.497 230.168C747.497 228.355 747.859 226.765 748.585 225.4C749.331 224.013 750.366 222.947 751.689 222.2C753.033 221.453 754.569 221.08 756.297 221.08C757.961 221.08 759.443 221.443 760.745 222.168C762.046 222.893 763.059 223.917 763.785 225.24C764.51 226.541 764.873 228.045 764.873 229.752ZM761.065 228.6C761.043 227.256 760.563 226.179 759.625 225.368C758.686 224.557 757.523 224.152 756.137 224.152C754.878 224.152 753.801 224.557 752.905 225.368C752.009 226.157 751.475 227.235 751.305 228.6H761.065ZM772.111 223.928C772.644 223.032 773.348 222.339 774.223 221.848C775.119 221.336 776.175 221.08 777.391 221.08V224.856H776.463C775.033 224.856 773.945 225.219 773.199 225.944C772.473 226.669 772.111 227.928 772.111 229.72V239H768.463V221.368H772.111V223.928ZM795.456 239.288C794.07 239.288 792.822 239.043 791.712 238.552C790.624 238.04 789.76 237.357 789.12 236.504C788.48 235.629 788.139 234.659 788.096 233.592H791.872C791.936 234.339 792.288 234.968 792.928 235.48C793.59 235.971 794.411 236.216 795.392 236.216C796.416 236.216 797.206 236.024 797.76 235.64C798.336 235.235 798.624 234.723 798.624 234.104C798.624 233.443 798.304 232.952 797.664 232.632C797.046 232.312 796.054 231.96 794.688 231.576C793.366 231.213 792.288 230.861 791.456 230.52C790.624 230.179 789.899 229.656 789.28 228.952C788.683 228.248 788.384 227.32 788.384 226.168C788.384 225.229 788.662 224.376 789.216 223.608C789.771 222.819 790.56 222.2 791.584 221.752C792.63 221.304 793.824 221.08 795.168 221.08C797.174 221.08 798.784 221.592 800 222.616C801.238 223.619 801.899 224.995 801.984 226.744H798.336C798.272 225.955 797.952 225.325 797.376 224.856C796.8 224.387 796.022 224.152 795.04 224.152C794.08 224.152 793.344 224.333 792.832 224.696C792.32 225.059 792.064 225.539 792.064 226.136C792.064 226.605 792.235 227 792.576 227.32C792.918 227.64 793.334 227.896 793.824 228.088C794.315 228.259 795.04 228.483 796 228.76C797.28 229.101 798.326 229.453 799.136 229.816C799.968 230.157 800.683 230.669 801.28 231.352C801.878 232.035 802.187 232.941 802.208 234.072C802.208 235.075 801.931 235.971 801.376 236.76C800.822 237.549 800.032 238.168 799.008 238.616C798.006 239.064 796.822 239.288 795.456 239.288ZM822.118 221.368V239H818.47V236.92C817.894 237.645 817.137 238.221 816.198 238.648C815.281 239.053 814.299 239.256 813.254 239.256C811.867 239.256 810.619 238.968 809.51 238.392C808.422 237.816 807.558 236.963 806.918 235.832C806.299 234.701 805.99 233.336 805.99 231.736V221.368H809.606V231.192C809.606 232.771 810.001 233.987 810.79 234.84C811.579 235.672 812.657 236.088 814.022 236.088C815.387 236.088 816.465 235.672 817.254 234.84C818.065 233.987 818.47 232.771 818.47 231.192V221.368H822.118ZM825.715 230.104C825.715 228.333 826.078 226.765 826.803 225.4C827.55 224.035 828.553 222.979 829.811 222.232C831.091 221.464 832.499 221.08 834.035 221.08C835.422 221.08 836.627 221.357 837.651 221.912C838.697 222.445 839.529 223.117 840.147 223.928V221.368H843.827V239H840.147V236.376C839.529 237.208 838.686 237.901 837.619 238.456C836.553 239.011 835.337 239.288 833.971 239.288C832.457 239.288 831.07 238.904 829.811 238.136C828.553 237.347 827.55 236.259 826.803 234.872C826.078 233.464 825.715 231.875 825.715 230.104ZM840.147 230.168C840.147 228.952 839.891 227.896 839.379 227C838.889 226.104 838.238 225.421 837.427 224.952C836.617 224.483 835.742 224.248 834.803 224.248C833.865 224.248 832.99 224.483 832.179 224.952C831.369 225.4 830.707 226.072 830.195 226.968C829.705 227.843 829.459 228.888 829.459 230.104C829.459 231.32 829.705 232.387 830.195 233.304C830.707 234.221 831.369 234.925 832.179 235.416C833.011 235.885 833.886 236.12 834.803 236.12C835.742 236.12 836.617 235.885 837.427 235.416C838.238 234.947 838.889 234.264 839.379 233.368C839.891 232.451 840.147 231.384 840.147 230.168ZM577.792 262.344H574.528V277H570.848V262.344H568.768V259.368H570.848V258.12C570.848 256.093 571.381 254.621 572.448 253.704C573.536 252.765 575.232 252.296 577.536 252.296V255.336C576.427 255.336 575.648 255.549 575.2 255.976C574.752 256.381 574.528 257.096 574.528 258.12V259.368H577.792V262.344ZM588.673 277.288C587.009 277.288 585.505 276.915 584.161 276.168C582.817 275.4 581.761 274.333 580.993 272.968C580.225 271.581 579.841 269.981 579.841 268.168C579.841 266.376 580.236 264.787 581.025 263.4C581.814 262.013 582.892 260.947 584.257 260.2C585.622 259.453 587.148 259.08 588.833 259.08C590.518 259.08 592.044 259.453 593.409 260.2C594.774 260.947 595.852 262.013 596.641 263.4C597.43 264.787 597.825 266.376 597.825 268.168C597.825 269.96 597.42 271.549 596.609 272.936C595.798 274.323 594.689 275.4 593.281 276.168C591.894 276.915 590.358 277.288 588.673 277.288ZM588.673 274.12C589.612 274.12 590.486 273.896 591.297 273.448C592.129 273 592.801 272.328 593.313 271.432C593.825 270.536 594.081 269.448 594.081 268.168C594.081 266.888 593.836 265.811 593.345 264.936C592.854 264.04 592.204 263.368 591.393 262.92C590.582 262.472 589.708 262.248 588.769 262.248C587.83 262.248 586.956 262.472 586.145 262.92C585.356 263.368 584.726 264.04 584.257 264.936C583.788 265.811 583.553 266.888 583.553 268.168C583.553 270.067 584.033 271.539 584.993 272.584C585.974 273.608 587.201 274.12 588.673 274.12ZM605.687 262.344V272.104C605.687 272.765 605.837 273.245 606.135 273.544C606.455 273.821 606.989 273.96 607.735 273.96H609.975V277H607.095C605.453 277 604.194 276.616 603.319 275.848C602.445 275.08 602.007 273.832 602.007 272.104V262.344H599.927V259.368H602.007V254.984H605.687V259.368H609.975V262.344H605.687ZM620.986 277.288C619.322 277.288 617.818 276.915 616.474 276.168C615.13 275.4 614.074 274.333 613.306 272.968C612.538 271.581 612.154 269.981 612.154 268.168C612.154 266.376 612.548 264.787 613.338 263.4C614.127 262.013 615.204 260.947 616.57 260.2C617.935 259.453 619.46 259.08 621.146 259.08C622.831 259.08 624.356 259.453 625.722 260.2C627.087 260.947 628.164 262.013 628.954 263.4C629.743 264.787 630.138 266.376 630.138 268.168C630.138 269.96 629.732 271.549 628.922 272.936C628.111 274.323 627.002 275.4 625.594 276.168C624.207 276.915 622.671 277.288 620.986 277.288ZM620.986 274.12C621.924 274.12 622.799 273.896 623.61 273.448C624.442 273 625.114 272.328 625.626 271.432C626.138 270.536 626.394 269.448 626.394 268.168C626.394 266.888 626.148 265.811 625.658 264.936C625.167 264.04 624.516 263.368 623.706 262.92C622.895 262.472 622.02 262.248 621.082 262.248C620.143 262.248 619.268 262.472 618.458 262.92C617.668 263.368 617.039 264.04 616.57 264.936C616.1 265.811 615.866 266.888 615.866 268.168C615.866 270.067 616.346 271.539 617.306 272.584C618.287 273.608 619.514 274.12 620.986 274.12ZM658.216 267.752C658.216 268.413 658.174 269.011 658.088 269.544H644.616C644.723 270.952 645.246 272.083 646.184 272.936C647.123 273.789 648.275 274.216 649.64 274.216C651.603 274.216 652.99 273.395 653.8 271.752H657.736C657.203 273.373 656.232 274.707 654.824 275.752C653.438 276.776 651.71 277.288 649.64 277.288C647.955 277.288 646.44 276.915 645.096 276.168C643.774 275.4 642.728 274.333 641.96 272.968C641.214 271.581 640.84 269.981 640.84 268.168C640.84 266.355 641.203 264.765 641.928 263.4C642.675 262.013 643.71 260.947 645.032 260.2C646.376 259.453 647.912 259.08 649.64 259.08C651.304 259.08 652.787 259.443 654.088 260.168C655.39 260.893 656.403 261.917 657.128 263.24C657.854 264.541 658.216 266.045 658.216 267.752ZM654.408 266.6C654.387 265.256 653.907 264.179 652.968 263.368C652.03 262.557 650.867 262.152 649.48 262.152C648.222 262.152 647.144 262.557 646.248 263.368C645.352 264.157 644.819 265.235 644.648 266.6H654.408Z" fill="#111111"/>
<path d="M668.487 268.008C668.487 266.152 668.871 264.531 669.639 263.144C670.407 261.757 671.473 260.691 672.839 259.944C674.225 259.197 675.804 258.824 677.575 258.824C679.857 258.824 681.777 259.453 683.335 260.712C684.892 261.949 685.895 263.688 686.343 265.928H679.687C679.303 264.755 678.556 264.168 677.447 264.168C676.657 264.168 676.028 264.499 675.559 265.16C675.111 265.8 674.887 266.749 674.887 268.008C674.887 269.267 675.111 270.227 675.559 270.888C676.028 271.549 676.657 271.88 677.447 271.88C678.577 271.88 679.324 271.293 679.687 270.12H686.343C685.895 272.339 684.892 274.077 683.335 275.336C681.777 276.595 679.857 277.224 677.575 277.224C675.804 277.224 674.225 276.851 672.839 276.104C671.473 275.357 670.407 274.291 669.639 272.904C668.871 271.517 668.487 269.885 668.487 268.008ZM697.3 277.224C695.508 277.224 693.898 276.851 692.468 276.104C691.06 275.357 689.951 274.291 689.14 272.904C688.33 271.517 687.924 269.885 687.924 268.008C687.924 266.152 688.33 264.531 689.14 263.144C689.972 261.757 691.092 260.691 692.5 259.944C693.93 259.197 695.54 258.824 697.332 258.824C699.124 258.824 700.724 259.197 702.132 259.944C703.562 260.691 704.682 261.757 705.492 263.144C706.324 264.531 706.74 266.152 706.74 268.008C706.74 269.864 706.324 271.496 705.492 272.904C704.682 274.291 703.562 275.357 702.132 276.104C700.703 276.851 699.092 277.224 697.3 277.224ZM697.3 271.784C698.175 271.784 698.9 271.464 699.476 270.824C700.074 270.163 700.372 269.224 700.372 268.008C700.372 266.792 700.074 265.864 699.476 265.224C698.9 264.584 698.186 264.264 697.332 264.264C696.479 264.264 695.764 264.584 695.188 265.224C694.612 265.864 694.324 266.792 694.324 268.008C694.324 269.245 694.602 270.184 695.156 270.824C695.711 271.464 696.426 271.784 697.3 271.784ZM721.036 258.888C723.105 258.888 724.748 259.581 725.964 260.968C727.18 262.333 727.788 264.189 727.788 266.536V277H721.516V267.368C721.516 266.344 721.249 265.544 720.716 264.968C720.183 264.371 719.468 264.072 718.572 264.072C717.633 264.072 716.897 264.371 716.364 264.968C715.831 265.544 715.564 266.344 715.564 267.368V277H709.292V259.048H715.564V261.608C716.119 260.797 716.865 260.147 717.804 259.656C718.743 259.144 719.82 258.888 721.036 258.888ZM730.206 268.008C730.206 266.152 730.59 264.531 731.358 263.144C732.126 261.757 733.192 260.691 734.558 259.944C735.944 259.197 737.523 258.824 739.294 258.824C741.576 258.824 743.496 259.453 745.054 260.712C746.611 261.949 747.614 263.688 748.062 265.928H741.406C741.022 264.755 740.275 264.168 739.166 264.168C738.376 264.168 737.747 264.499 737.278 265.16C736.83 265.8 736.606 266.749 736.606 268.008C736.606 269.267 736.83 270.227 737.278 270.888C737.747 271.549 738.376 271.88 739.166 271.88C740.296 271.88 741.043 271.293 741.406 270.12H748.062C747.614 272.339 746.611 274.077 745.054 275.336C743.496 276.595 741.576 277.224 739.294 277.224C737.523 277.224 735.944 276.851 734.558 276.104C733.192 275.357 732.126 274.291 731.358 272.904C730.59 271.517 730.206 269.885 730.206 268.008ZM759.019 277.224C757.227 277.224 755.616 276.851 754.187 276.104C752.779 275.357 751.67 274.291 750.859 272.904C750.048 271.517 749.643 269.885 749.643 268.008C749.643 266.152 750.048 264.531 750.859 263.144C751.691 261.757 752.811 260.691 754.219 259.944C755.648 259.197 757.259 258.824 759.051 258.824C760.843 258.824 762.443 259.197 763.851 259.944C765.28 260.691 766.4 261.757 767.211 263.144C768.043 264.531 768.459 266.152 768.459 268.008C768.459 269.864 768.043 271.496 767.211 272.904C766.4 274.291 765.28 275.357 763.851 276.104C762.422 276.851 760.811 277.224 759.019 277.224ZM759.019 271.784C759.894 271.784 760.619 271.464 761.195 270.824C761.792 270.163 762.091 269.224 762.091 268.008C762.091 266.792 761.792 265.864 761.195 265.224C760.619 264.584 759.904 264.264 759.051 264.264C758.198 264.264 757.483 264.584 756.907 265.224C756.331 265.864 756.043 266.792 756.043 268.008C756.043 269.245 756.32 270.184 756.875 270.824C757.43 271.464 758.144 271.784 759.019 271.784ZM777.283 262.216C777.987 261.192 778.84 260.381 779.843 259.784C780.845 259.187 781.923 258.888 783.075 258.888V265.576H781.315C779.949 265.576 778.936 265.843 778.275 266.376C777.613 266.909 777.283 267.837 777.283 269.16V277H771.011V259.048H777.283V262.216ZM791.595 262.216C792.299 261.192 793.153 260.381 794.155 259.784C795.158 259.187 796.235 258.888 797.387 258.888V265.576H795.627C794.262 265.576 793.249 265.843 792.587 266.376C791.926 266.909 791.595 267.837 791.595 269.16V277H785.323V259.048H791.595V262.216ZM816.788 267.816C816.788 268.307 816.756 268.797 816.692 269.288H804.82C804.884 270.269 805.15 271.005 805.62 271.496C806.11 271.965 806.729 272.2 807.476 272.2C808.521 272.2 809.268 271.731 809.716 270.792H816.404C816.126 272.029 815.582 273.139 814.772 274.12C813.982 275.08 812.98 275.837 811.764 276.392C810.548 276.947 809.204 277.224 807.732 277.224C805.961 277.224 804.382 276.851 802.996 276.104C801.63 275.357 800.553 274.291 799.764 272.904C798.996 271.517 798.612 269.885 798.612 268.008C798.612 266.131 798.996 264.509 799.764 263.144C800.532 261.757 801.598 260.691 802.964 259.944C804.35 259.197 805.94 258.824 807.732 258.824C809.502 258.824 811.07 259.187 812.436 259.912C813.801 260.637 814.868 261.683 815.636 263.048C816.404 264.392 816.788 265.981 816.788 267.816ZM810.388 266.248C810.388 265.48 810.132 264.883 809.62 264.456C809.108 264.008 808.468 263.784 807.7 263.784C806.932 263.784 806.302 263.997 805.812 264.424C805.321 264.829 805.001 265.437 804.852 266.248H810.388ZM825.627 262.216C826.331 261.192 827.184 260.381 828.187 259.784C829.189 259.187 830.267 258.888 831.419 258.888V265.576H829.659C828.293 265.576 827.28 265.843 826.619 266.376C825.957 266.909 825.627 267.837 825.627 269.16V277H819.355V259.048H825.627V262.216ZM838.768 268.008C838.768 266.152 839.099 264.531 839.76 263.144C840.443 261.757 841.36 260.691 842.512 259.944C843.685 259.197 844.987 258.824 846.416 258.824C847.653 258.824 848.72 259.069 849.616 259.56C850.512 260.051 851.205 260.712 851.696 261.544V259.048H857.968V277H851.696V274.504C851.205 275.336 850.501 275.997 849.584 276.488C848.688 276.979 847.632 277.224 846.416 277.224C844.987 277.224 843.685 276.851 842.512 276.104C841.36 275.357 840.443 274.291 839.76 272.904C839.099 271.496 838.768 269.864 838.768 268.008ZM851.696 268.008C851.696 266.856 851.376 265.949 850.736 265.288C850.117 264.627 849.349 264.296 848.432 264.296C847.493 264.296 846.715 264.627 846.096 265.288C845.477 265.928 845.168 266.835 845.168 268.008C845.168 269.16 845.477 270.077 846.096 270.76C846.715 271.421 847.493 271.752 848.432 271.752C849.349 271.752 850.117 271.421 850.736 270.76C851.376 270.099 851.696 269.181 851.696 268.008ZM576.064 299.544C576.555 298.712 577.248 298.051 578.144 297.56C579.04 297.069 580.096 296.824 581.312 296.824C582.741 296.824 584.032 297.197 585.184 297.944C586.357 298.691 587.275 299.757 587.936 301.144C588.619 302.531 588.96 304.152 588.96 306.008C588.96 307.864 588.619 309.496 587.936 310.904C587.275 312.291 586.357 313.357 585.184 314.104C584.032 314.851 582.741 315.224 581.312 315.224C580.096 315.224 579.04 314.979 578.144 314.488C577.269 313.997 576.576 313.336 576.064 312.504V323.576H569.792V297.048H576.064V299.544ZM582.592 306.008C582.592 304.835 582.272 303.928 581.632 303.288C581.013 302.627 580.245 302.296 579.328 302.296C578.411 302.296 577.632 302.627 576.992 303.288C576.373 303.949 576.064 304.856 576.064 306.008C576.064 307.181 576.373 308.099 576.992 308.76C577.632 309.421 578.411 309.752 579.328 309.752C580.245 309.752 581.013 309.421 581.632 308.76C582.272 308.077 582.592 307.16 582.592 306.008ZM597.814 300.216C598.518 299.192 599.371 298.381 600.374 297.784C601.377 297.187 602.454 296.888 603.606 296.888V303.576H601.846C600.481 303.576 599.467 303.843 598.806 304.376C598.145 304.909 597.814 305.837 597.814 307.16V315H591.542V297.048H597.814V300.216ZM623.007 305.816C623.007 306.307 622.975 306.797 622.911 307.288H611.039C611.103 308.269 611.369 309.005 611.839 309.496C612.329 309.965 612.948 310.2 613.695 310.2C614.74 310.2 615.487 309.731 615.935 308.792H622.623C622.345 310.029 621.801 311.139 620.991 312.12C620.201 313.08 619.199 313.837 617.983 314.392C616.767 314.947 615.423 315.224 613.951 315.224C612.18 315.224 610.601 314.851 609.215 314.104C607.849 313.357 606.772 312.291 605.983 310.904C605.215 309.517 604.831 307.885 604.831 306.008C604.831 304.131 605.215 302.509 605.983 301.144C606.751 299.757 607.817 298.691 609.183 297.944C610.569 297.197 612.159 296.824 613.951 296.824C615.721 296.824 617.289 297.187 618.655 297.912C620.02 298.637 621.087 299.683 621.855 301.048C622.623 302.392 623.007 303.981 623.007 305.816ZM616.607 304.248C616.607 303.48 616.351 302.883 615.839 302.456C615.327 302.008 614.687 301.784 613.919 301.784C613.151 301.784 612.521 301.997 612.031 302.424C611.54 302.829 611.22 303.437 611.071 304.248H616.607ZM613.951 293.112L608.799 295.672V291.48L613.951 289.016L619.039 291.48V295.672L613.951 293.112ZM649.029 296.888C651.291 296.888 653.061 297.571 654.341 298.936C655.643 300.301 656.293 302.168 656.293 304.536V315H650.021V305.368C650.021 304.408 649.755 303.661 649.221 303.128C648.688 302.595 647.963 302.328 647.045 302.328C646.128 302.328 645.403 302.595 644.869 303.128C644.336 303.661 644.069 304.408 644.069 305.368V315H637.797V305.368C637.797 304.408 637.531 303.661 636.997 303.128C636.485 302.595 635.771 302.328 634.853 302.328C633.915 302.328 633.179 302.595 632.645 303.128C632.112 303.661 631.845 304.408 631.845 305.368V315H625.573V297.048H631.845V299.416C632.4 298.648 633.115 298.04 633.989 297.592C634.885 297.123 635.909 296.888 637.061 296.888C638.384 296.888 639.557 297.176 640.581 297.752C641.627 298.328 642.448 299.139 643.045 300.184C643.685 299.203 644.528 298.413 645.573 297.816C646.619 297.197 647.771 296.888 649.029 296.888ZM662.898 295.384C661.788 295.384 660.892 295.085 660.21 294.488C659.548 293.869 659.218 293.101 659.218 292.184C659.218 291.245 659.548 290.467 660.21 289.848C660.892 289.229 661.788 288.92 662.898 288.92C663.986 288.92 664.86 289.229 665.522 289.848C666.204 290.467 666.546 291.245 666.546 292.184C666.546 293.101 666.204 293.869 665.522 294.488C664.86 295.085 663.986 295.384 662.898 295.384ZM666.002 297.048V315H659.73V297.048H666.002ZM677.925 315.224C676.133 315.224 674.523 314.851 673.093 314.104C671.685 313.357 670.576 312.291 669.765 310.904C668.955 309.517 668.549 307.885 668.549 306.008C668.549 304.152 668.955 302.531 669.765 301.144C670.597 299.757 671.717 298.691 673.125 297.944C674.555 297.197 676.165 296.824 677.957 296.824C679.749 296.824 681.349 297.197 682.757 297.944C684.187 298.691 685.307 299.757 686.117 301.144C686.949 302.531 687.365 304.152 687.365 306.008C687.365 307.864 686.949 309.496 686.117 310.904C685.307 312.291 684.187 313.357 682.757 314.104C681.328 314.851 679.717 315.224 677.925 315.224ZM677.925 309.784C678.8 309.784 679.525 309.464 680.101 308.824C680.699 308.163 680.997 307.224 680.997 306.008C680.997 304.792 680.699 303.864 680.101 303.224C679.525 302.584 678.811 302.264 677.957 302.264C677.104 302.264 676.389 302.584 675.813 303.224C675.237 303.864 674.949 304.792 674.949 306.008C674.949 307.245 675.227 308.184 675.781 308.824C676.336 309.464 677.051 309.784 677.925 309.784ZM697.565 315.224C695.944 315.224 694.493 314.957 693.213 314.424C691.954 313.869 690.952 313.123 690.205 312.184C689.48 311.224 689.074 310.147 688.989 308.952H695.069C695.154 309.528 695.421 309.976 695.869 310.296C696.317 310.616 696.872 310.776 697.533 310.776C698.045 310.776 698.45 310.669 698.749 310.456C699.048 310.243 699.197 309.965 699.197 309.624C699.197 309.176 698.952 308.845 698.461 308.632C697.97 308.419 697.16 308.184 696.029 307.928C694.749 307.672 693.682 307.384 692.829 307.064C691.976 306.744 691.229 306.221 690.589 305.496C689.97 304.771 689.661 303.789 689.661 302.552C689.661 301.485 689.949 300.525 690.525 299.672C691.101 298.797 691.944 298.104 693.053 297.592C694.184 297.08 695.538 296.824 697.117 296.824C699.464 296.824 701.309 297.4 702.653 298.552C703.997 299.704 704.776 301.219 704.989 303.096H699.325C699.218 302.52 698.962 302.083 698.557 301.784C698.173 301.464 697.65 301.304 696.989 301.304C696.477 301.304 696.082 301.4 695.805 301.592C695.549 301.784 695.421 302.051 695.421 302.392C695.421 302.819 695.666 303.149 696.157 303.384C696.648 303.597 697.437 303.821 698.525 304.056C699.826 304.333 700.904 304.643 701.757 304.984C702.632 305.325 703.389 305.88 704.029 306.648C704.69 307.395 705.021 308.419 705.021 309.72C705.021 310.765 704.712 311.704 704.093 312.536C703.496 313.368 702.632 314.029 701.501 314.52C700.392 314.989 699.08 315.224 697.565 315.224ZM731.382 305.816C731.382 306.307 731.35 306.797 731.286 307.288H719.414C719.478 308.269 719.744 309.005 720.214 309.496C720.704 309.965 721.323 310.2 722.07 310.2C723.115 310.2 723.862 309.731 724.31 308.792H730.998C730.72 310.029 730.176 311.139 729.366 312.12C728.576 313.08 727.574 313.837 726.358 314.392C725.142 314.947 723.798 315.224 722.326 315.224C720.555 315.224 718.976 314.851 717.59 314.104C716.224 313.357 715.147 312.291 714.358 310.904C713.59 309.517 713.206 307.885 713.206 306.008C713.206 304.131 713.59 302.509 714.358 301.144C715.126 299.757 716.192 298.691 717.558 297.944C718.944 297.197 720.534 296.824 722.326 296.824C724.096 296.824 725.664 297.187 727.03 297.912C728.395 298.637 729.462 299.683 730.23 301.048C730.998 302.392 731.382 303.981 731.382 305.816ZM724.982 304.248C724.982 303.48 724.726 302.883 724.214 302.456C723.702 302.008 723.062 301.784 722.294 301.784C721.526 301.784 720.896 301.997 720.406 302.424C719.915 302.829 719.595 303.437 719.446 304.248H724.982ZM745.148 315L741.916 310.488L739.356 315H732.476L738.46 305.688L732.22 297.048H739.26L742.492 301.56L745.084 297.048H751.964L745.852 306.2L752.188 315H745.148ZM753.018 306.008C753.018 304.152 753.402 302.531 754.17 301.144C754.938 299.757 756.005 298.691 757.37 297.944C758.757 297.197 760.335 296.824 762.106 296.824C764.389 296.824 766.309 297.453 767.866 298.712C769.423 299.949 770.426 301.688 770.874 303.928H764.218C763.834 302.755 763.087 302.168 761.978 302.168C761.189 302.168 760.559 302.499 760.09 303.16C759.642 303.8 759.418 304.749 759.418 306.008C759.418 307.267 759.642 308.227 760.09 308.888C760.559 309.549 761.189 309.88 761.978 309.88C763.109 309.88 763.855 309.293 764.218 308.12H770.874C770.426 310.339 769.423 312.077 767.866 313.336C766.309 314.595 764.389 315.224 762.106 315.224C760.335 315.224 758.757 314.851 757.37 314.104C756.005 313.357 754.938 312.291 754.17 310.904C753.402 309.517 753.018 307.885 753.018 306.008ZM779.752 291.32V315H773.48V291.32H779.752ZM801.691 297.048V315H795.387V312.44C794.854 313.251 794.118 313.912 793.179 314.424C792.241 314.915 791.163 315.16 789.947 315.16C787.857 315.16 786.203 314.477 784.987 313.112C783.793 311.725 783.195 309.848 783.195 307.48V297.048H789.435V306.68C789.435 307.704 789.702 308.515 790.235 309.112C790.79 309.688 791.515 309.976 792.411 309.976C793.329 309.976 794.054 309.688 794.587 309.112C795.121 308.515 795.387 307.704 795.387 306.68V297.048H801.691ZM812.909 315.224C811.287 315.224 809.837 314.957 808.557 314.424C807.298 313.869 806.295 313.123 805.549 312.184C804.823 311.224 804.418 310.147 804.333 308.952H810.413C810.498 309.528 810.765 309.976 811.213 310.296C811.661 310.616 812.215 310.776 812.877 310.776C813.389 310.776 813.794 310.669 814.093 310.456C814.391 310.243 814.541 309.965 814.541 309.624C814.541 309.176 814.295 308.845 813.805 308.632C813.314 308.419 812.503 308.184 811.373 307.928C810.093 307.672 809.026 307.384 808.173 307.064C807.319 306.744 806.573 306.221 805.933 305.496C805.314 304.771 805.005 303.789 805.005 302.552C805.005 301.485 805.293 300.525 805.869 299.672C806.445 298.797 807.287 298.104 808.397 297.592C809.527 297.08 810.882 296.824 812.461 296.824C814.807 296.824 816.653 297.4 817.997 298.552C819.341 299.704 820.119 301.219 820.333 303.096H814.669C814.562 302.52 814.306 302.083 813.901 301.784C813.517 301.464 812.994 301.304 812.333 301.304C811.821 301.304 811.426 301.4 811.149 301.592C810.893 301.784 810.765 302.051 810.765 302.392C810.765 302.819 811.01 303.149 811.501 303.384C811.991 303.597 812.781 303.821 813.869 304.056C815.17 304.333 816.247 304.643 817.101 304.984C817.975 305.325 818.733 305.88 819.373 306.648C820.034 307.395 820.365 308.419 820.365 309.72C820.365 310.765 820.055 311.704 819.437 312.536C818.839 313.368 817.975 314.029 816.845 314.52C815.735 314.989 814.423 315.224 812.909 315.224ZM826.616 295.384C825.507 295.384 824.611 295.085 823.928 294.488C823.267 293.869 822.936 293.101 822.936 292.184C822.936 291.245 823.267 290.467 823.928 289.848C824.611 289.229 825.507 288.92 826.616 288.92C827.704 288.92 828.579 289.229 829.24 289.848C829.923 290.467 830.264 291.245 830.264 292.184C830.264 293.101 829.923 293.869 829.24 294.488C828.579 295.085 827.704 295.384 826.616 295.384ZM829.72 297.048V315H823.448V297.048H829.72ZM841.9 309.08L845.26 297.048H851.948L845.772 315H837.964L831.788 297.048H838.476L841.9 309.08ZM862.425 315.224C860.633 315.224 859.023 314.851 857.593 314.104C856.185 313.357 855.076 312.291 854.265 310.904C853.455 309.517 853.049 307.885 853.049 306.008C853.049 304.152 853.455 302.531 854.265 301.144C855.097 299.757 856.217 298.691 857.625 297.944C859.055 297.197 860.665 296.824 862.457 296.824C864.249 296.824 865.849 297.197 867.257 297.944C868.687 298.691 869.807 299.757 870.617 301.144C871.449 302.531 871.865 304.152 871.865 306.008C871.865 307.864 871.449 309.496 870.617 310.904C869.807 312.291 868.687 313.357 867.257 314.104C865.828 314.851 864.217 315.224 862.425 315.224ZM862.425 309.784C863.3 309.784 864.025 309.464 864.601 308.824C865.199 308.163 865.497 307.224 865.497 306.008C865.497 304.792 865.199 303.864 864.601 303.224C864.025 302.584 863.311 302.264 862.457 302.264C861.604 302.264 860.889 302.584 860.313 303.224C859.737 303.864 859.449 304.792 859.449 306.008C859.449 307.245 859.727 308.184 860.281 308.824C860.836 309.464 861.551 309.784 862.425 309.784ZM882.065 315.224C880.444 315.224 878.993 314.957 877.713 314.424C876.454 313.869 875.452 313.123 874.705 312.184C873.98 311.224 873.574 310.147 873.489 308.952H879.569C879.654 309.528 879.921 309.976 880.369 310.296C880.817 310.616 881.372 310.776 882.033 310.776C882.545 310.776 882.95 310.669 883.249 310.456C883.548 310.243 883.697 309.965 883.697 309.624C883.697 309.176 883.452 308.845 882.961 308.632C882.47 308.419 881.66 308.184 880.529 307.928C879.249 307.672 878.182 307.384 877.329 307.064C876.476 306.744 875.729 306.221 875.089 305.496C874.47 304.771 874.161 303.789 874.161 302.552C874.161 301.485 874.449 300.525 875.025 299.672C875.601 298.797 876.444 298.104 877.553 297.592C878.684 297.08 880.038 296.824 881.617 296.824C883.964 296.824 885.809 297.4 887.153 298.552C888.497 299.704 889.276 301.219 889.489 303.096H883.825C883.718 302.52 883.462 302.083 883.057 301.784C882.673 301.464 882.15 301.304 881.489 301.304C880.977 301.304 880.582 301.4 880.305 301.592C880.049 301.784 879.921 302.051 879.921 302.392C879.921 302.819 880.166 303.149 880.657 303.384C881.148 303.597 881.937 303.821 883.025 304.056C884.326 304.333 885.404 304.643 886.257 304.984C887.132 305.325 887.889 305.88 888.529 306.648C889.19 307.395 889.521 308.419 889.521 309.72C889.521 310.765 889.212 311.704 888.593 312.536C887.996 313.368 887.132 314.029 886.001 314.52C884.892 314.989 883.58 315.224 882.065 315.224ZM900.989 291.288L900.253 306.552H894.909L894.173 291.288H900.989ZM897.597 315.256C896.487 315.256 895.591 314.957 894.909 314.36C894.247 313.741 893.917 312.963 893.917 312.024C893.917 311.085 894.247 310.307 894.909 309.688C895.591 309.069 896.487 308.76 897.597 308.76C898.685 308.76 899.559 309.069 900.22 309.688C900.903 310.307 901.245 311.085 901.245 312.024C901.245 312.941 900.903 313.709 900.22 314.328C899.559 314.947 898.685 315.256 897.597 315.256Z" fill="#FF9700"/>
<rect x="70.6325" y="122.752" width="400.414" height="721.018" transform="rotate(-2.51073 70.6325 122.752)" stroke="white" stroke-width="15"/>
<path fill-rule="evenodd" clip-rule="evenodd" d="M528.903 107.46C539.205 104.699 549.99 103.307 560.452 102.031C562.706 101.764 564.798 103.256 564.959 105.359C565.281 107.463 563.67 109.387 561.578 109.655C551.437 110.883 540.976 112.197 531.157 114.854C529.065 115.431 526.81 114.244 526.167 112.203C525.523 110.163 526.811 108.038 528.903 107.46Z" fill="#F19C1C"/>
<path fill-rule="evenodd" clip-rule="evenodd" d="M497.156 67.4136C513.852 51.1321 532.655 36.9464 549.027 20.2281C550.486 18.6667 553.08 18.5831 554.701 20.0407C556.322 21.4998 556.483 23.9534 554.862 25.5148C538.49 42.2811 519.687 56.5133 502.991 72.8428C501.37 74.367 498.777 74.3887 497.156 72.8892C495.697 71.3914 495.535 68.9378 497.156 67.4136Z" fill="#F19C1C"/>
<path fill-rule="evenodd" clip-rule="evenodd" d="M465.99 4.11431C465.533 13.505 465.077 22.8958 464.62 32.288C464.62 34.439 462.79 36.0999 460.657 35.9953C458.523 35.8892 457 34.0582 457 31.9056C457.457 22.4993 457.913 13.0945 458.371 3.68973C458.523 1.53873 460.352 -0.111208 462.486 0.00586426C464.467 0.122936 466.143 1.96487 465.99 4.11431Z" fill="#F19C1C"/>
<path fill-rule="evenodd" clip-rule="evenodd" d="M96.5761 815.648C97.1774 816.353 97.6679 817.193 98.157 818.033C100.994 822.32 104.357 827.252 105.678 832.347C107.366 839.082 106.079 844.112 103.088 847.78C98.8728 852.939 90.7667 855.211 82.8803 854.294C75.0417 853.415 67.4204 849.57 63.8048 843.314C61.2963 839.065 60.6296 833.596 63.1121 827.052C65.8844 819.619 71.953 815.268 79.3013 813.062C82.1124 812.167 84.9647 811.754 87.9733 811.466C86.0708 809.272 84.1469 807.061 82.1911 804.824C75.5882 797.752 67.9469 791.196 60.08 785.583C49.7797 778.024 38.5981 772.456 26.3177 768.925C25.247 768.518 24.6006 767.328 24.9066 766.226C25.2141 765.125 26.3851 764.491 27.5652 764.761C40.3179 768.445 51.9843 774.176 62.6763 782.048C70.6529 787.973 78.6303 794.575 85.3414 801.958C88.0917 805.053 90.7832 808.101 93.3295 811.258C99.9056 811.353 106.385 812.491 111.423 814.049C144.734 824.962 169.316 865.027 182.71 895.927C183.195 896.988 182.738 898.194 181.651 898.672C180.563 899.149 179.335 898.617 178.85 897.556C165.875 867.663 142.352 828.668 110.084 818.14C106.289 816.902 101.515 816.004 96.5761 815.648ZM91.177 815.597C92.4233 817.042 93.5513 818.616 94.5652 820.323C97.0832 824.355 100.324 828.74 101.587 833.34C102.875 838.409 102.078 842.261 99.8621 844.978C96.3149 849.324 89.7319 850.795 83.3978 849.996C76.9077 849.298 70.4533 846.384 67.5363 841.135C65.6182 837.807 65.1744 833.637 67.0486 828.627C69.3957 822.425 74.5292 818.899 80.5116 817.172C83.9346 816.093 87.5673 815.63 91.177 815.597Z" fill="#F19C1C"/>
<path fill-rule="evenodd" clip-rule="evenodd" d="M181.651 897.772C181.715 896.701 181.539 895.438 181.362 894.174C181.064 891.692 180.573 889.279 180.671 887.562C181.133 877.161 181.818 864.693 185.545 854.881C185.918 853.832 187.165 853.258 188.26 853.685C189.354 854.11 189.966 855.272 189.484 856.457C185.984 865.778 185.449 877.694 184.903 887.804C184.868 889.572 185.445 892.5 185.777 895.01C186.003 897.209 185.983 899.214 185.349 900.726C185.048 901.608 183.789 902.622 181.591 902.211C178.53 901.56 171.694 897.669 170.997 897.336C163.951 893.95 157.62 891.134 149.704 893.335C148.616 893.587 147.462 892.889 147.046 891.884C146.741 890.742 147.452 889.514 148.541 889.263C157.531 886.798 164.928 889.568 172.916 893.484C173.349 893.829 177.414 896.181 180.592 897.374C180.974 897.455 181.274 897.694 181.651 897.772Z" fill="#F19C1C"/>
<path d="M818.855 861.137L758.829 859.832L758.153 890.725L738.194 909.833L817.739 911.564C817.739 911.564 819.348 861.664 818.855 861.137Z" fill="#2E2E2E"/>
<path d="M803.378 662.511L751.256 869.089L824.135 870.813L853.993 659.312L803.378 662.511Z" fill="#CE7C00"/>
<path d="M893.897 852.678L834.291 859.92L838.016 890.597L820.957 912.349L899.962 902.754C899.962 902.754 894.458 853.118 893.897 852.678Z" fill="#2E2E2E"/>
<path d="M801.059 652.152C802.864 652.375 851.768 646.54 863.817 645.093L866.48 644.768L863.593 640.319L848.164 616.539L844.52 610.934L832.194 591.94L822.621 593.428C822.621 593.428 821.018 597.404 818.672 603.293C818.138 604.645 817.563 606.086 816.962 607.62C814.548 613.706 811.681 621.049 809.037 627.979C808.071 630.542 807.117 633.057 806.238 635.417C802.777 644.809 800.343 652.057 801.059 652.152Z" fill="#F19C1C"/>
<path d="M859.32 658.778L903.255 858.73L827.394 866.485L803.642 662.774L859.32 658.778Z" fill="#F19C1C"/>
<path d="M815.447 567.842C816.101 565.977 817.294 564.348 818.873 563.161C820.453 561.973 822.35 561.281 824.323 561.172C826.296 561.062 828.258 561.54 829.959 562.545C831.661 563.55 833.026 565.038 833.883 566.819C834.739 568.6 835.049 570.595 834.771 572.552C834.494 574.509 833.643 576.339 832.325 577.812C831.008 579.286 829.283 580.335 827.369 580.828C825.455 581.32 823.438 581.235 821.573 580.581C820.774 580.3 820.013 579.92 819.308 579.452C817.472 578.216 816.097 576.406 815.398 574.305C814.7 572.205 814.717 569.932 815.447 567.842ZM819.727 578.83C821.519 580.023 823.67 580.558 825.812 580.345L826.353 569.722L818.747 564.252C817.571 565.289 816.684 566.612 816.171 568.093C815.49 570.023 815.469 572.126 816.113 574.069C816.757 576.013 818.028 577.688 819.727 578.83Z" fill="#FBFBFB"/>
<path d="M694.733 518.031L636.303 497.705L685.477 434.742L719.858 485.068L721.67 482.688L759.782 511.763L755.786 517.01C757.996 519.728 759.323 523.057 759.588 526.55C759.854 530.044 759.046 533.535 757.273 536.556C755.501 539.578 752.847 541.986 749.668 543.458C746.489 544.93 742.936 545.395 739.485 544.793C738.119 544.548 736.787 544.142 735.516 543.582L730.506 550.154L716.646 539.586L716.213 540.168L716.01 540.438L715.808 540.715L715.388 540.398L714.712 539.89C712.589 538.22 710.338 536.469 707.951 534.799L708.154 534.529L708.35 534.258L708.803 533.65L692.394 521.127L694.733 518.031ZM719.425 485.636L685.443 435.892L637.439 497.374L695.193 517.463L719.459 485.643L719.425 485.636Z" fill="#FBFBFB"/>
<path d="M887.406 495.792L887.934 495.265C888.116 495.447 891.409 498.787 892.477 505.116C892.843 503.266 893.709 501.553 894.983 500.162C896.256 498.772 897.888 497.758 899.698 497.232L899.854 497.962C899.597 498.017 893.519 499.416 892.89 507.32H892.734C892.857 509.024 892.814 510.736 892.606 512.432L891.869 512.344C893.153 501.654 887.467 495.853 887.406 495.792Z" fill="#FBFBFB"/>
<path d="M852.025 584.685C845.805 589.696 837.962 593.949 828.07 596.856L827.861 596.139C858.523 587.207 869.314 565.036 872.965 547.943C873.012 547.747 873.052 547.551 873.093 547.355C875.332 535.961 875.501 524.257 873.593 512.804C869.942 510.37 843.621 492.607 846.67 487.597C846.932 487.168 847.283 486.8 847.7 486.519C848.116 486.238 848.588 486.05 849.084 485.967C855.223 484.689 869.07 493.716 872.91 496.326C870.693 490.24 860.923 462.282 866.866 455.371C867.117 454.993 867.477 454.701 867.899 454.534C868.321 454.367 868.784 454.334 869.226 454.438C872.322 455.317 875.311 464.81 877.434 473.952C876.413 464.898 875.994 455.06 878.394 451.673C878.609 451.337 878.893 451.05 879.226 450.83C879.559 450.61 879.934 450.462 880.327 450.395C880.67 450.358 881.016 450.39 881.345 450.492C881.674 450.593 881.979 450.76 882.241 450.983C885.459 453.458 888.062 463.668 889.813 472.843C889.137 461.977 889.597 449.374 895.141 448.326C895.5 448.262 895.868 448.279 896.219 448.377C896.57 448.474 896.895 448.648 897.17 448.887C900.429 451.443 902.45 462.349 903.62 471.829C902.835 447.765 904.33 447.555 908.914 446.913C909.093 446.889 909.275 446.905 909.447 446.96C909.618 447.015 909.776 447.107 909.908 447.23C913.964 450.611 915.269 485.156 915.317 486.623C915.364 486.914 920.266 520.208 914.194 555.469C913.856 557.443 913.518 559.384 913.092 561.297C909.34 579.465 903.113 594.834 894.553 607.039C882.707 623.943 866.345 634.761 845.913 639.251L845.751 638.52C859.699 635.451 870.902 629.548 879.908 621.914C874.817 589.026 853.898 584.976 852.025 584.685ZM880.578 621.333C900.719 603.854 909.651 577.62 913.464 555.327C919.549 520.167 914.634 487.036 914.58 486.684C914.208 476.724 912.551 450.422 909.428 447.792C909.377 447.736 909.314 447.693 909.243 447.666C909.173 447.639 909.097 447.629 909.022 447.636C904.289 448.312 903.187 448.454 904.965 486.853L904.215 486.894C904.215 486.562 902.322 453.911 896.69 449.496C896.498 449.324 896.271 449.197 896.024 449.126C895.776 449.054 895.516 449.04 895.263 449.083C888.414 450.375 890.233 472.532 891.51 483.121C891.963 486.217 892.227 488.347 892.261 488.679L891.524 488.78C891.463 488.428 891.125 486.258 890.74 483.1C889.34 473.492 886.068 454.864 881.808 451.558C881.625 451.396 881.41 451.274 881.178 451.199C880.945 451.125 880.699 451.1 880.456 451.125C880.163 451.176 879.884 451.288 879.638 451.455C879.392 451.621 879.185 451.839 879.029 452.092C875.75 456.717 878.144 474.939 879.753 484.818C880.429 488.388 880.835 490.903 880.889 491.275L880.152 491.41C880.084 491.032 879.55 488.3 878.914 484.412C876.724 472.917 872.748 456.189 869.05 455.141C868.516 454.993 867.995 455.223 867.454 455.818C861.207 463.079 873.918 496.792 874.046 497.137L874.486 498.28L873.485 497.604C873.309 497.482 855.96 485.298 849.267 486.691C848.872 486.751 848.495 486.896 848.161 487.115C847.827 487.335 847.545 487.623 847.333 487.962C845.305 491.343 862.255 504.331 874.161 512.242L874.29 512.33V512.479C876.282 524.281 876.078 536.35 873.688 548.078C871.22 559.607 865.52 573.454 852.769 584.07C856.886 584.942 875.642 590.622 880.578 621.333Z" fill="#FBFBFB"/>
<path d="M688.56 534.704C688.885 534.387 689.236 534.028 689.615 533.636C692.204 530.931 696.126 526.915 700.007 529.018C702.157 530.181 704.307 531.486 706.403 532.879C707.079 533.332 707.755 533.792 708.397 534.231C710.764 535.908 713.022 537.659 715.159 539.336L715.835 539.83L716.247 540.141C718.275 541.709 721.791 544.481 722.792 547.01C724.832 549.152 726.645 551.499 728.201 554.015C734.29 560.647 741.029 566.652 748.315 571.94C749.708 572.977 751.166 574.011 752.69 575.044C766.51 584.435 788.206 595.463 813.365 594.99H814.25V595.328V595.666C813.432 595.666 812.614 595.7 811.803 595.7C805.912 595.69 800.037 595.092 794.264 593.915L794.413 594.172C794.237 594.28 777.05 604.767 780.113 632.631C787.958 634.559 796.039 635.347 804.109 634.971L804.143 635.647C802.79 635.715 801.438 635.748 800.086 635.748C771.101 635.748 745.902 620.109 729.587 606.64C718.462 597.457 708.434 587.02 699.702 575.537C699.144 575.685 698.569 575.757 697.992 575.753C695.362 575.753 692.427 574.401 689.878 573.049C685.998 570.973 680.129 567.836 677.796 562.602C673.834 553.711 681.116 542.007 688.56 534.704ZM702.759 556.497L703.597 557.173C707.147 559.911 709.729 561.155 711.42 560.946C712.819 560.777 713.489 559.593 714.124 558.498C714.3 558.187 714.469 557.89 714.658 557.612C715.334 556.578 714.185 554.482 712.021 551.919C710.021 553.224 707.835 554.218 705.537 554.867L705.226 554.962C704.55 555.165 703.976 555.367 703.408 555.557L702.238 555.935L702.759 556.497ZM701.406 573.908C701.517 573.811 701.602 573.689 701.656 573.553C701.71 573.417 701.731 573.269 701.717 573.123C701.717 571.636 699.689 569.066 696.924 566.179C696.383 565.618 695.808 565.043 695.213 564.462C693.185 563.008 691.217 561.399 689.405 559.864C685.43 556.483 682.34 553.44 682.022 553.102L682.468 552.595C682.799 552.852 686.207 555.496 690.115 558.883C691.9 560.425 693.786 562.122 695.524 563.819C696.2 564.327 696.876 564.807 697.552 565.26C701.548 567.964 705.138 569.587 706.849 568.444C707.166 568.246 707.428 567.971 707.611 567.645C707.795 567.319 707.893 566.952 707.897 566.578C708.005 564.36 705.869 561.122 703.049 557.849L702.245 556.936C701.938 556.693 701.627 556.436 701.312 556.165C698.83 556.842 696.957 556.686 695.078 553.576C694.886 553.27 694.782 552.916 694.78 552.555C694.81 551.923 695.048 551.32 695.456 550.837C693.847 549.275 692.076 547.49 690.115 545.462L690.575 544.968C690.845 545.185 693.279 547.173 696.268 549.938C696.64 549.594 697.036 549.276 697.451 548.985C699.9 547.359 702.553 546.063 705.341 545.131C704.354 544.231 703.313 543.339 702.319 542.467C700.412 540.837 698.492 539.275 696.728 537.909L696.761 537.862L696.64 537.761L696.849 537.504L697.059 537.247C699.141 538.942 701.046 540.479 702.772 541.858C704.093 542.913 705.321 543.875 706.457 544.745C708.926 543.892 711.485 543.322 714.084 543.048C715.203 542.904 716.341 542.982 717.43 543.278C718.733 543.767 719.935 544.489 720.98 545.408C719.431 543.663 717.697 542.092 715.808 540.722L715.388 540.404L714.712 539.897C712.589 538.227 710.338 536.476 707.951 534.806C707.275 534.346 706.646 533.893 705.977 533.453C703.901 532.067 701.771 530.749 699.635 529.626C696.207 527.767 692.651 531.438 690.048 534.123C689.676 534.508 689.317 534.88 688.986 535.198C681.697 542.352 674.551 553.765 678.391 562.379C680.467 567.018 685.152 569.817 690.176 572.521C693.901 574.455 698.492 576.396 701.413 573.908H701.406ZM730.02 606.133C742.19 616.208 759.404 627.493 779.41 632.503C776.652 606.532 791.317 595.477 793.73 593.847C776.827 590.345 762.433 582.556 752.271 575.652C750.1 574.178 748.052 572.697 746.132 571.237C739.454 566.237 733.266 560.613 727.653 554.441C726.298 552.274 724.76 550.227 723.056 548.322L722.691 547.923L722.231 547.45C720.676 545.868 718.938 544.481 717.241 543.907C716.045 543.607 714.8 543.557 713.583 543.758C711.393 544.046 709.235 544.544 707.14 545.246L706.748 545.367L706.274 545.529L705.936 545.644C702.211 546.949 698.641 548.728 696.809 550.418L696.559 550.668C696.43 550.797 696.308 550.932 696.2 551.06L696.166 551.101C696.106 551.182 696.045 551.256 695.997 551.331C695.477 552.068 695.382 552.683 695.72 553.258C697.255 555.793 698.702 556.125 700.75 555.658L701.136 555.564L700.994 555.435L701.143 555.564L701.413 555.482L701.785 555.374C702.238 555.239 702.725 555.077 703.245 554.901C703.921 554.678 704.598 554.441 705.395 554.225L705.957 554.049C707.963 553.439 709.871 552.544 711.622 551.392L711.9 551.209L712.177 551.006C712.297 550.925 712.41 550.835 712.515 550.736L712.779 550.499L722.467 562.528L722.204 562.738L721.94 562.954L712.691 551.459L712.61 551.52C714.868 554.225 716.166 556.652 715.273 557.984C715.098 558.248 714.929 558.532 714.76 558.829C714.084 560.033 713.286 561.399 711.548 561.608C710.345 561.764 708.465 561.439 704.787 558.85C707.099 561.764 708.729 564.577 708.627 566.639C708.618 567.12 708.49 567.591 708.254 568.01C708.018 568.429 707.682 568.783 707.275 569.039C705.416 570.29 701.907 568.857 698.087 566.416C700.588 569.12 702.387 571.561 702.42 573.116C702.437 573.363 702.397 573.609 702.301 573.837C702.206 574.065 702.06 574.267 701.873 574.428C701.43 574.805 700.93 575.108 700.392 575.327C709.066 586.688 719.006 597.023 730.02 606.133Z" fill="#FBFBFB"/>
<path d="M831.505 559.256C818.017 559.256 807.083 548.321 807.083 534.833C807.083 521.345 818.017 510.411 831.505 510.411C844.992 510.411 855.926 521.345 855.926 534.833C855.926 548.321 844.992 559.256 831.505 559.256Z" fill="#FBFBFB"/>
</svg>
