<svg width="289" height="78" viewBox="0 0 289 78" fill="none" xmlns="http://www.w3.org/2000/svg">
<rect width="289" height="78" rx="39" fill="#F19C1C"/>
<path d="M27.75 39C27.75 41.225 28.4098 43.4001 29.646 45.2502C30.8821 47.1002 32.6391 48.5422 34.6948 49.3936C36.7505 50.2451 39.0125 50.4679 41.1948 50.0338C43.3771 49.5998 45.3816 48.5283 46.955 46.955C48.5283 45.3816 49.5998 43.3771 50.0338 41.1948C50.4679 39.0125 50.2451 36.7505 49.3936 34.6948C48.5422 32.6391 47.1002 30.8821 45.2502 29.646C43.4001 28.4098 41.225 27.75 39 27.75C35.8549 27.7618 32.8362 28.989 30.575 31.175L27.75 34" stroke="black" stroke-width="2" stroke-linecap="round" stroke-linejoin="round"/>
<path d="M27.75 27.75V34H34" stroke="black" stroke-width="2" stroke-linecap="round" stroke-linejoin="round"/>
<path d="M82.16 33.8V36.02H77.74V47H74.98V36.02H70.54V33.8H82.16ZM87.1753 33.8V47H84.4153V33.8H87.1753ZM96.4267 33.8C97.9201 33.8 99.0934 34.16 99.9467 34.88C100.8 35.6 101.227 36.5667 101.227 37.78C101.227 39.0733 100.8 40.0667 99.9467 40.76C99.0934 41.44 97.9267 41.78 96.4467 41.78L96.1667 41.94H93.3267V47H90.6067V33.8H96.4267ZM96.1067 39.84C96.8801 39.84 97.4534 39.6867 97.8267 39.38C98.2134 39.06 98.4067 38.5733 98.4067 37.92C98.4067 37.2667 98.2134 36.7867 97.8267 36.48C97.4534 36.16 96.8801 36 96.1067 36H93.3267V39.84H96.1067ZM97.7267 40.42L102.007 47H98.9067L95.3667 41.22L97.7267 40.42ZM115.66 47H112.8L111.7 43.78H106.64L105.54 47H102.72L107.54 33.8H110.84L115.66 47ZM107.26 41.74H111.08L109.16 35.98L107.26 41.74ZM123.438 33.8C124.932 33.8 126.105 34.16 126.958 34.88C127.812 35.6 128.238 36.5667 128.238 37.78C128.238 39.0733 127.812 40.0667 126.958 40.76C126.105 41.44 124.938 41.78 123.458 41.78L123.178 41.94H120.338V47H117.618V33.8H123.438ZM123.118 39.84C123.892 39.84 124.465 39.6867 124.838 39.38C125.225 39.06 125.418 38.5733 125.418 37.92C125.418 37.2667 125.225 36.7867 124.838 36.48C124.465 36.16 123.892 36 123.118 36H120.338V39.84H123.118ZM124.738 40.42L129.018 47H125.918L122.378 41.22L124.738 40.42ZM143.025 33.6C144.332 33.6 145.459 33.8733 146.405 34.42C147.352 34.9667 148.079 35.7467 148.585 36.76C149.105 37.7733 149.365 38.9867 149.365 40.4C149.365 41.8133 149.105 43.0267 148.585 44.04C148.079 45.0533 147.352 45.8333 146.405 46.38C145.459 46.9267 144.332 47.2 143.025 47.2C141.719 47.2 140.585 46.9267 139.625 46.38C138.679 45.8333 137.945 45.0533 137.425 44.04C136.919 43.0267 136.665 41.8133 136.665 40.4C136.665 38.9867 136.919 37.7733 137.425 36.76C137.945 35.7467 138.679 34.9667 139.625 34.42C140.585 33.8733 141.719 33.6 143.025 33.6ZM143.025 35.86C142.279 35.86 141.645 36.0333 141.125 36.38C140.605 36.7267 140.205 37.24 139.925 37.92C139.659 38.5867 139.525 39.4133 139.525 40.4C139.525 41.3733 139.659 42.2 139.925 42.88C140.205 43.56 140.605 44.0733 141.125 44.42C141.645 44.7667 142.279 44.94 143.025 44.94C143.759 44.94 144.385 44.7667 144.905 44.42C145.425 44.0733 145.819 43.56 146.085 42.88C146.365 42.2 146.505 41.3733 146.505 40.4C146.505 39.4133 146.365 38.5867 146.085 37.92C145.819 37.24 145.425 36.7267 144.905 36.38C144.385 36.0333 143.759 35.86 143.025 35.86ZM163.17 33.8V41.8C163.17 43.6 162.69 44.9533 161.73 45.86C160.77 46.7533 159.37 47.2 157.53 47.2C155.69 47.2 154.29 46.7533 153.33 45.86C152.37 44.9533 151.89 43.6 151.89 41.8V33.8H154.65V41.68C154.65 42.7867 154.883 43.6067 155.35 44.14C155.83 44.6733 156.556 44.94 157.53 44.94C158.503 44.94 159.223 44.6733 159.69 44.14C160.156 43.6067 160.39 42.7867 160.39 41.68V33.8H163.17ZM176.789 33.8V36.02H172.369V47H169.609V36.02H165.169V33.8H176.789ZM184.864 33.8C186.358 33.8 187.531 34.16 188.384 34.88C189.238 35.6 189.664 36.5667 189.664 37.78C189.664 39.0733 189.238 40.0667 188.384 40.76C187.531 41.44 186.364 41.78 184.884 41.78L184.604 41.94H181.764V47H179.044V33.8H184.864ZM184.544 39.84C185.318 39.84 185.891 39.6867 186.264 39.38C186.651 39.06 186.844 38.5733 186.844 37.92C186.844 37.2667 186.651 36.7867 186.264 36.48C185.891 36.16 185.318 36 184.544 36H181.764V39.84H184.544ZM186.164 40.42L190.444 47H187.344L183.804 41.22L186.164 40.42ZM204.098 47H201.238L200.138 43.78H195.078L193.978 47H191.158L195.978 33.8H199.278L204.098 47ZM195.698 41.74H199.518L197.598 35.98L195.698 41.74ZM221.483 36.02H214.363V39.38H219.983V41.6H214.363V47H211.603V33.8H221.483V36.02ZM229.412 33.6C230.719 33.6 231.846 33.8733 232.792 34.42C233.739 34.9667 234.466 35.7467 234.972 36.76C235.492 37.7733 235.752 38.9867 235.752 40.4C235.752 41.8133 235.492 43.0267 234.972 44.04C234.466 45.0533 233.739 45.8333 232.792 46.38C231.846 46.9267 230.719 47.2 229.412 47.2C228.106 47.2 226.972 46.9267 226.012 46.38C225.066 45.8333 224.332 45.0533 223.812 44.04C223.306 43.0267 223.052 41.8133 223.052 40.4C223.052 38.9867 223.306 37.7733 223.812 36.76C224.332 35.7467 225.066 34.9667 226.012 34.42C226.972 33.8733 228.106 33.6 229.412 33.6ZM229.412 35.86C228.666 35.86 228.032 36.0333 227.512 36.38C226.992 36.7267 226.592 37.24 226.312 37.92C226.046 38.5867 225.912 39.4133 225.912 40.4C225.912 41.3733 226.046 42.2 226.312 42.88C226.592 43.56 226.992 44.0733 227.512 44.42C228.032 44.7667 228.666 44.94 229.412 44.94C230.146 44.94 230.772 44.7667 231.292 44.42C231.812 44.0733 232.206 43.56 232.472 42.88C232.752 42.2 232.892 41.3733 232.892 40.4C232.892 39.4133 232.752 38.5867 232.472 37.92C232.206 37.24 231.812 36.7267 231.292 36.38C230.772 36.0333 230.146 35.86 229.412 35.86ZM248.469 33.8V36.02H244.049V47H241.289V36.02H236.849V33.8H248.469ZM255.916 33.6C257.223 33.6 258.349 33.8733 259.296 34.42C260.243 34.9667 260.969 35.7467 261.476 36.76C261.996 37.7733 262.256 38.9867 262.256 40.4C262.256 41.8133 261.996 43.0267 261.476 44.04C260.969 45.0533 260.243 45.8333 259.296 46.38C258.349 46.9267 257.223 47.2 255.916 47.2C254.609 47.2 253.476 46.9267 252.516 46.38C251.569 45.8333 250.836 45.0533 250.316 44.04C249.809 43.0267 249.556 41.8133 249.556 40.4C249.556 38.9867 249.809 37.7733 250.316 36.76C250.836 35.7467 251.569 34.9667 252.516 34.42C253.476 33.8733 254.609 33.6 255.916 33.6ZM255.916 35.86C255.169 35.86 254.536 36.0333 254.016 36.38C253.496 36.7267 253.096 37.24 252.816 37.92C252.549 38.5867 252.416 39.4133 252.416 40.4C252.416 41.3733 252.549 42.2 252.816 42.88C253.096 43.56 253.496 44.0733 254.016 44.42C254.536 44.7667 255.169 44.94 255.916 44.94C256.649 44.94 257.276 44.7667 257.796 44.42C258.316 44.0733 258.709 43.56 258.976 42.88C259.256 42.2 259.396 41.3733 259.396 40.4C259.396 39.4133 259.256 38.5867 258.976 37.92C258.709 37.24 258.316 36.7267 257.796 36.38C257.276 36.0333 256.649 35.86 255.916 35.86Z" fill="#1F1F1F"/>
</svg>
