<svg width="538" height="60" viewBox="0 0 538 60" fill="none" xmlns="http://www.w3.org/2000/svg">
<path d="M20 46.6668C29.2047 46.6668 36.6667 39.2049 36.6667 30.0002C36.6667 20.7954 29.2047 13.3335 20 13.3335C10.7953 13.3335 3.33333 20.7954 3.33333 30.0002C3.33333 39.2049 10.7953 46.6668 20 46.6668Z" fill="#FF9700" stroke="#FF9700" stroke-width="2" stroke-linecap="round" stroke-linejoin="round"/>
<path d="M20 23.3335V30.0002" stroke="white" stroke-width="2" stroke-linecap="round" stroke-linejoin="round"/>
<path d="M20 36.6665H20.0158" stroke="white" stroke-width="2" stroke-linecap="round" stroke-linejoin="round"/>
<path d="M65.88 19.16H60.06L59.06 22H56.68L61.66 8.08H64.3L69.28 22H66.88L65.88 19.16ZM65.24 17.3L62.98 10.84L60.7 17.3H65.24ZM76.2253 22.18C75.1853 22.18 74.2453 21.9467 73.4053 21.48C72.5653 21 71.9053 20.3333 71.4253 19.48C70.9453 18.6133 70.7053 17.6133 70.7053 16.48C70.7053 15.36 70.952 14.3667 71.4453 13.5C71.9386 12.6333 72.612 11.9667 73.4653 11.5C74.3186 11.0333 75.272 10.8 76.3253 10.8C77.3786 10.8 78.332 11.0333 79.1853 11.5C80.0386 11.9667 80.712 12.6333 81.2053 13.5C81.6986 14.3667 81.9453 15.36 81.9453 16.48C81.9453 17.6 81.692 18.5933 81.1853 19.46C80.6786 20.3267 79.9853 21 79.1053 21.48C78.2386 21.9467 77.2786 22.18 76.2253 22.18ZM76.2253 20.2C76.812 20.2 77.3586 20.06 77.8653 19.78C78.3853 19.5 78.8053 19.08 79.1253 18.52C79.4453 17.96 79.6053 17.28 79.6053 16.48C79.6053 15.68 79.452 15.0067 79.1453 14.46C78.8386 13.9 78.432 13.48 77.9253 13.2C77.4186 12.92 76.872 12.78 76.2853 12.78C75.6986 12.78 75.152 12.92 74.6453 13.2C74.152 13.48 73.7586 13.9 73.4653 14.46C73.172 15.0067 73.0253 15.68 73.0253 16.48C73.0253 17.6667 73.3253 18.5867 73.9253 19.24C74.5386 19.88 75.3053 20.2 76.2253 20.2ZM92.0545 12.84V18.94C92.0545 19.3533 92.1479 19.6533 92.3345 19.84C92.5345 20.0133 92.8679 20.1 93.3345 20.1H94.7345V22H92.9345C91.9079 22 91.1212 21.76 90.5745 21.28C90.0279 20.8 89.7545 20.02 89.7545 18.94V12.84H88.4545V10.98H89.7545V8.24H92.0545V10.98H94.7345V12.84H92.0545ZM97.9959 9.52C97.5826 9.52 97.2359 9.38 96.9559 9.1C96.6759 8.82 96.5359 8.47333 96.5359 8.06C96.5359 7.64667 96.6759 7.3 96.9559 7.02C97.2359 6.74 97.5826 6.6 97.9959 6.6C98.3959 6.6 98.7359 6.74 99.0159 7.02C99.2959 7.3 99.4359 7.64667 99.4359 8.06C99.4359 8.47333 99.2959 8.82 99.0159 9.1C98.7359 9.38 98.3959 9.52 97.9959 9.52ZM99.1159 10.98V22H96.8359V10.98H99.1159ZM104.389 12.58C104.723 12.02 105.163 11.5867 105.709 11.28C106.269 10.96 106.929 10.8 107.689 10.8V13.16H107.109C106.216 13.16 105.536 13.3867 105.069 13.84C104.616 14.2933 104.389 15.08 104.389 16.2V22H102.109V10.98H104.389V12.58ZM109.025 16.44C109.025 15.3333 109.252 14.3533 109.705 13.5C110.172 12.6467 110.798 11.9867 111.585 11.52C112.385 11.04 113.265 10.8 114.225 10.8C115.092 10.8 115.845 10.9733 116.485 11.32C117.138 11.6533 117.658 12.0733 118.045 12.58V10.98H120.345V22H118.045V20.36C117.658 20.88 117.132 21.3133 116.465 21.66C115.798 22.0067 115.038 22.18 114.185 22.18C113.238 22.18 112.372 21.94 111.585 21.46C110.798 20.9667 110.172 20.2867 109.705 19.42C109.252 18.54 109.025 17.5467 109.025 16.44ZM118.045 16.48C118.045 15.72 117.885 15.06 117.565 14.5C117.258 13.94 116.852 13.5133 116.345 13.22C115.838 12.9267 115.292 12.78 114.705 12.78C114.118 12.78 113.572 12.9267 113.065 13.22C112.558 13.5 112.145 13.92 111.825 14.48C111.518 15.0267 111.365 15.68 111.365 16.44C111.365 17.2 111.518 17.8667 111.825 18.44C112.145 19.0133 112.558 19.4533 113.065 19.76C113.585 20.0533 114.132 20.2 114.705 20.2C115.292 20.2 115.838 20.0533 116.345 19.76C116.852 19.4667 117.258 19.04 117.565 18.48C117.885 17.9067 118.045 17.24 118.045 16.48ZM125.62 12.58C125.953 12.02 126.393 11.5867 126.94 11.28C127.5 10.96 128.16 10.8 128.92 10.8V13.16H128.34C127.447 13.16 126.767 13.3867 126.3 13.84C125.847 14.2933 125.62 15.08 125.62 16.2V22H123.34V10.98H125.62V12.58ZM135.451 16.44C135.451 15.3333 135.678 14.3533 136.131 13.5C136.598 12.6467 137.224 11.9867 138.011 11.52C138.811 11.04 139.691 10.8 140.651 10.8C141.518 10.8 142.271 10.9733 142.911 11.32C143.564 11.6533 144.084 12.0733 144.471 12.58V10.98H146.771V22H144.471V20.36C144.084 20.88 143.558 21.3133 142.891 21.66C142.224 22.0067 141.464 22.18 140.611 22.18C139.664 22.18 138.798 21.94 138.011 21.46C137.224 20.9667 136.598 20.2867 136.131 19.42C135.678 18.54 135.451 17.5467 135.451 16.44ZM144.471 16.48C144.471 15.72 144.311 15.06 143.991 14.5C143.684 13.94 143.278 13.5133 142.771 13.22C142.264 12.9267 141.718 12.78 141.131 12.78C140.544 12.78 139.998 12.9267 139.491 13.22C138.984 13.5 138.571 13.92 138.251 14.48C137.944 15.0267 137.791 15.68 137.791 16.44C137.791 17.2 137.944 17.8667 138.251 18.44C138.571 19.0133 138.984 19.4533 139.491 19.76C140.011 20.0533 140.558 20.2 141.131 20.2C141.718 20.2 142.264 20.0533 142.771 19.76C143.278 19.4667 143.684 19.04 143.991 18.48C144.311 17.9067 144.471 17.24 144.471 16.48ZM159.581 12.84H157.541V22H155.241V12.84H153.941V10.98H155.241V10.2C155.241 8.93333 155.574 8.01333 156.241 7.44C156.921 6.85333 157.981 6.56 159.421 6.56V8.46C158.728 8.46 158.241 8.59333 157.961 8.86C157.681 9.11333 157.541 9.56 157.541 10.2V10.98H159.581V12.84ZM166.382 22.18C165.342 22.18 164.402 21.9467 163.562 21.48C162.722 21 162.062 20.3333 161.582 19.48C161.102 18.6133 160.862 17.6133 160.862 16.48C160.862 15.36 161.108 14.3667 161.602 13.5C162.095 12.6333 162.768 11.9667 163.622 11.5C164.475 11.0333 165.428 10.8 166.482 10.8C167.535 10.8 168.488 11.0333 169.342 11.5C170.195 11.9667 170.868 12.6333 171.362 13.5C171.855 14.3667 172.102 15.36 172.102 16.48C172.102 17.6 171.848 18.5933 171.342 19.46C170.835 20.3267 170.142 21 169.262 21.48C168.395 21.9467 167.435 22.18 166.382 22.18ZM166.382 20.2C166.968 20.2 167.515 20.06 168.022 19.78C168.542 19.5 168.962 19.08 169.282 18.52C169.602 17.96 169.762 17.28 169.762 16.48C169.762 15.68 169.608 15.0067 169.302 14.46C168.995 13.9 168.588 13.48 168.082 13.2C167.575 12.92 167.028 12.78 166.442 12.78C165.855 12.78 165.308 12.92 164.802 13.2C164.308 13.48 163.915 13.9 163.622 14.46C163.328 15.0067 163.182 15.68 163.182 16.48C163.182 17.6667 163.482 18.5867 164.082 19.24C164.695 19.88 165.462 20.2 166.382 20.2ZM177.015 12.84V18.94C177.015 19.3533 177.109 19.6533 177.295 19.84C177.495 20.0133 177.829 20.1 178.295 20.1H179.695V22H177.895C176.869 22 176.082 21.76 175.535 21.28C174.989 20.8 174.715 20.02 174.715 18.94V12.84H173.415V10.98H174.715V8.24H177.015V10.98H179.695V12.84H177.015ZM186.577 22.18C185.537 22.18 184.597 21.9467 183.757 21.48C182.917 21 182.257 20.3333 181.777 19.48C181.297 18.6133 181.057 17.6133 181.057 16.48C181.057 15.36 181.304 14.3667 181.797 13.5C182.29 12.6333 182.964 11.9667 183.817 11.5C184.67 11.0333 185.624 10.8 186.677 10.8C187.73 10.8 188.684 11.0333 189.537 11.5C190.39 11.9667 191.064 12.6333 191.557 13.5C192.05 14.3667 192.297 15.36 192.297 16.48C192.297 17.6 192.044 18.5933 191.537 19.46C191.03 20.3267 190.337 21 189.457 21.48C188.59 21.9467 187.63 22.18 186.577 22.18ZM186.577 20.2C187.164 20.2 187.71 20.06 188.217 19.78C188.737 19.5 189.157 19.08 189.477 18.52C189.797 17.96 189.957 17.28 189.957 16.48C189.957 15.68 189.804 15.0067 189.497 14.46C189.19 13.9 188.784 13.48 188.277 13.2C187.77 12.92 187.224 12.78 186.637 12.78C186.05 12.78 185.504 12.92 184.997 13.2C184.504 13.48 184.11 13.9 183.817 14.46C183.524 15.0067 183.377 15.68 183.377 16.48C183.377 17.6667 183.677 18.5867 184.277 19.24C184.89 19.88 185.657 20.2 186.577 20.2ZM197.051 19.26L194.631 24.78H193.151L194.571 19.26H197.051ZM208.498 19.96L211.618 10.98H214.038L209.838 22H207.118L202.938 10.98H205.378L208.498 19.96ZM220.542 22.18C219.502 22.18 218.562 21.9467 217.722 21.48C216.882 21 216.222 20.3333 215.742 19.48C215.262 18.6133 215.022 17.6133 215.022 16.48C215.022 15.36 215.268 14.3667 215.762 13.5C216.255 12.6333 216.928 11.9667 217.782 11.5C218.635 11.0333 219.588 10.8 220.642 10.8C221.695 10.8 222.648 11.0333 223.502 11.5C224.355 11.9667 225.028 12.6333 225.522 13.5C226.015 14.3667 226.262 15.36 226.262 16.48C226.262 17.6 226.008 18.5933 225.502 19.46C224.995 20.3267 224.302 21 223.422 21.48C222.555 21.9467 221.595 22.18 220.542 22.18ZM220.542 20.2C221.128 20.2 221.675 20.06 222.182 19.78C222.702 19.5 223.122 19.08 223.442 18.52C223.762 17.96 223.922 17.28 223.922 16.48C223.922 15.68 223.768 15.0067 223.462 14.46C223.155 13.9 222.748 13.48 222.242 13.2C221.735 12.92 221.188 12.78 220.602 12.78C220.015 12.78 219.468 12.92 218.962 13.2C218.468 13.48 218.075 13.9 217.782 14.46C217.488 15.0067 217.342 15.68 217.342 16.48C217.342 17.6667 217.642 18.5867 218.242 19.24C218.855 19.88 219.622 20.2 220.542 20.2ZM227.756 16.48C227.756 15.3467 227.982 14.3533 228.436 13.5C228.902 12.6333 229.542 11.9667 230.356 11.5C231.169 11.0333 232.102 10.8 233.156 10.8C234.489 10.8 235.589 11.12 236.456 11.76C237.336 12.3867 237.929 13.2867 238.236 14.46H235.776C235.576 13.9133 235.256 13.4867 234.816 13.18C234.376 12.8733 233.822 12.72 233.156 12.72C232.222 12.72 231.476 13.0533 230.916 13.72C230.369 14.3733 230.096 15.2933 230.096 16.48C230.096 17.6667 230.369 18.5933 230.916 19.26C231.476 19.9267 232.222 20.26 233.156 20.26C234.476 20.26 235.349 19.68 235.776 18.52H238.236C237.916 19.64 237.316 20.5333 236.436 21.2C235.556 21.8533 234.462 22.18 233.156 22.18C232.102 22.18 231.169 21.9467 230.356 21.48C229.542 21 228.902 20.3333 228.436 19.48C227.982 18.6133 227.756 17.6133 227.756 16.48ZM250.608 16.22C250.608 16.6333 250.581 17.0067 250.528 17.34H242.108C242.174 18.22 242.501 18.9267 243.088 19.46C243.674 19.9933 244.394 20.26 245.248 20.26C246.474 20.26 247.341 19.7467 247.848 18.72H250.308C249.974 19.7333 249.368 20.5667 248.488 21.22C247.621 21.86 246.541 22.18 245.248 22.18C244.194 22.18 243.248 21.9467 242.408 21.48C241.581 21 240.928 20.3333 240.448 19.48C239.981 18.6133 239.748 17.6133 239.748 16.48C239.748 15.3467 239.974 14.3533 240.428 13.5C240.894 12.6333 241.541 11.9667 242.368 11.5C243.208 11.0333 244.168 10.8 245.248 10.8C246.288 10.8 247.214 11.0267 248.028 11.48C248.841 11.9333 249.474 12.5733 249.928 13.4C250.381 14.2133 250.608 15.1533 250.608 16.22ZM248.228 15.5C248.214 14.66 247.914 13.9867 247.328 13.48C246.741 12.9733 246.014 12.72 245.148 12.72C244.361 12.72 243.688 12.9733 243.128 13.48C242.568 13.9733 242.234 14.6467 242.128 15.5H248.228ZM245.188 8.48L242.328 10.2V8.42L245.188 6.76L248.048 8.42V10.2L245.188 8.48ZM257.287 16.48C257.287 15.3467 257.514 14.3533 257.967 13.5C258.434 12.6333 259.074 11.9667 259.887 11.5C260.7 11.0333 261.634 10.8 262.687 10.8C264.02 10.8 265.12 11.12 265.987 11.76C266.867 12.3867 267.46 13.2867 267.767 14.46H265.307C265.107 13.9133 264.787 13.4867 264.347 13.18C263.907 12.8733 263.354 12.72 262.687 12.72C261.754 12.72 261.007 13.0533 260.447 13.72C259.9 14.3733 259.627 15.2933 259.627 16.48C259.627 17.6667 259.9 18.5933 260.447 19.26C261.007 19.9267 261.754 20.26 262.687 20.26C264.007 20.26 264.88 19.68 265.307 18.52H267.767C267.447 19.64 266.847 20.5333 265.967 21.2C265.087 21.8533 263.994 22.18 262.687 22.18C261.634 22.18 260.7 21.9467 259.887 21.48C259.074 21 258.434 20.3333 257.967 19.48C257.514 18.6133 257.287 17.6133 257.287 16.48ZM274.819 22.18C273.779 22.18 272.839 21.9467 271.999 21.48C271.159 21 270.499 20.3333 270.019 19.48C269.539 18.6133 269.299 17.6133 269.299 16.48C269.299 15.36 269.546 14.3667 270.039 13.5C270.532 12.6333 271.206 11.9667 272.059 11.5C272.912 11.0333 273.866 10.8 274.919 10.8C275.972 10.8 276.926 11.0333 277.779 11.5C278.632 11.9667 279.306 12.6333 279.799 13.5C280.292 14.3667 280.539 15.36 280.539 16.48C280.539 17.6 280.286 18.5933 279.779 19.46C279.272 20.3267 278.579 21 277.699 21.48C276.832 21.9467 275.872 22.18 274.819 22.18ZM274.819 20.2C275.406 20.2 275.952 20.06 276.459 19.78C276.979 19.5 277.399 19.08 277.719 18.52C278.039 17.96 278.199 17.28 278.199 16.48C278.199 15.68 278.046 15.0067 277.739 14.46C277.432 13.9 277.026 13.48 276.519 13.2C276.012 12.92 275.466 12.78 274.879 12.78C274.292 12.78 273.746 12.92 273.239 13.2C272.746 13.48 272.352 13.9 272.059 14.46C271.766 15.0067 271.619 15.68 271.619 16.48C271.619 17.6667 271.919 18.5867 272.519 19.24C273.132 19.88 273.899 20.2 274.819 20.2ZM288.353 10.8C289.22 10.8 289.993 10.98 290.673 11.34C291.366 11.7 291.906 12.2333 292.293 12.94C292.68 13.6467 292.873 14.5 292.873 15.5V22H290.613V15.84C290.613 14.8533 290.366 14.1 289.873 13.58C289.38 13.0467 288.706 12.78 287.853 12.78C287 12.78 286.32 13.0467 285.813 13.58C285.32 14.1 285.073 14.8533 285.073 15.84V22H282.793V10.98H285.073V12.24C285.446 11.7867 285.92 11.4333 286.493 11.18C287.08 10.9267 287.7 10.8 288.353 10.8ZM295.021 16.48C295.021 15.3467 295.248 14.3533 295.701 13.5C296.168 12.6333 296.808 11.9667 297.621 11.5C298.435 11.0333 299.368 10.8 300.421 10.8C301.755 10.8 302.855 11.12 303.721 11.76C304.601 12.3867 305.195 13.2867 305.501 14.46H303.041C302.841 13.9133 302.521 13.4867 302.081 13.18C301.641 12.8733 301.088 12.72 300.421 12.72C299.488 12.72 298.741 13.0533 298.181 13.72C297.635 14.3733 297.361 15.2933 297.361 16.48C297.361 17.6667 297.635 18.5933 298.181 19.26C298.741 19.9267 299.488 20.26 300.421 20.26C301.741 20.26 302.615 19.68 303.041 18.52H305.501C305.181 19.64 304.581 20.5333 303.701 21.2C302.821 21.8533 301.728 22.18 300.421 22.18C299.368 22.18 298.435 21.9467 297.621 21.48C296.808 21 296.168 20.3333 295.701 19.48C295.248 18.6133 295.021 17.6133 295.021 16.48ZM312.553 22.18C311.513 22.18 310.573 21.9467 309.733 21.48C308.893 21 308.233 20.3333 307.753 19.48C307.273 18.6133 307.033 17.6133 307.033 16.48C307.033 15.36 307.28 14.3667 307.773 13.5C308.267 12.6333 308.94 11.9667 309.793 11.5C310.647 11.0333 311.6 10.8 312.653 10.8C313.707 10.8 314.66 11.0333 315.513 11.5C316.367 11.9667 317.04 12.6333 317.533 13.5C318.027 14.3667 318.273 15.36 318.273 16.48C318.273 17.6 318.02 18.5933 317.513 19.46C317.007 20.3267 316.313 21 315.433 21.48C314.567 21.9467 313.607 22.18 312.553 22.18ZM312.553 20.2C313.14 20.2 313.687 20.06 314.193 19.78C314.713 19.5 315.133 19.08 315.453 18.52C315.773 17.96 315.933 17.28 315.933 16.48C315.933 15.68 315.78 15.0067 315.473 14.46C315.167 13.9 314.76 13.48 314.253 13.2C313.747 12.92 313.2 12.78 312.613 12.78C312.027 12.78 311.48 12.92 310.973 13.2C310.48 13.48 310.087 13.9 309.793 14.46C309.5 15.0067 309.353 15.68 309.353 16.48C309.353 17.6667 309.653 18.5867 310.253 19.24C310.867 19.88 311.633 20.2 312.553 20.2ZM322.807 12.58C323.141 12.02 323.581 11.5867 324.127 11.28C324.687 10.96 325.347 10.8 326.107 10.8V13.16H325.527C324.634 13.16 323.954 13.3867 323.487 13.84C323.034 14.2933 322.807 15.08 322.807 16.2V22H320.527V10.98H322.807V12.58ZM327.443 16.44C327.443 15.3333 327.67 14.3533 328.123 13.5C328.59 12.6467 329.216 11.9867 330.003 11.52C330.803 11.04 331.69 10.8 332.663 10.8C333.383 10.8 334.09 10.96 334.783 11.28C335.49 11.5867 336.05 12 336.463 12.52V7.2H338.763V22H336.463V20.34C336.09 20.8733 335.57 21.3133 334.903 21.66C334.25 22.0067 333.496 22.18 332.643 22.18C331.683 22.18 330.803 21.94 330.003 21.46C329.216 20.9667 328.59 20.2867 328.123 19.42C327.67 18.54 327.443 17.5467 327.443 16.44ZM336.463 16.48C336.463 15.72 336.303 15.06 335.983 14.5C335.676 13.94 335.27 13.5133 334.763 13.22C334.256 12.9267 333.71 12.78 333.123 12.78C332.536 12.78 331.99 12.9267 331.483 13.22C330.976 13.5 330.563 13.92 330.243 14.48C329.936 15.0267 329.783 15.68 329.783 16.44C329.783 17.2 329.936 17.8667 330.243 18.44C330.563 19.0133 330.976 19.4533 331.483 19.76C332.003 20.0533 332.55 20.2 333.123 20.2C333.71 20.2 334.256 20.0533 334.763 19.76C335.27 19.4667 335.676 19.04 335.983 18.48C336.303 17.9067 336.463 17.24 336.463 16.48ZM340.998 16.44C340.998 15.3333 341.224 14.3533 341.678 13.5C342.144 12.6467 342.771 11.9867 343.558 11.52C344.358 11.04 345.238 10.8 346.198 10.8C347.064 10.8 347.818 10.9733 348.458 11.32C349.111 11.6533 349.631 12.0733 350.018 12.58V10.98H352.318V22H350.018V20.36C349.631 20.88 349.104 21.3133 348.438 21.66C347.771 22.0067 347.011 22.18 346.158 22.18C345.211 22.18 344.344 21.94 343.558 21.46C342.771 20.9667 342.144 20.2867 341.678 19.42C341.224 18.54 340.998 17.5467 340.998 16.44ZM350.018 16.48C350.018 15.72 349.858 15.06 349.538 14.5C349.231 13.94 348.824 13.5133 348.318 13.22C347.811 12.9267 347.264 12.78 346.678 12.78C346.091 12.78 345.544 12.9267 345.038 13.22C344.531 13.5 344.118 13.92 343.798 14.48C343.491 15.0267 343.338 15.68 343.338 16.44C343.338 17.2 343.491 17.8667 343.798 18.44C344.118 19.0133 344.531 19.4533 345.038 19.76C345.558 20.0533 346.104 20.2 346.678 20.2C347.264 20.2 347.811 20.0533 348.318 19.76C348.824 19.4667 349.231 19.04 349.538 18.48C349.858 17.9067 350.018 17.24 350.018 16.48ZM359.748 16.48C359.748 15.3467 359.974 14.3533 360.428 13.5C360.894 12.6333 361.534 11.9667 362.348 11.5C363.161 11.0333 364.094 10.8 365.148 10.8C366.481 10.8 367.581 11.12 368.448 11.76C369.328 12.3867 369.921 13.2867 370.228 14.46H367.768C367.568 13.9133 367.248 13.4867 366.808 13.18C366.368 12.8733 365.814 12.72 365.148 12.72C364.214 12.72 363.468 13.0533 362.908 13.72C362.361 14.3733 362.088 15.2933 362.088 16.48C362.088 17.6667 362.361 18.5933 362.908 19.26C363.468 19.9267 364.214 20.26 365.148 20.26C366.468 20.26 367.341 19.68 367.768 18.52H370.228C369.908 19.64 369.308 20.5333 368.428 21.2C367.548 21.8533 366.454 22.18 365.148 22.18C364.094 22.18 363.161 21.9467 362.348 21.48C361.534 21 360.894 20.3333 360.428 19.48C359.974 18.6133 359.748 17.6133 359.748 16.48ZM377.28 22.18C376.24 22.18 375.3 21.9467 374.46 21.48C373.62 21 372.96 20.3333 372.48 19.48C372 18.6133 371.76 17.6133 371.76 16.48C371.76 15.36 372.007 14.3667 372.5 13.5C372.993 12.6333 373.667 11.9667 374.52 11.5C375.373 11.0333 376.327 10.8 377.38 10.8C378.433 10.8 379.387 11.0333 380.24 11.5C381.093 11.9667 381.767 12.6333 382.26 13.5C382.753 14.3667 383 15.36 383 16.48C383 17.6 382.747 18.5933 382.24 19.46C381.733 20.3267 381.04 21 380.16 21.48C379.293 21.9467 378.333 22.18 377.28 22.18ZM377.28 20.2C377.867 20.2 378.413 20.06 378.92 19.78C379.44 19.5 379.86 19.08 380.18 18.52C380.5 17.96 380.66 17.28 380.66 16.48C380.66 15.68 380.507 15.0067 380.2 14.46C379.893 13.9 379.487 13.48 378.98 13.2C378.473 12.92 377.927 12.78 377.34 12.78C376.753 12.78 376.207 12.92 375.7 13.2C375.207 13.48 374.813 13.9 374.52 14.46C374.227 15.0067 374.08 15.68 374.08 16.48C374.08 17.6667 374.38 18.5867 374.98 19.24C375.593 19.88 376.36 20.2 377.28 20.2ZM398.594 10.8C399.461 10.8 400.234 10.98 400.914 11.34C401.607 11.7 402.147 12.2333 402.534 12.94C402.934 13.6467 403.134 14.5 403.134 15.5V22H400.874V15.84C400.874 14.8533 400.627 14.1 400.134 13.58C399.641 13.0467 398.967 12.78 398.114 12.78C397.261 12.78 396.581 13.0467 396.074 13.58C395.581 14.1 395.334 14.8533 395.334 15.84V22H393.074V15.84C393.074 14.8533 392.827 14.1 392.334 13.58C391.841 13.0467 391.167 12.78 390.314 12.78C389.461 12.78 388.781 13.0467 388.274 13.58C387.781 14.1 387.534 14.8533 387.534 15.84V22H385.254V10.98H387.534V12.24C387.907 11.7867 388.381 11.4333 388.954 11.18C389.527 10.9267 390.141 10.8 390.794 10.8C391.674 10.8 392.461 10.9867 393.154 11.36C393.847 11.7333 394.381 12.2733 394.754 12.98C395.087 12.3133 395.607 11.7867 396.314 11.4C397.021 11 397.781 10.8 398.594 10.8ZM416.01 22.18C414.97 22.18 414.03 21.9467 413.19 21.48C412.35 21 411.69 20.3333 411.21 19.48C410.73 18.6133 410.49 17.6133 410.49 16.48C410.49 15.36 410.737 14.3667 411.23 13.5C411.724 12.6333 412.397 11.9667 413.25 11.5C414.104 11.0333 415.057 10.8 416.11 10.8C417.164 10.8 418.117 11.0333 418.97 11.5C419.824 11.9667 420.497 12.6333 420.99 13.5C421.484 14.3667 421.73 15.36 421.73 16.48C421.73 17.6 421.477 18.5933 420.97 19.46C420.464 20.3267 419.77 21 418.89 21.48C418.024 21.9467 417.064 22.18 416.01 22.18ZM416.01 20.2C416.597 20.2 417.144 20.06 417.65 19.78C418.17 19.5 418.59 19.08 418.91 18.52C419.23 17.96 419.39 17.28 419.39 16.48C419.39 15.68 419.237 15.0067 418.93 14.46C418.624 13.9 418.217 13.48 417.71 13.2C417.204 12.92 416.657 12.78 416.07 12.78C415.484 12.78 414.937 12.92 414.43 13.2C413.937 13.48 413.544 13.9 413.25 14.46C412.957 15.0067 412.81 15.68 412.81 16.48C412.81 17.6667 413.11 18.5867 413.71 19.24C414.324 19.88 415.09 20.2 416.01 20.2ZM439.16 10.98V22H436.88V20.7C436.52 21.1533 436.046 21.5133 435.46 21.78C434.886 22.0333 434.273 22.16 433.62 22.16C432.753 22.16 431.973 21.98 431.28 21.62C430.6 21.26 430.06 20.7267 429.66 20.02C429.273 19.3133 429.08 18.46 429.08 17.46V10.98H431.34V17.12C431.34 18.1067 431.586 18.8667 432.08 19.4C432.573 19.92 433.246 20.18 434.1 20.18C434.953 20.18 435.626 19.92 436.12 19.4C436.626 18.8667 436.88 18.1067 436.88 17.12V10.98H439.16ZM446.168 22.18C445.301 22.18 444.521 22.0267 443.828 21.72C443.148 21.4 442.608 20.9733 442.208 20.44C441.808 19.8933 441.595 19.2867 441.568 18.62H443.928C443.968 19.0867 444.188 19.48 444.588 19.8C445.001 20.1067 445.515 20.26 446.128 20.26C446.768 20.26 447.261 20.14 447.608 19.9C447.968 19.6467 448.148 19.3267 448.148 18.94C448.148 18.5267 447.948 18.22 447.548 18.02C447.161 17.82 446.541 17.6 445.688 17.36C444.861 17.1333 444.188 16.9133 443.668 16.7C443.148 16.4867 442.695 16.16 442.308 15.72C441.935 15.28 441.748 14.7 441.748 13.98C441.748 13.3933 441.921 12.86 442.268 12.38C442.615 11.8867 443.108 11.5 443.748 11.22C444.401 10.94 445.148 10.8 445.988 10.8C447.241 10.8 448.248 11.12 449.008 11.76C449.781 12.3867 450.195 13.2467 450.248 14.34H447.968C447.928 13.8467 447.728 13.4533 447.368 13.16C447.008 12.8667 446.521 12.72 445.908 12.72C445.308 12.72 444.848 12.8333 444.528 13.06C444.208 13.2867 444.048 13.5867 444.048 13.96C444.048 14.2533 444.155 14.5 444.368 14.7C444.581 14.9 444.841 15.06 445.148 15.18C445.455 15.2867 445.908 15.4267 446.508 15.6C447.308 15.8133 447.961 16.0333 448.468 16.26C448.988 16.4733 449.435 16.7933 449.808 17.22C450.181 17.6467 450.375 18.2133 450.388 18.92C450.388 19.5467 450.215 20.1067 449.868 20.6C449.521 21.0933 449.028 21.48 448.388 21.76C447.761 22.04 447.021 22.18 446.168 22.18ZM457.632 22.18C456.592 22.18 455.652 21.9467 454.812 21.48C453.972 21 453.312 20.3333 452.832 19.48C452.352 18.6133 452.112 17.6133 452.112 16.48C452.112 15.36 452.358 14.3667 452.852 13.5C453.345 12.6333 454.018 11.9667 454.872 11.5C455.725 11.0333 456.678 10.8 457.732 10.8C458.785 10.8 459.738 11.0333 460.592 11.5C461.445 11.9667 462.118 12.6333 462.612 13.5C463.105 14.3667 463.352 15.36 463.352 16.48C463.352 17.6 463.098 18.5933 462.592 19.46C462.085 20.3267 461.392 21 460.512 21.48C459.645 21.9467 458.685 22.18 457.632 22.18ZM457.632 20.2C458.218 20.2 458.765 20.06 459.272 19.78C459.792 19.5 460.212 19.08 460.532 18.52C460.852 17.96 461.012 17.28 461.012 16.48C461.012 15.68 460.858 15.0067 460.552 14.46C460.245 13.9 459.838 13.48 459.332 13.2C458.825 12.92 458.278 12.78 457.692 12.78C457.105 12.78 456.558 12.92 456.052 13.2C455.558 13.48 455.165 13.9 454.872 14.46C454.578 15.0067 454.432 15.68 454.432 16.48C454.432 17.6667 454.732 18.5867 455.332 19.24C455.945 19.88 456.712 20.2 457.632 20.2ZM470.041 16.44C470.041 15.3333 470.267 14.3533 470.721 13.5C471.187 12.6467 471.814 11.9867 472.601 11.52C473.401 11.04 474.287 10.8 475.261 10.8C475.981 10.8 476.687 10.96 477.381 11.28C478.087 11.5867 478.647 12 479.061 12.52V7.2H481.361V22H479.061V20.34C478.687 20.8733 478.167 21.3133 477.501 21.66C476.847 22.0067 476.094 22.18 475.241 22.18C474.281 22.18 473.401 21.94 472.601 21.46C471.814 20.9667 471.187 20.2867 470.721 19.42C470.267 18.54 470.041 17.5467 470.041 16.44ZM479.061 16.48C479.061 15.72 478.901 15.06 478.581 14.5C478.274 13.94 477.867 13.5133 477.361 13.22C476.854 12.9267 476.307 12.78 475.721 12.78C475.134 12.78 474.587 12.9267 474.081 13.22C473.574 13.5 473.161 13.92 472.841 14.48C472.534 15.0267 472.381 15.68 472.381 16.44C472.381 17.2 472.534 17.8667 472.841 18.44C473.161 19.0133 473.574 19.4533 474.081 19.76C474.601 20.0533 475.147 20.2 475.721 20.2C476.307 20.2 476.854 20.0533 477.361 19.76C477.867 19.4667 478.274 19.04 478.581 18.48C478.901 17.9067 479.061 17.24 479.061 16.48ZM494.455 16.22C494.455 16.6333 494.429 17.0067 494.375 17.34H485.955C486.022 18.22 486.349 18.9267 486.935 19.46C487.522 19.9933 488.242 20.26 489.095 20.26C490.322 20.26 491.189 19.7467 491.695 18.72H494.155C493.822 19.7333 493.215 20.5667 492.335 21.22C491.469 21.86 490.389 22.18 489.095 22.18C488.042 22.18 487.095 21.9467 486.255 21.48C485.429 21 484.775 20.3333 484.295 19.48C483.829 18.6133 483.595 17.6133 483.595 16.48C483.595 15.3467 483.822 14.3533 484.275 13.5C484.742 12.6333 485.389 11.9667 486.215 11.5C487.055 11.0333 488.015 10.8 489.095 10.8C490.135 10.8 491.062 11.0267 491.875 11.48C492.689 11.9333 493.322 12.5733 493.775 13.4C494.229 14.2133 494.455 15.1533 494.455 16.22ZM492.075 15.5C492.062 14.66 491.762 13.9867 491.175 13.48C490.589 12.9733 489.862 12.72 488.995 12.72C488.209 12.72 487.535 12.9733 486.975 13.48C486.415 13.9733 486.082 14.6467 485.975 15.5H492.075ZM505.895 22.18C505.028 22.18 504.248 22.0267 503.555 21.72C502.875 21.4 502.335 20.9733 501.935 20.44C501.535 19.8933 501.321 19.2867 501.295 18.62H503.655C503.695 19.0867 503.915 19.48 504.315 19.8C504.728 20.1067 505.241 20.26 505.855 20.26C506.495 20.26 506.988 20.14 507.335 19.9C507.695 19.6467 507.875 19.3267 507.875 18.94C507.875 18.5267 507.675 18.22 507.275 18.02C506.888 17.82 506.268 17.6 505.415 17.36C504.588 17.1333 503.915 16.9133 503.395 16.7C502.875 16.4867 502.421 16.16 502.035 15.72C501.661 15.28 501.475 14.7 501.475 13.98C501.475 13.3933 501.648 12.86 501.995 12.38C502.341 11.8867 502.835 11.5 503.475 11.22C504.128 10.94 504.875 10.8 505.715 10.8C506.968 10.8 507.975 11.12 508.735 11.76C509.508 12.3867 509.921 13.2467 509.975 14.34H507.695C507.655 13.8467 507.455 13.4533 507.095 13.16C506.735 12.8667 506.248 12.72 505.635 12.72C505.035 12.72 504.575 12.8333 504.255 13.06C503.935 13.2867 503.775 13.5867 503.775 13.96C503.775 14.2533 503.881 14.5 504.095 14.7C504.308 14.9 504.568 15.06 504.875 15.18C505.181 15.2867 505.635 15.4267 506.235 15.6C507.035 15.8133 507.688 16.0333 508.195 16.26C508.715 16.4733 509.161 16.7933 509.535 17.22C509.908 17.6467 510.101 18.2133 510.115 18.92C510.115 19.5467 509.941 20.1067 509.595 20.6C509.248 21.0933 508.755 21.48 508.115 21.76C507.488 22.04 506.748 22.18 505.895 22.18ZM522.558 10.98V22H520.278V20.7C519.918 21.1533 519.445 21.5133 518.858 21.78C518.285 22.0333 517.671 22.16 517.018 22.16C516.151 22.16 515.371 21.98 514.678 21.62C513.998 21.26 513.458 20.7267 513.058 20.02C512.671 19.3133 512.478 18.46 512.478 17.46V10.98H514.738V17.12C514.738 18.1067 514.985 18.8667 515.478 19.4C515.971 19.92 516.645 20.18 517.498 20.18C518.351 20.18 519.025 19.92 519.518 19.4C520.025 18.8667 520.278 18.1067 520.278 17.12V10.98H522.558ZM524.806 16.44C524.806 15.3333 525.033 14.3533 525.486 13.5C525.953 12.6467 526.58 11.9867 527.366 11.52C528.166 11.04 529.046 10.8 530.006 10.8C530.873 10.8 531.626 10.9733 532.266 11.32C532.92 11.6533 533.44 12.0733 533.826 12.58V10.98H536.126V22H533.826V20.36C533.44 20.88 532.913 21.3133 532.246 21.66C531.58 22.0067 530.82 22.18 529.966 22.18C529.02 22.18 528.153 21.94 527.366 21.46C526.58 20.9667 525.953 20.2867 525.486 19.42C525.033 18.54 524.806 17.5467 524.806 16.44ZM533.826 16.48C533.826 15.72 533.666 15.06 533.346 14.5C533.04 13.94 532.633 13.5133 532.126 13.22C531.62 12.9267 531.073 12.78 530.486 12.78C529.9 12.78 529.353 12.9267 528.846 13.22C528.34 13.5 527.926 13.92 527.606 14.48C527.3 15.0267 527.146 15.68 527.146 16.44C527.146 17.2 527.3 17.8667 527.606 18.44C527.926 19.0133 528.34 19.4533 528.846 19.76C529.366 20.0533 529.913 20.2 530.486 20.2C531.073 20.2 531.62 20.0533 532.126 19.76C532.633 19.4667 533.04 19.04 533.346 18.48C533.666 17.9067 533.826 17.24 533.826 16.48ZM58.66 39.52C58.2467 39.52 57.9 39.38 57.62 39.1C57.34 38.82 57.2 38.4733 57.2 38.06C57.2 37.6467 57.34 37.3 57.62 37.02C57.9 36.74 58.2467 36.6 58.66 36.6C59.06 36.6 59.4 36.74 59.68 37.02C59.96 37.3 60.1 37.6467 60.1 38.06C60.1 38.4733 59.96 38.82 59.68 39.1C59.4 39.38 59.06 39.52 58.66 39.52ZM59.78 40.98V52H57.5V40.98H59.78ZM76.1134 40.8C76.9801 40.8 77.7534 40.98 78.4334 41.34C79.1268 41.7 79.6668 42.2333 80.0534 42.94C80.4534 43.6467 80.6534 44.5 80.6534 45.5V52H78.3934V45.84C78.3934 44.8533 78.1468 44.1 77.6534 43.58C77.1601 43.0467 76.4868 42.78 75.6334 42.78C74.7801 42.78 74.1001 43.0467 73.5934 43.58C73.1001 44.1 72.8534 44.8533 72.8534 45.84V52H70.5934V45.84C70.5934 44.8533 70.3468 44.1 69.8534 43.58C69.3601 43.0467 68.6868 42.78 67.8334 42.78C66.9801 42.78 66.3001 43.0467 65.7934 43.58C65.3001 44.1 65.0534 44.8533 65.0534 45.84V52H62.7734V40.98H65.0534V42.24C65.4268 41.7867 65.9001 41.4333 66.4734 41.18C67.0468 40.9267 67.6601 40.8 68.3134 40.8C69.1934 40.8 69.9801 40.9867 70.6734 41.36C71.3668 41.7333 71.9001 42.2733 72.2734 42.98C72.6068 42.3133 73.1268 41.7867 73.8334 41.4C74.5401 41 75.3001 40.8 76.1134 40.8ZM82.7947 46.44C82.7947 45.3333 83.0214 44.3533 83.4747 43.5C83.9414 42.6467 84.568 41.9867 85.3547 41.52C86.1547 41.04 87.0347 40.8 87.9947 40.8C88.8614 40.8 89.6147 40.9733 90.2547 41.32C90.908 41.6533 91.428 42.0733 91.8147 42.58V40.98H94.1147V52H91.8147V50.36C91.428 50.88 90.9014 51.3133 90.2347 51.66C89.568 52.0067 88.808 52.18 87.9547 52.18C87.008 52.18 86.1414 51.94 85.3547 51.46C84.568 50.9667 83.9414 50.2867 83.4747 49.42C83.0214 48.54 82.7947 47.5467 82.7947 46.44ZM91.8147 46.48C91.8147 45.72 91.6547 45.06 91.3347 44.5C91.028 43.94 90.6214 43.5133 90.1147 43.22C89.608 42.9267 89.0614 42.78 88.4747 42.78C87.888 42.78 87.3414 42.9267 86.8347 43.22C86.328 43.5 85.9147 43.92 85.5947 44.48C85.288 45.0267 85.1347 45.68 85.1347 46.44C85.1347 47.2 85.288 47.8667 85.5947 48.44C85.9147 49.0133 86.328 49.4533 86.8347 49.76C87.3547 50.0533 87.9014 50.2 88.4747 50.2C89.0614 50.2 89.608 50.0533 90.1147 49.76C90.6214 49.4667 91.028 49.04 91.3347 48.48C91.6547 47.9067 91.8147 47.24 91.8147 46.48ZM101.549 40.8C102.403 40.8 103.156 40.9733 103.809 41.32C104.476 41.6533 104.996 42.0733 105.369 42.58V40.98H107.669V52.18C107.669 53.1933 107.456 54.0933 107.029 54.88C106.603 55.68 105.983 56.3067 105.169 56.76C104.369 57.2133 103.409 57.44 102.289 57.44C100.796 57.44 99.556 57.0867 98.5694 56.38C97.5827 55.6867 97.0227 54.74 96.8894 53.54H99.1494C99.3227 54.1133 99.6894 54.5733 100.249 54.92C100.823 55.28 101.503 55.46 102.289 55.46C103.209 55.46 103.949 55.18 104.509 54.62C105.083 54.06 105.369 53.2467 105.369 52.18V50.34C104.983 50.86 104.456 51.3 103.789 51.66C103.136 52.0067 102.389 52.18 101.549 52.18C100.589 52.18 99.7094 51.94 98.9094 51.46C98.1227 50.9667 97.496 50.2867 97.0294 49.42C96.576 48.54 96.3494 47.5467 96.3494 46.44C96.3494 45.3333 96.576 44.3533 97.0294 43.5C97.496 42.6467 98.1227 41.9867 98.9094 41.52C99.7094 41.04 100.589 40.8 101.549 40.8ZM105.369 46.48C105.369 45.72 105.209 45.06 104.889 44.5C104.583 43.94 104.176 43.5133 103.669 43.22C103.163 42.9267 102.616 42.78 102.029 42.78C101.443 42.78 100.896 42.9267 100.389 43.22C99.8827 43.5 99.4694 43.92 99.1494 44.48C98.8427 45.0267 98.6894 45.68 98.6894 46.44C98.6894 47.2 98.8427 47.8667 99.1494 48.44C99.4694 49.0133 99.8827 49.4533 100.389 49.76C100.909 50.0533 101.456 50.2 102.029 50.2C102.616 50.2 103.163 50.0533 103.669 49.76C104.176 49.4667 104.583 49.04 104.889 48.48C105.209 47.9067 105.369 47.24 105.369 46.48ZM120.764 46.22C120.764 46.6333 120.737 47.0067 120.684 47.34H112.264C112.331 48.22 112.657 48.9267 113.244 49.46C113.831 49.9933 114.551 50.26 115.404 50.26C116.631 50.26 117.497 49.7467 118.004 48.72H120.464C120.131 49.7333 119.524 50.5667 118.644 51.22C117.777 51.86 116.697 52.18 115.404 52.18C114.351 52.18 113.404 51.9467 112.564 51.48C111.737 51 111.084 50.3333 110.604 49.48C110.137 48.6133 109.904 47.6133 109.904 46.48C109.904 45.3467 110.131 44.3533 110.584 43.5C111.051 42.6333 111.697 41.9667 112.524 41.5C113.364 41.0333 114.324 40.8 115.404 40.8C116.444 40.8 117.371 41.0267 118.184 41.48C118.997 41.9333 119.631 42.5733 120.084 43.4C120.537 44.2133 120.764 45.1533 120.764 46.22ZM118.384 45.5C118.371 44.66 118.071 43.9867 117.484 43.48C116.897 42.9733 116.171 42.72 115.304 42.72C114.517 42.72 113.844 42.9733 113.284 43.48C112.724 43.9733 112.391 44.6467 112.284 45.5H118.384ZM136.348 40.8C137.214 40.8 137.988 40.98 138.668 41.34C139.361 41.7 139.901 42.2333 140.288 42.94C140.688 43.6467 140.888 44.5 140.888 45.5V52H138.628V45.84C138.628 44.8533 138.381 44.1 137.888 43.58C137.394 43.0467 136.721 42.78 135.868 42.78C135.014 42.78 134.334 43.0467 133.828 43.58C133.334 44.1 133.088 44.8533 133.088 45.84V52H130.828V45.84C130.828 44.8533 130.581 44.1 130.088 43.58C129.594 43.0467 128.921 42.78 128.068 42.78C127.214 42.78 126.534 43.0467 126.028 43.58C125.534 44.1 125.288 44.8533 125.288 45.84V52H123.008V40.98H125.288V42.24C125.661 41.7867 126.134 41.4333 126.708 41.18C127.281 40.9267 127.894 40.8 128.548 40.8C129.428 40.8 130.214 40.9867 130.908 41.36C131.601 41.7333 132.134 42.2733 132.508 42.98C132.841 42.3133 133.361 41.7867 134.068 41.4C134.774 41 135.534 40.8 136.348 40.8ZM151.264 42.6C151.651 42.0933 152.178 41.6667 152.844 41.32C153.511 40.9733 154.264 40.8 155.104 40.8C156.064 40.8 156.938 41.04 157.724 41.52C158.524 41.9867 159.151 42.6467 159.604 43.5C160.058 44.3533 160.284 45.3333 160.284 46.44C160.284 47.5467 160.058 48.54 159.604 49.42C159.151 50.2867 158.524 50.9667 157.724 51.46C156.938 51.94 156.064 52.18 155.104 52.18C154.264 52.18 153.518 52.0133 152.864 51.68C152.211 51.3333 151.678 50.9067 151.264 50.4V57.24H148.984V40.98H151.264V42.6ZM157.964 46.44C157.964 45.68 157.804 45.0267 157.484 44.48C157.178 43.92 156.764 43.5 156.244 43.22C155.738 42.9267 155.191 42.78 154.604 42.78C154.031 42.78 153.484 42.9267 152.964 43.22C152.458 43.5133 152.044 43.94 151.724 44.5C151.418 45.06 151.264 45.72 151.264 46.48C151.264 47.24 151.418 47.9067 151.724 48.48C152.044 49.04 152.458 49.4667 152.964 49.76C153.484 50.0533 154.031 50.2 154.604 50.2C155.191 50.2 155.738 50.0533 156.244 49.76C156.764 49.4533 157.178 49.0133 157.484 48.44C157.804 47.8667 157.964 47.2 157.964 46.44ZM161.779 46.44C161.779 45.3333 162.006 44.3533 162.459 43.5C162.926 42.6467 163.552 41.9867 164.339 41.52C165.139 41.04 166.019 40.8 166.979 40.8C167.846 40.8 168.599 40.9733 169.239 41.32C169.892 41.6533 170.412 42.0733 170.799 42.58V40.98H173.099V52H170.799V50.36C170.412 50.88 169.886 51.3133 169.219 51.66C168.552 52.0067 167.792 52.18 166.939 52.18C165.992 52.18 165.126 51.94 164.339 51.46C163.552 50.9667 162.926 50.2867 162.459 49.42C162.006 48.54 161.779 47.5467 161.779 46.44ZM170.799 46.48C170.799 45.72 170.639 45.06 170.319 44.5C170.012 43.94 169.606 43.5133 169.099 43.22C168.592 42.9267 168.046 42.78 167.459 42.78C166.872 42.78 166.326 42.9267 165.819 43.22C165.312 43.5 164.899 43.92 164.579 44.48C164.272 45.0267 164.119 45.68 164.119 46.44C164.119 47.2 164.272 47.8667 164.579 48.44C164.899 49.0133 165.312 49.4533 165.819 49.76C166.339 50.0533 166.886 50.2 167.459 50.2C168.046 50.2 168.592 50.0533 169.099 49.76C169.606 49.4667 170.012 49.04 170.319 48.48C170.639 47.9067 170.799 47.24 170.799 46.48ZM178.374 42.58C178.707 42.02 179.147 41.5867 179.694 41.28C180.254 40.96 180.914 40.8 181.674 40.8V43.16H181.094C180.2 43.16 179.52 43.3867 179.054 43.84C178.6 44.2933 178.374 45.08 178.374 46.2V52H176.094V40.98H178.374V42.58ZM183.01 46.44C183.01 45.3333 183.236 44.3533 183.69 43.5C184.156 42.6467 184.783 41.9867 185.57 41.52C186.37 41.04 187.25 40.8 188.21 40.8C189.076 40.8 189.83 40.9733 190.47 41.32C191.123 41.6533 191.643 42.0733 192.03 42.58V40.98H194.33V52H192.03V50.36C191.643 50.88 191.116 51.3133 190.45 51.66C189.783 52.0067 189.023 52.18 188.17 52.18C187.223 52.18 186.356 51.94 185.57 51.46C184.783 50.9667 184.156 50.2867 183.69 49.42C183.236 48.54 183.01 47.5467 183.01 46.44ZM192.03 46.48C192.03 45.72 191.87 45.06 191.55 44.5C191.243 43.94 190.836 43.5133 190.33 43.22C189.823 42.9267 189.276 42.78 188.69 42.78C188.103 42.78 187.556 42.9267 187.05 43.22C186.543 43.5 186.13 43.92 185.81 44.48C185.503 45.0267 185.35 45.68 185.35 46.44C185.35 47.2 185.503 47.8667 185.81 48.44C186.13 49.0133 186.543 49.4533 187.05 49.76C187.57 50.0533 188.116 50.2 188.69 50.2C189.276 50.2 189.823 50.0533 190.33 49.76C190.836 49.4667 191.243 49.04 191.55 48.48C191.87 47.9067 192.03 47.24 192.03 46.48ZM207.14 42.84H205.1V52H202.8V42.84H201.5V40.98H202.8V40.2C202.8 38.9333 203.133 38.0133 203.8 37.44C204.48 36.8533 205.54 36.56 206.98 36.56V38.46C206.286 38.46 205.8 38.5933 205.52 38.86C205.24 39.1133 205.1 39.56 205.1 40.2V40.98H207.14V42.84ZM210.32 39.52C209.907 39.52 209.56 39.38 209.28 39.1C209 38.82 208.86 38.4733 208.86 38.06C208.86 37.6467 209 37.3 209.28 37.02C209.56 36.74 209.907 36.6 210.32 36.6C210.72 36.6 211.06 36.74 211.34 37.02C211.62 37.3 211.76 37.6467 211.76 38.06C211.76 38.4733 211.62 38.82 211.34 39.1C211.06 39.38 210.72 39.52 210.32 39.52ZM211.44 40.98V52H209.16V40.98H211.44ZM219.994 40.8C220.86 40.8 221.634 40.98 222.314 41.34C223.007 41.7 223.547 42.2333 223.934 42.94C224.32 43.6467 224.514 44.5 224.514 45.5V52H222.254V45.84C222.254 44.8533 222.007 44.1 221.514 43.58C221.02 43.0467 220.347 42.78 219.494 42.78C218.64 42.78 217.96 43.0467 217.454 43.58C216.96 44.1 216.714 44.8533 216.714 45.84V52H214.434V40.98H216.714V42.24C217.087 41.7867 217.56 41.4333 218.134 41.18C218.72 40.9267 219.34 40.8 219.994 40.8ZM231.422 52.18C230.555 52.18 229.775 52.0267 229.082 51.72C228.402 51.4 227.862 50.9733 227.462 50.44C227.062 49.8933 226.849 49.2867 226.822 48.62H229.182C229.222 49.0867 229.442 49.48 229.842 49.8C230.255 50.1067 230.769 50.26 231.382 50.26C232.022 50.26 232.515 50.14 232.862 49.9C233.222 49.6467 233.402 49.3267 233.402 48.94C233.402 48.5267 233.202 48.22 232.802 48.02C232.415 47.82 231.795 47.6 230.942 47.36C230.115 47.1333 229.442 46.9133 228.922 46.7C228.402 46.4867 227.949 46.16 227.562 45.72C227.189 45.28 227.002 44.7 227.002 43.98C227.002 43.3933 227.175 42.86 227.522 42.38C227.869 41.8867 228.362 41.5 229.002 41.22C229.655 40.94 230.402 40.8 231.242 40.8C232.495 40.8 233.502 41.12 234.262 41.76C235.035 42.3867 235.449 43.2467 235.502 44.34H233.222C233.182 43.8467 232.982 43.4533 232.622 43.16C232.262 42.8667 231.775 42.72 231.162 42.72C230.562 42.72 230.102 42.8333 229.782 43.06C229.462 43.2867 229.302 43.5867 229.302 43.96C229.302 44.2533 229.409 44.5 229.622 44.7C229.835 44.9 230.095 45.06 230.402 45.18C230.709 45.2867 231.162 45.4267 231.762 45.6C232.562 45.8133 233.215 46.0333 233.722 46.26C234.242 46.4733 234.689 46.7933 235.062 47.22C235.435 47.6467 235.629 48.2133 235.642 48.92C235.642 49.5467 235.469 50.1067 235.122 50.6C234.775 51.0933 234.282 51.48 233.642 51.76C233.015 52.04 232.275 52.18 231.422 52.18ZM242.541 46.44C242.541 45.3333 242.767 44.3533 243.221 43.5C243.687 42.6467 244.314 41.9867 245.101 41.52C245.901 41.04 246.787 40.8 247.761 40.8C248.481 40.8 249.187 40.96 249.881 41.28C250.587 41.5867 251.147 42 251.561 42.52V37.2H253.861V52H251.561V50.34C251.187 50.8733 250.667 51.3133 250.001 51.66C249.347 52.0067 248.594 52.18 247.741 52.18C246.781 52.18 245.901 51.94 245.101 51.46C244.314 50.9667 243.687 50.2867 243.221 49.42C242.767 48.54 242.541 47.5467 242.541 46.44ZM251.561 46.48C251.561 45.72 251.401 45.06 251.081 44.5C250.774 43.94 250.367 43.5133 249.861 43.22C249.354 42.9267 248.807 42.78 248.221 42.78C247.634 42.78 247.087 42.9267 246.581 43.22C246.074 43.5 245.661 43.92 245.341 44.48C245.034 45.0267 244.881 45.68 244.881 46.44C244.881 47.2 245.034 47.8667 245.341 48.44C245.661 49.0133 246.074 49.4533 246.581 49.76C247.101 50.0533 247.647 50.2 248.221 50.2C248.807 50.2 249.354 50.0533 249.861 49.76C250.367 49.4667 250.774 49.04 251.081 48.48C251.401 47.9067 251.561 47.24 251.561 46.48ZM266.955 46.22C266.955 46.6333 266.929 47.0067 266.875 47.34H258.455C258.522 48.22 258.849 48.9267 259.435 49.46C260.022 49.9933 260.742 50.26 261.595 50.26C262.822 50.26 263.689 49.7467 264.195 48.72H266.655C266.322 49.7333 265.715 50.5667 264.835 51.22C263.969 51.86 262.889 52.18 261.595 52.18C260.542 52.18 259.595 51.9467 258.755 51.48C257.929 51 257.275 50.3333 256.795 49.48C256.329 48.6133 256.095 47.6133 256.095 46.48C256.095 45.3467 256.322 44.3533 256.775 43.5C257.242 42.6333 257.889 41.9667 258.715 41.5C259.555 41.0333 260.515 40.8 261.595 40.8C262.635 40.8 263.562 41.0267 264.375 41.48C265.189 41.9333 265.822 42.5733 266.275 43.4C266.729 44.2133 266.955 45.1533 266.955 46.22ZM264.575 45.5C264.562 44.66 264.262 43.9867 263.675 43.48C263.089 42.9733 262.362 42.72 261.495 42.72C260.709 42.72 260.035 42.9733 259.475 43.48C258.915 43.9733 258.582 44.6467 258.475 45.5H264.575ZM273.199 52.18C272.333 52.18 271.553 52.0267 270.859 51.72C270.179 51.4 269.639 50.9733 269.239 50.44C268.839 49.8933 268.626 49.2867 268.599 48.62H270.959C270.999 49.0867 271.219 49.48 271.619 49.8C272.033 50.1067 272.546 50.26 273.159 50.26C273.799 50.26 274.293 50.14 274.639 49.9C274.999 49.6467 275.179 49.3267 275.179 48.94C275.179 48.5267 274.979 48.22 274.579 48.02C274.193 47.82 273.573 47.6 272.719 47.36C271.893 47.1333 271.219 46.9133 270.699 46.7C270.179 46.4867 269.726 46.16 269.339 45.72C268.966 45.28 268.779 44.7 268.779 43.98C268.779 43.3933 268.953 42.86 269.299 42.38C269.646 41.8867 270.139 41.5 270.779 41.22C271.433 40.94 272.179 40.8 273.019 40.8C274.273 40.8 275.279 41.12 276.039 41.76C276.813 42.3867 277.226 43.2467 277.279 44.34H274.999C274.959 43.8467 274.759 43.4533 274.399 43.16C274.039 42.8667 273.553 42.72 272.939 42.72C272.339 42.72 271.879 42.8333 271.559 43.06C271.239 43.2867 271.079 43.5867 271.079 43.96C271.079 44.2533 271.186 44.5 271.399 44.7C271.613 44.9 271.873 45.06 272.179 45.18C272.486 45.2867 272.939 45.4267 273.539 45.6C274.339 45.8133 274.993 46.0333 275.499 46.26C276.019 46.4733 276.466 46.7933 276.839 47.22C277.213 47.6467 277.406 48.2133 277.419 48.92C277.419 49.5467 277.246 50.1067 276.899 50.6C276.553 51.0933 276.059 51.48 275.419 51.76C274.793 52.04 274.053 52.18 273.199 52.18ZM282.543 42.84V48.94C282.543 49.3533 282.636 49.6533 282.823 49.84C283.023 50.0133 283.356 50.1 283.823 50.1H285.223V52H283.423C282.396 52 281.609 51.76 281.063 51.28C280.516 50.8 280.243 50.02 280.243 48.94V42.84H278.943V40.98H280.243V38.24H282.543V40.98H285.223V42.84H282.543ZM297.424 46.22C297.424 46.6333 297.398 47.0067 297.344 47.34H288.924C288.991 48.22 289.318 48.9267 289.904 49.46C290.491 49.9933 291.211 50.26 292.064 50.26C293.291 50.26 294.158 49.7467 294.664 48.72H297.124C296.791 49.7333 296.184 50.5667 295.304 51.22C294.438 51.86 293.358 52.18 292.064 52.18C291.011 52.18 290.064 51.9467 289.224 51.48C288.398 51 287.744 50.3333 287.264 49.48C286.798 48.6133 286.564 47.6133 286.564 46.48C286.564 45.3467 286.791 44.3533 287.244 43.5C287.711 42.6333 288.358 41.9667 289.184 41.5C290.024 41.0333 290.984 40.8 292.064 40.8C293.104 40.8 294.031 41.0267 294.844 41.48C295.658 41.9333 296.291 42.5733 296.744 43.4C297.198 44.2133 297.424 45.1533 297.424 46.22ZM295.044 45.5C295.031 44.66 294.731 43.9867 294.144 43.48C293.558 42.9733 292.831 42.72 291.964 42.72C291.178 42.72 290.504 42.9733 289.944 43.48C289.384 43.9733 289.051 44.6467 288.944 45.5H295.044ZM314.963 46.22C314.963 46.6333 314.937 47.0067 314.883 47.34H306.463C306.53 48.22 306.857 48.9267 307.443 49.46C308.03 49.9933 308.75 50.26 309.603 50.26C310.83 50.26 311.697 49.7467 312.203 48.72H314.663C314.33 49.7333 313.723 50.5667 312.843 51.22C311.977 51.86 310.897 52.18 309.603 52.18C308.55 52.18 307.603 51.9467 306.763 51.48C305.937 51 305.283 50.3333 304.803 49.48C304.337 48.6133 304.103 47.6133 304.103 46.48C304.103 45.3467 304.33 44.3533 304.783 43.5C305.25 42.6333 305.897 41.9667 306.723 41.5C307.563 41.0333 308.523 40.8 309.603 40.8C310.643 40.8 311.57 41.0267 312.383 41.48C313.197 41.9333 313.83 42.5733 314.283 43.4C314.737 44.2133 314.963 45.1533 314.963 46.22ZM312.583 45.5C312.57 44.66 312.27 43.9867 311.683 43.48C311.097 42.9733 310.37 42.72 309.503 42.72C308.717 42.72 308.043 42.9733 307.483 43.48C306.923 43.9733 306.59 44.6467 306.483 45.5H312.583ZM321.467 49.96L324.587 40.98H327.007L322.807 52H320.087L315.907 40.98H318.347L321.467 49.96ZM338.83 46.22C338.83 46.6333 338.804 47.0067 338.75 47.34H330.33C330.397 48.22 330.724 48.9267 331.31 49.46C331.897 49.9933 332.617 50.26 333.47 50.26C334.697 50.26 335.564 49.7467 336.07 48.72H338.53C338.197 49.7333 337.59 50.5667 336.71 51.22C335.844 51.86 334.764 52.18 333.47 52.18C332.417 52.18 331.47 51.9467 330.63 51.48C329.804 51 329.15 50.3333 328.67 49.48C328.204 48.6133 327.97 47.6133 327.97 46.48C327.97 45.3467 328.197 44.3533 328.65 43.5C329.117 42.6333 329.764 41.9667 330.59 41.5C331.43 41.0333 332.39 40.8 333.47 40.8C334.51 40.8 335.437 41.0267 336.25 41.48C337.064 41.9333 337.697 42.5733 338.15 43.4C338.604 44.2133 338.83 45.1533 338.83 46.22ZM336.45 45.5C336.437 44.66 336.137 43.9867 335.55 43.48C334.964 42.9733 334.237 42.72 333.37 42.72C332.584 42.72 331.91 42.9733 331.35 43.48C330.79 43.9733 330.457 44.6467 330.35 45.5H336.45ZM346.634 40.8C347.501 40.8 348.274 40.98 348.954 41.34C349.648 41.7 350.188 42.2333 350.574 42.94C350.961 43.6467 351.154 44.5 351.154 45.5V52H348.894V45.84C348.894 44.8533 348.648 44.1 348.154 43.58C347.661 43.0467 346.988 42.78 346.134 42.78C345.281 42.78 344.601 43.0467 344.094 43.58C343.601 44.1 343.354 44.8533 343.354 45.84V52H341.074V40.98H343.354V42.24C343.728 41.7867 344.201 41.4333 344.774 41.18C345.361 40.9267 345.981 40.8 346.634 40.8ZM356.723 42.84V48.94C356.723 49.3533 356.816 49.6533 357.003 49.84C357.203 50.0133 357.536 50.1 358.003 50.1H359.403V52H357.603C356.576 52 355.789 51.76 355.243 51.28C354.696 50.8 354.423 50.02 354.423 48.94V42.84H353.123V40.98H354.423V38.24H356.723V40.98H359.403V42.84H356.723ZM366.284 52.18C365.244 52.18 364.304 51.9467 363.464 51.48C362.624 51 361.964 50.3333 361.484 49.48C361.004 48.6133 360.764 47.6133 360.764 46.48C360.764 45.36 361.011 44.3667 361.504 43.5C361.997 42.6333 362.671 41.9667 363.524 41.5C364.377 41.0333 365.331 40.8 366.384 40.8C367.437 40.8 368.391 41.0333 369.244 41.5C370.097 41.9667 370.771 42.6333 371.264 43.5C371.757 44.3667 372.004 45.36 372.004 46.48C372.004 47.6 371.751 48.5933 371.244 49.46C370.737 50.3267 370.044 51 369.164 51.48C368.297 51.9467 367.337 52.18 366.284 52.18ZM366.284 50.2C366.871 50.2 367.417 50.06 367.924 49.78C368.444 49.5 368.864 49.08 369.184 48.52C369.504 47.96 369.664 47.28 369.664 46.48C369.664 45.68 369.511 45.0067 369.204 44.46C368.897 43.9 368.491 43.48 367.984 43.2C367.477 42.92 366.931 42.78 366.344 42.78C365.757 42.78 365.211 42.92 364.704 43.2C364.211 43.48 363.817 43.9 363.524 44.46C363.231 45.0067 363.084 45.68 363.084 46.48C363.084 47.6667 363.384 48.5867 363.984 49.24C364.597 49.88 365.364 50.2 366.284 50.2ZM375.178 52.14C374.764 52.14 374.418 52 374.138 51.72C373.858 51.44 373.718 51.0933 373.718 50.68C373.718 50.2667 373.858 49.92 374.138 49.64C374.418 49.36 374.764 49.22 375.178 49.22C375.578 49.22 375.918 49.36 376.198 49.64C376.478 49.92 376.618 50.2667 376.618 50.68C376.618 51.0933 376.478 51.44 376.198 51.72C375.918 52 375.578 52.14 375.178 52.14Z" fill="white"/>
</svg>
