<svg width="545" height="80" viewBox="0 0 545 80" fill="none" xmlns="http://www.w3.org/2000/svg">
<rect width="545" height="80" rx="40" transform="matrix(1 0 0 -1 0 80)" fill="#1F1F1F" fill-opacity="0.9"/>
<path d="M41.1825 39.8C41.1825 37.6027 41.6732 35.64 42.6545 33.912C43.6572 32.1627 45.0118 30.808 46.7185 29.848C48.4465 28.8667 50.3772 28.376 52.5105 28.376C55.0065 28.376 57.1932 29.016 59.0705 30.296C60.9478 31.576 62.2598 33.3467 63.0065 35.608H57.8545C57.3425 34.5413 56.6172 33.7413 55.6785 33.208C54.7612 32.6747 53.6945 32.408 52.4785 32.408C51.1772 32.408 50.0145 32.7173 48.9905 33.336C47.9878 33.9333 47.1985 34.7867 46.6225 35.896C46.0678 37.0053 45.7905 38.3067 45.7905 39.8C45.7905 41.272 46.0678 42.5733 46.6225 43.704C47.1985 44.8133 47.9878 45.6773 48.9905 46.296C50.0145 46.8933 51.1772 47.192 52.4785 47.192C53.6945 47.192 54.7612 46.9253 55.6785 46.392C56.6172 45.8373 57.3425 45.0267 57.8545 43.96H63.0065C62.2598 46.2427 60.9478 48.024 59.0705 49.304C57.2145 50.5627 55.0278 51.192 52.5105 51.192C50.3772 51.192 48.4465 50.712 46.7185 49.752C45.0118 48.7707 43.6572 47.416 42.6545 45.688C41.6732 43.96 41.1825 41.9973 41.1825 39.8ZM66.321 42.072C66.321 40.28 66.673 38.6907 67.377 37.304C68.1023 35.9173 69.073 34.8507 70.289 34.104C71.5263 33.3573 72.9023 32.984 74.417 32.984C75.7397 32.984 76.8917 33.2507 77.873 33.784C78.8757 34.3173 79.6757 34.9893 80.273 35.8V33.272H84.785V51H80.273V48.408C79.697 49.24 78.897 49.9333 77.873 50.488C76.8703 51.0213 75.7077 51.288 74.385 51.288C72.8917 51.288 71.5263 50.904 70.289 50.136C69.073 49.368 68.1023 48.2907 67.377 46.904C66.673 45.496 66.321 43.8853 66.321 42.072ZM80.273 42.136C80.273 41.048 80.0597 40.12 79.633 39.352C79.2063 38.5627 78.6303 37.9653 77.905 37.56C77.1797 37.1333 76.401 36.92 75.569 36.92C74.737 36.92 73.969 37.1227 73.265 37.528C72.561 37.9333 71.985 38.5307 71.537 39.32C71.1103 40.088 70.897 41.0053 70.897 42.072C70.897 43.1387 71.1103 44.0773 71.537 44.888C71.985 45.6773 72.561 46.2853 73.265 46.712C73.9903 47.1387 74.7583 47.352 75.569 47.352C76.401 47.352 77.1797 47.1493 77.905 46.744C78.6303 46.3173 79.2063 45.72 79.633 44.952C80.0597 44.1627 80.273 43.224 80.273 42.136ZM94.2805 35.832C94.8565 35.0213 95.6458 34.3493 96.6485 33.816C97.6725 33.2613 98.8352 32.984 100.136 32.984C101.651 32.984 103.016 33.3573 104.233 34.104C105.47 34.8507 106.44 35.9173 107.144 37.304C107.87 38.6693 108.233 40.2587 108.233 42.072C108.233 43.8853 107.87 45.496 107.144 46.904C106.44 48.2907 105.47 49.368 104.233 50.136C103.016 50.904 101.651 51.288 100.136 51.288C98.8352 51.288 97.6832 51.0213 96.6805 50.488C95.6992 49.9547 94.8992 49.2827 94.2805 48.472V59.448H89.8005V33.272H94.2805V35.832ZM103.656 42.072C103.656 41.0053 103.432 40.088 102.984 39.32C102.558 38.5307 101.982 37.9333 101.256 37.528C100.552 37.1227 99.7845 36.92 98.9525 36.92C98.1418 36.92 97.3738 37.1333 96.6485 37.56C95.9445 37.9653 95.3685 38.5627 94.9205 39.352C94.4938 40.1413 94.2805 41.0693 94.2805 42.136C94.2805 43.2027 94.4938 44.1307 94.9205 44.92C95.3685 45.7093 95.9445 46.3173 96.6485 46.744C97.3738 47.1493 98.1418 47.352 98.9525 47.352C99.7845 47.352 100.552 47.1387 101.256 46.712C101.982 46.2853 102.558 45.6773 102.984 44.888C103.432 44.0987 103.656 43.16 103.656 42.072ZM117.344 36.952V45.528C117.344 46.1253 117.483 46.5627 117.76 46.84C118.059 47.096 118.549 47.224 119.232 47.224H121.312V51H118.496C114.72 51 112.832 49.1653 112.832 45.496V36.952H110.72V33.272H112.832V28.888H117.344V33.272H121.312V36.952H117.344ZM141.91 33.272V51H137.398V48.76C136.822 49.528 136.065 50.136 135.126 50.584C134.209 51.0107 133.206 51.224 132.118 51.224C130.732 51.224 129.505 50.936 128.438 50.36C127.372 49.7627 126.529 48.8987 125.91 47.768C125.313 46.616 125.014 45.2507 125.014 43.672V33.272H129.494V43.032C129.494 44.44 129.846 45.528 130.55 46.296C131.254 47.0427 132.214 47.416 133.43 47.416C134.668 47.416 135.638 47.0427 136.342 46.296C137.046 45.528 137.398 44.44 137.398 43.032V33.272H141.91ZM151.45 36.024C152.026 35.0853 152.773 34.3493 153.69 33.816C154.629 33.2827 155.696 33.016 156.89 33.016V37.72H155.706C154.298 37.72 153.232 38.0507 152.506 38.712C151.802 39.3733 151.45 40.5253 151.45 42.168V51H146.97V33.272H151.45V36.024ZM159.396 42.072C159.396 40.28 159.748 38.6907 160.452 37.304C161.177 35.9173 162.148 34.8507 163.364 34.104C164.601 33.3573 165.977 32.984 167.492 32.984C168.815 32.984 169.967 33.2507 170.948 33.784C171.951 34.3173 172.751 34.9893 173.348 35.8V33.272H177.86V51H173.348V48.408C172.772 49.24 171.972 49.9333 170.948 50.488C169.945 51.0213 168.783 51.288 167.46 51.288C165.967 51.288 164.601 50.904 163.364 50.136C162.148 49.368 161.177 48.2907 160.452 46.904C159.748 45.496 159.396 43.8853 159.396 42.072ZM173.348 42.136C173.348 41.048 173.135 40.12 172.708 39.352C172.281 38.5627 171.705 37.9653 170.98 37.56C170.255 37.1333 169.476 36.92 168.644 36.92C167.812 36.92 167.044 37.1227 166.34 37.528C165.636 37.9333 165.06 38.5307 164.612 39.32C164.185 40.088 163.972 41.0053 163.972 42.072C163.972 43.1387 164.185 44.0773 164.612 44.888C165.06 45.6773 165.636 46.2853 166.34 46.712C167.065 47.1387 167.833 47.352 168.644 47.352C169.476 47.352 170.255 47.1493 170.98 46.744C171.705 46.3173 172.281 45.72 172.708 44.952C173.135 44.1627 173.348 43.224 173.348 42.136ZM199.268 36.952H196.164V51H191.62V36.952H189.604V33.272H191.62V32.376C191.62 30.2 192.239 28.6 193.476 27.576C194.714 26.552 196.58 26.072 199.076 26.136V29.912C197.988 29.8907 197.231 30.072 196.804 30.456C196.378 30.84 196.164 31.5333 196.164 32.536V33.272H199.268V36.952ZM219.292 41.752C219.292 42.392 219.249 42.968 219.164 43.48H206.204C206.31 44.76 206.758 45.7627 207.548 46.488C208.337 47.2133 209.308 47.576 210.46 47.576C212.124 47.576 213.308 46.8613 214.012 45.432H218.844C218.332 47.1387 217.35 48.5467 215.9 49.656C214.449 50.744 212.668 51.288 210.556 51.288C208.849 51.288 207.313 50.9147 205.948 50.168C204.604 49.4 203.548 48.3227 202.78 46.936C202.033 45.5493 201.66 43.9493 201.66 42.136C201.66 40.3013 202.033 38.6907 202.78 37.304C203.526 35.9173 204.572 34.8507 205.916 34.104C207.26 33.3573 208.806 32.984 210.556 32.984C212.241 32.984 213.745 33.3467 215.068 34.072C216.412 34.7973 217.446 35.832 218.172 37.176C218.918 38.4987 219.292 40.024 219.292 41.752ZM214.652 40.472C214.63 39.32 214.214 38.4027 213.404 37.72C212.593 37.016 211.601 36.664 210.428 36.664C209.318 36.664 208.38 37.0053 207.612 37.688C206.865 38.3493 206.406 39.2773 206.236 40.472H214.652ZM225.474 31.16C224.684 31.16 224.023 30.9147 223.49 30.424C222.978 29.912 222.722 29.2827 222.722 28.536C222.722 27.7893 222.978 27.1707 223.49 26.68C224.023 26.168 224.684 25.912 225.474 25.912C226.263 25.912 226.914 26.168 227.426 26.68C227.959 27.1707 228.226 27.7893 228.226 28.536C228.226 29.2827 227.959 29.912 227.426 30.424C226.914 30.9147 226.263 31.16 225.474 31.16ZM227.682 33.272V51H223.202V33.272H227.682ZM237.964 36.952V45.528C237.964 46.1253 238.103 46.5627 238.38 46.84C238.679 47.096 239.169 47.224 239.852 47.224H241.932V51H239.116C235.34 51 233.452 49.1653 233.452 45.496V36.952H231.34V33.272H233.452V28.888H237.964V33.272H241.932V36.952H237.964ZM253.666 51.288C251.96 51.288 250.424 50.9147 249.058 50.168C247.693 49.4 246.616 48.3227 245.826 46.936C245.058 45.5493 244.674 43.9493 244.674 42.136C244.674 40.3227 245.069 38.7227 245.858 37.336C246.669 35.9493 247.768 34.8827 249.154 34.136C250.541 33.368 252.088 32.984 253.794 32.984C255.501 32.984 257.048 33.368 258.434 34.136C259.821 34.8827 260.909 35.9493 261.698 37.336C262.509 38.7227 262.914 40.3227 262.914 42.136C262.914 43.9493 262.498 45.5493 261.666 46.936C260.856 48.3227 259.746 49.4 258.338 50.168C256.952 50.9147 255.394 51.288 253.666 51.288ZM253.666 47.384C254.477 47.384 255.234 47.192 255.938 46.808C256.664 46.4027 257.24 45.8053 257.666 45.016C258.093 44.2267 258.306 43.2667 258.306 42.136C258.306 40.4507 257.858 39.16 256.962 38.264C256.088 37.3467 255.01 36.888 253.73 36.888C252.45 36.888 251.373 37.3467 250.498 38.264C249.645 39.16 249.218 40.4507 249.218 42.136C249.218 43.8213 249.634 45.1227 250.466 46.04C251.32 46.936 252.386 47.384 253.666 47.384ZM273.954 42.136C273.954 40.3013 274.327 38.7013 275.074 37.336C275.82 35.9493 276.855 34.8827 278.178 34.136C279.5 33.368 281.015 32.984 282.722 32.984C284.919 32.984 286.732 33.5387 288.162 34.648C289.612 35.736 290.583 37.272 291.074 39.256H286.242C285.986 38.488 285.548 37.8907 284.93 37.464C284.332 37.016 283.586 36.792 282.69 36.792C281.41 36.792 280.396 37.2613 279.65 38.2C278.903 39.1173 278.53 40.4293 278.53 42.136C278.53 43.8213 278.903 45.1333 279.65 46.072C280.396 46.9893 281.41 47.448 282.69 47.448C284.503 47.448 285.687 46.6373 286.242 45.016H291.074C290.583 46.936 289.612 48.4613 288.162 49.592C286.711 50.7227 284.898 51.288 282.722 51.288C281.015 51.288 279.5 50.9147 278.178 50.168C276.855 49.4 275.82 48.3333 275.074 46.968C274.327 45.5813 273.954 43.9707 273.954 42.136ZM302.868 51.288C301.161 51.288 299.625 50.9147 298.26 50.168C296.894 49.4 295.817 48.3227 295.028 46.936C294.26 45.5493 293.876 43.9493 293.876 42.136C293.876 40.3227 294.27 38.7227 295.06 37.336C295.87 35.9493 296.969 34.8827 298.356 34.136C299.742 33.368 301.289 32.984 302.996 32.984C304.702 32.984 306.249 33.368 307.636 34.136C309.022 34.8827 310.11 35.9493 310.9 37.336C311.71 38.7227 312.116 40.3227 312.116 42.136C312.116 43.9493 311.7 45.5493 310.868 46.936C310.057 48.3227 308.948 49.4 307.54 50.168C306.153 50.9147 304.596 51.288 302.868 51.288ZM302.868 47.384C303.678 47.384 304.436 47.192 305.14 46.808C305.865 46.4027 306.441 45.8053 306.868 45.016C307.294 44.2267 307.508 43.2667 307.508 42.136C307.508 40.4507 307.06 39.16 306.164 38.264C305.289 37.3467 304.212 36.888 302.932 36.888C301.652 36.888 300.574 37.3467 299.7 38.264C298.846 39.16 298.42 40.4507 298.42 42.136C298.42 43.8213 298.836 45.1227 299.668 46.04C300.521 46.936 301.588 47.384 302.868 47.384ZM338.058 33.016C340.234 33.016 341.983 33.688 343.306 35.032C344.65 36.3547 345.322 38.2107 345.322 40.6V51H340.842V41.208C340.842 39.8213 340.49 38.7653 339.786 38.04C339.082 37.2933 338.122 36.92 336.906 36.92C335.69 36.92 334.719 37.2933 333.994 38.04C333.29 38.7653 332.938 39.8213 332.938 41.208V51H328.458V41.208C328.458 39.8213 328.106 38.7653 327.402 38.04C326.698 37.2933 325.738 36.92 324.522 36.92C323.284 36.92 322.303 37.2933 321.578 38.04C320.874 38.7653 320.522 39.8213 320.522 41.208V51H316.042V33.272H320.522V35.416C321.098 34.6693 321.834 34.0827 322.73 33.656C323.647 33.2293 324.65 33.016 325.738 33.016C327.124 33.016 328.362 33.3147 329.45 33.912C330.538 34.488 331.38 35.32 331.978 36.408C332.554 35.384 333.386 34.5627 334.474 33.944C335.583 33.3253 336.778 33.016 338.058 33.016Z" fill="white"/>
<path d="M365.262 51.288C363.811 51.288 362.51 51.032 361.358 50.52C360.206 49.9867 359.289 49.272 358.606 48.376C357.945 47.48 357.582 46.488 357.518 45.4H362.03C362.115 46.0827 362.446 46.648 363.022 47.096C363.619 47.544 364.355 47.768 365.23 47.768C366.083 47.768 366.745 47.5973 367.214 47.256C367.705 46.9147 367.95 46.4773 367.95 45.944C367.95 45.368 367.651 44.9413 367.054 44.664C366.478 44.3653 365.55 44.0453 364.27 43.704C362.947 43.384 361.859 43.0533 361.006 42.712C360.174 42.3707 359.449 41.848 358.83 41.144C358.233 40.44 357.934 39.4907 357.934 38.296C357.934 37.3147 358.211 36.4187 358.766 35.608C359.342 34.7973 360.153 34.1573 361.198 33.688C362.265 33.2187 363.513 32.984 364.942 32.984C367.054 32.984 368.739 33.5173 369.998 34.584C371.257 35.6293 371.95 37.048 372.078 38.84H367.79C367.726 38.136 367.427 37.5813 366.894 37.176C366.382 36.7493 365.689 36.536 364.814 36.536C364.003 36.536 363.374 36.6853 362.926 36.984C362.499 37.2827 362.286 37.6987 362.286 38.232C362.286 38.8293 362.585 39.288 363.182 39.608C363.779 39.9067 364.707 40.216 365.966 40.536C367.246 40.856 368.302 41.1867 369.134 41.528C369.966 41.8693 370.681 42.4027 371.278 43.128C371.897 43.832 372.217 44.7707 372.238 45.944C372.238 46.968 371.95 47.8853 371.374 48.696C370.819 49.5067 370.009 50.1467 368.942 50.616C367.897 51.064 366.67 51.288 365.262 51.288ZM393.292 33.272V51H388.78V48.76C388.204 49.528 387.446 50.136 386.508 50.584C385.59 51.0107 384.588 51.224 383.5 51.224C382.113 51.224 380.886 50.936 379.82 50.36C378.753 49.7627 377.91 48.8987 377.292 47.768C376.694 46.616 376.396 45.2507 376.396 43.672V33.272H380.876V43.032C380.876 44.44 381.228 45.528 381.932 46.296C382.636 47.0427 383.596 47.416 384.812 47.416C386.049 47.416 387.02 47.0427 387.724 46.296C388.428 45.528 388.78 44.44 388.78 43.032V33.272H393.292ZM397.2 42.136C397.2 40.3013 397.573 38.7013 398.32 37.336C399.066 35.9493 400.101 34.8827 401.424 34.136C402.746 33.368 404.261 32.984 405.968 32.984C408.165 32.984 409.978 33.5387 411.408 34.648C412.858 35.736 413.829 37.272 414.32 39.256H409.488C409.232 38.488 408.794 37.8907 408.176 37.464C407.578 37.016 406.832 36.792 405.936 36.792C404.656 36.792 403.642 37.2613 402.896 38.2C402.149 39.1173 401.776 40.4293 401.776 42.136C401.776 43.8213 402.149 45.1333 402.896 46.072C403.642 46.9893 404.656 47.448 405.936 47.448C407.749 47.448 408.933 46.6373 409.488 45.016H414.32C413.829 46.936 412.858 48.4613 411.408 49.592C409.957 50.7227 408.144 51.288 405.968 51.288C404.261 51.288 402.746 50.9147 401.424 50.168C400.101 49.4 399.066 48.3333 398.32 46.968C397.573 45.5813 397.2 43.9707 397.2 42.136ZM434.722 41.752C434.722 42.392 434.679 42.968 434.594 43.48H421.634C421.74 44.76 422.188 45.7627 422.978 46.488C423.767 47.2133 424.738 47.576 425.89 47.576C427.554 47.576 428.738 46.8613 429.442 45.432H434.274C433.762 47.1387 432.78 48.5467 431.33 49.656C429.879 50.744 428.098 51.288 425.986 51.288C424.279 51.288 422.743 50.9147 421.378 50.168C420.034 49.4 418.978 48.3227 418.21 46.936C417.463 45.5493 417.09 43.9493 417.09 42.136C417.09 40.3013 417.463 38.6907 418.21 37.304C418.956 35.9173 420.002 34.8507 421.346 34.104C422.69 33.3573 424.236 32.984 425.986 32.984C427.671 32.984 429.175 33.3467 430.498 34.072C431.842 34.7973 432.876 35.832 433.602 37.176C434.348 38.4987 434.722 40.024 434.722 41.752ZM430.082 40.472C430.06 39.32 429.644 38.4027 428.834 37.72C428.023 37.016 427.031 36.664 425.858 36.664C424.748 36.664 423.81 37.0053 423.042 37.688C422.295 38.3493 421.836 39.2773 421.666 40.472H430.082ZM445.416 51.288C443.965 51.288 442.664 51.032 441.512 50.52C440.36 49.9867 439.442 49.272 438.76 48.376C438.098 47.48 437.736 46.488 437.672 45.4H442.184C442.269 46.0827 442.6 46.648 443.176 47.096C443.773 47.544 444.509 47.768 445.384 47.768C446.237 47.768 446.898 47.5973 447.368 47.256C447.858 46.9147 448.104 46.4773 448.104 45.944C448.104 45.368 447.805 44.9413 447.208 44.664C446.632 44.3653 445.704 44.0453 444.424 43.704C443.101 43.384 442.013 43.0533 441.16 42.712C440.328 42.3707 439.602 41.848 438.984 41.144C438.386 40.44 438.088 39.4907 438.088 38.296C438.088 37.3147 438.365 36.4187 438.92 35.608C439.496 34.7973 440.306 34.1573 441.352 33.688C442.418 33.2187 443.666 32.984 445.096 32.984C447.208 32.984 448.893 33.5173 450.152 34.584C451.41 35.6293 452.104 37.048 452.232 38.84H447.944C447.88 38.136 447.581 37.5813 447.048 37.176C446.536 36.7493 445.842 36.536 444.968 36.536C444.157 36.536 443.528 36.6853 443.08 36.984C442.653 37.2827 442.44 37.6987 442.44 38.232C442.44 38.8293 442.738 39.288 443.336 39.608C443.933 39.9067 444.861 40.216 446.12 40.536C447.4 40.856 448.456 41.1867 449.288 41.528C450.12 41.8693 450.834 42.4027 451.432 43.128C452.05 43.832 452.37 44.7707 452.392 45.944C452.392 46.968 452.104 47.8853 451.528 48.696C450.973 49.5067 450.162 50.1467 449.096 50.616C448.05 51.064 446.824 51.288 445.416 51.288ZM463.493 51.288C462.043 51.288 460.741 51.032 459.589 50.52C458.437 49.9867 457.52 49.272 456.837 48.376C456.176 47.48 455.813 46.488 455.749 45.4H460.261C460.347 46.0827 460.677 46.648 461.253 47.096C461.851 47.544 462.587 47.768 463.461 47.768C464.315 47.768 464.976 47.5973 465.445 47.256C465.936 46.9147 466.181 46.4773 466.181 45.944C466.181 45.368 465.883 44.9413 465.285 44.664C464.709 44.3653 463.781 44.0453 462.501 43.704C461.179 43.384 460.091 43.0533 459.237 42.712C458.405 42.3707 457.68 41.848 457.061 41.144C456.464 40.44 456.165 39.4907 456.165 38.296C456.165 37.3147 456.443 36.4187 456.997 35.608C457.573 34.7973 458.384 34.1573 459.429 33.688C460.496 33.2187 461.744 32.984 463.173 32.984C465.285 32.984 466.971 33.5173 468.229 34.584C469.488 35.6293 470.181 37.048 470.309 38.84H466.021C465.957 38.136 465.659 37.5813 465.125 37.176C464.613 36.7493 463.92 36.536 463.045 36.536C462.235 36.536 461.605 36.6853 461.157 36.984C460.731 37.2827 460.517 37.6987 460.517 38.232C460.517 38.8293 460.816 39.288 461.413 39.608C462.011 39.9067 462.939 40.216 464.197 40.536C465.477 40.856 466.533 41.1867 467.365 41.528C468.197 41.8693 468.912 42.4027 469.509 43.128C470.128 43.832 470.448 44.7707 470.469 45.944C470.469 46.968 470.181 47.8853 469.605 48.696C469.051 49.5067 468.24 50.1467 467.173 50.616C466.128 51.064 464.901 51.288 463.493 51.288ZM482.659 51.288C480.952 51.288 479.416 50.9147 478.051 50.168C476.685 49.4 475.608 48.3227 474.819 46.936C474.051 45.5493 473.667 43.9493 473.667 42.136C473.667 40.3227 474.061 38.7227 474.851 37.336C475.661 35.9493 476.76 34.8827 478.147 34.136C479.533 33.368 481.08 32.984 482.787 32.984C484.493 32.984 486.04 33.368 487.427 34.136C488.813 34.8827 489.901 35.9493 490.691 37.336C491.501 38.7227 491.907 40.3227 491.907 42.136C491.907 43.9493 491.491 45.5493 490.659 46.936C489.848 48.3227 488.739 49.4 487.331 50.168C485.944 50.9147 484.387 51.288 482.659 51.288ZM482.659 47.384C483.469 47.384 484.227 47.192 484.931 46.808C485.656 46.4027 486.232 45.8053 486.659 45.016C487.085 44.2267 487.299 43.2667 487.299 42.136C487.299 40.4507 486.851 39.16 485.955 38.264C485.08 37.3467 484.003 36.888 482.723 36.888C481.443 36.888 480.365 37.3467 479.491 38.264C478.637 39.16 478.211 40.4507 478.211 42.136C478.211 43.8213 478.627 45.1227 479.459 46.04C480.312 46.936 481.379 47.384 482.659 47.384ZM501.625 28.28L501.113 43.736H497.337L496.793 28.28H501.625ZM499.321 51.224C498.51 51.224 497.838 50.9787 497.305 50.488C496.793 49.976 496.537 49.3467 496.537 48.6C496.537 47.8533 496.793 47.2347 497.305 46.744C497.838 46.232 498.51 45.976 499.321 45.976C500.11 45.976 500.761 46.232 501.273 46.744C501.785 47.2347 502.041 47.8533 502.041 48.6C502.041 49.3467 501.785 49.976 501.273 50.488C500.761 50.9787 500.11 51.224 499.321 51.224Z" fill="#FF9700"/>
</svg>
